<svg width="400" height="400" viewBox="0 0 400 400" fill="none" xmlns="http://www.w3.org/2000/svg">
<g clip-path="url(#clip0_3983_38290)">
<path d="M97.8355 54.6682C177.199 59.5311 213.038 52.9891 238.042 52.9891C261.298 52.9891 272.24 129.466 262.683 152.048C253.672 173.341 100.331 174.197 93.1917 165.763C84.9361 156.008 89.7093 115.275 89.7093 101.301" stroke="#141414" stroke-width="16" stroke-linecap="round" stroke-linejoin="round"/>
<path d="M98.3323 190.694C-10.6592 291.485 121.251 273.498 148.233 295.083" stroke="#141414" stroke-width="16" stroke-linecap="round" stroke-linejoin="round"/>
<path d="M98.3301 190.694C99.7917 213.702 101.164 265.697 100.263 272.898" stroke="#141414" stroke-width="16" stroke-linecap="round" stroke-linejoin="round"/>
<path d="M208.308 136.239C208.308 131.959 208.308 127.678 208.308 123.396" stroke="#141414" stroke-width="16" stroke-linecap="round" stroke-linejoin="round"/>
<path d="M177.299 137.271C177.035 133.883 177.3 126.121 177.3 123.396" stroke="#141414" stroke-width="16" stroke-linecap="round" stroke-linejoin="round"/>
<path d="M203.398 241.721C352.097 239.921 374.881 226.73 312.524 341.851" stroke="#141414" stroke-width="16" stroke-linecap="round" stroke-linejoin="round"/>
<path d="M285.55 345.448C196.81 341.85 136.851 374.229 178.222 264.504" stroke="#141414" stroke-width="16" stroke-linecap="round" stroke-linejoin="round"/>
<path d="M180.018 345.448C160.77 331.385 139.302 320.213 120.658 304.675" stroke="#141414" stroke-width="16" stroke-linecap="round" stroke-linejoin="round"/>
<path d="M218.394 190.156C219.024 205.562 219.593 220.898 219.593 236.324" stroke="#141414" stroke-width="16" stroke-linecap="round" stroke-linejoin="round"/>
<path d="M218.394 190.156C225.896 202.037 232.969 209.77 241.777 230.327" stroke="#141414" stroke-width="16" stroke-linecap="round" stroke-linejoin="round"/>
<path d="M80.1176 119.041C75.5998 120.222 71.0492 119.99 66.4417 120.41" stroke="#141414" stroke-width="16" stroke-linecap="round" stroke-linejoin="round"/>
<path d="M59.5933 109.469C59.6537 117.756 59.5916 125.915 58.9099 134.086" stroke="#141414" stroke-width="16" stroke-linecap="round" stroke-linejoin="round"/>
<path d="M277.741 115.622C281.154 115.268 284.588 114.823 287.997 114.255" stroke="#141414" stroke-width="16" stroke-linecap="round" stroke-linejoin="round"/>
<path d="M291.412 104.682C292.382 110.109 292.095 115.612 292.095 121.093" stroke="#141414" stroke-width="16" stroke-linecap="round" stroke-linejoin="round"/>
<path d="M225.769 116.466C203.363 113.993 181.657 115.175 160.124 118.568" stroke="#141414" stroke-width="16" stroke-linecap="round" stroke-linejoin="round"/>
</g>
<defs>
<clipPath id="clip0_3983_38290">
<rect width="400" height="400" fill="white"/>
</clipPath>
</defs>
</svg>
