<svg width="400" height="400" viewBox="0 0 400 400" fill="none" xmlns="http://www.w3.org/2000/svg">
<path d="M142.943 242.666C166.369 236.806 190.127 230.821 213.761 224.888C228.109 221.285 375.465 191.34 355.066 158.569C350.984 152.011 340.801 148.914 333.613 148.312C259.733 142.131 170.496 198.366 97.9959 212.924C84.3987 215.655 67.356 184.505 45.3717 199.103C34.0381 213.121 101.285 252.071 121.499 245.304" stroke="#141414" stroke-width="16" stroke-linecap="round" stroke-linejoin="round"/>
<path d="M245.03 187.18C187.454 141.788 -4.3969 88.6728 168.752 195.056" stroke="#141414" stroke-width="16" stroke-linecap="round" stroke-linejoin="round"/>
<path d="M285.49 220.688C331.837 305.316 258.144 250.685 222.096 230.932" stroke="#141414" stroke-width="16" stroke-linecap="round" stroke-linejoin="round"/>
<path d="M346.208 161.33C274.309 172.441 206.442 200.226 137.106 220.688" stroke="#141414" stroke-width="16" stroke-linecap="round" stroke-linejoin="round"/>
</svg>
