<svg width="400" height="400" viewBox="0 0 400 400" fill="none" xmlns="http://www.w3.org/2000/svg">
<path d="M149.473 202.496C141.353 91.1113 264.474 89.6298 264.474 203.996" stroke="#141414" stroke-width="16" stroke-linecap="round" stroke-linejoin="round"/>
<path d="M141.914 219.954C139.071 225.44 113.236 250.608 118.809 258.056C123.542 264.383 359.181 296.341 267.882 213.979" stroke="#141414" stroke-width="16" stroke-linecap="round" stroke-linejoin="round"/>
<path d="M288.884 253.228C232.303 244.656 167.651 248.55 118.024 256.127" stroke="#141414" stroke-width="16" stroke-linecap="round" stroke-linejoin="round"/>
<path d="M198.098 253.076C267.498 224.415 214.971 338.024 183.108 285.16C175.8 273.038 183.479 259.098 190.603 249.348" stroke="#141414" stroke-width="16" stroke-linecap="round" stroke-linejoin="round"/>
<path d="M187.81 110.537C191.615 92.1554 220.977 99.7333 212.977 118.589" stroke="#141414" stroke-width="16" stroke-linecap="round" stroke-linejoin="round"/>
<path opacity="0.503906" d="M100.27 168.502C93.6025 185.65 92.5039 203.902 92.5039 221.742" stroke="#141414" stroke-width="16" stroke-linecap="round" stroke-linejoin="round"/>
<path opacity="0.503906" d="M306.546 162.956C313.838 179.457 311.735 194.295 304.417 209.541" stroke="#141414" stroke-width="16" stroke-linecap="round" stroke-linejoin="round"/>
<path opacity="0.503906" d="M338.788 155.192C346.682 180.121 343.406 204.801 334.372 228.398" stroke="#141414" stroke-width="16" stroke-linecap="round" stroke-linejoin="round"/>
<path opacity="0.503906" d="M61.5607 223.961C55.1248 205.566 54.9039 184.185 64.7664 167.393" stroke="#141414" stroke-width="16" stroke-linecap="round" stroke-linejoin="round"/>
</svg>
