<svg width="400" height="400" viewBox="0 0 400 400" fill="none" xmlns="http://www.w3.org/2000/svg">
<path d="M142.288 51.5225C153.105 38.1044 169.676 34.4707 185.695 41.5255C213.351 53.7043 231.349 79.5061 231.349 111.508C223.968 236.994 27.8789 162.916 129.563 46.14" stroke="#141414" stroke-width="16" stroke-linecap="round" stroke-linejoin="round"/>
<path d="M225.421 200.681C241.507 241.505 252.298 283.26 255.924 325.597" stroke="#141414" stroke-width="16" stroke-linecap="round" stroke-linejoin="round"/>
<path d="M255.922 324.145C274.18 303.89 290.643 264.474 308.212 236.994" stroke="#141414" stroke-width="16" stroke-linecap="round" stroke-linejoin="round"/>
<path d="M312.201 189.062C313.467 206.593 311.189 223.376 309.665 238.447" stroke="#141414" stroke-width="16" stroke-linecap="round" stroke-linejoin="round"/>
<path d="M315.475 216.91C336.13 200.773 318.904 232.161 319.011 232.637" stroke="#141414" stroke-width="16" stroke-linecap="round" stroke-linejoin="round"/>
<path d="M318.866 226.722C341.95 220.231 323.733 238.927 312.569 245.709" stroke="#141414" stroke-width="16" stroke-linecap="round" stroke-linejoin="round"/>
<path d="M106.312 200.681C118.597 255.686 125.195 275.96 125.195 360.457" stroke="#141414" stroke-width="16" stroke-linecap="round" stroke-linejoin="round"/>
<path d="M225.313 200.681C226.876 226.075 210.897 284.993 210.896 361.91" stroke="#141414" stroke-width="16" stroke-linecap="round" stroke-linejoin="round"/>
<path d="M104.86 200.681C84.2415 218.111 63.4503 341.009 71.9523 357.552" stroke="#141414" stroke-width="16" stroke-linecap="round" stroke-linejoin="round"/>
<path d="M155.698 112.078C155.698 108.689 155.698 107.333 155.698 101.911" stroke="#141414" stroke-width="16" stroke-linecap="round" stroke-linejoin="round"/>
<path d="M186.201 112.078C186.201 108.69 186.201 105.299 186.201 101.911" stroke="#141414" stroke-width="16" stroke-linecap="round" stroke-linejoin="round"/>
<path d="M178.938 144.534C170.608 146.962 161.636 144.534 157.15 139.676" stroke="#141414" stroke-width="16" stroke-linecap="round" stroke-linejoin="round"/>
</svg>
