<svg width="400" height="400" viewBox="0 0 400 400" fill="none" xmlns="http://www.w3.org/2000/svg">
<path d="M236.581 144.291V72C256.782 100.477 269.866 118.995 275.834 127.554C281.802 136.113 296.857 155.358 321 185.289C314.009 201.717 305.227 216.389 294.652 229.305C278.79 248.679 242.792 308.154 236.581 310.641C230.369 313.128 234.617 243.028 234.617 243.028C234.617 243.028 218.056 241.169 192.765 241.169C183.181 241.169 171.166 243.028 160.045 243.028C124.703 243.028 115.515 307.957 115.515 320.524C115.515 333.091 114.395 326.014 107.96 326.014C101.525 326.014 73.3052 256.159 80.0275 215.057C86.7497 173.955 118.098 144.291 180.59 144.291C243.081 144.291 201.843 144.291 216.999 144.291" stroke="#141414" stroke-width="16" stroke-linecap="round" stroke-linejoin="round"/>
</svg>
