<svg width="400" height="400" viewBox="0 0 400 400" fill="none" xmlns="http://www.w3.org/2000/svg">
<path d="M139.621 67.9186C151.464 60.1589 165.029 62.288 176.799 69.3851C189.178 76.8479 189.91 94.3626 188.461 107.471C179.152 191.655 46.6884 115.009 130.875 64.2578" stroke="#141414" stroke-width="16" stroke-linecap="round" stroke-linejoin="round"/>
<path d="M111.958 166.006C111.963 194.983 71.5414 258.666 81.6112 269.022C89.8443 277.489 187.744 260.363 185.342 266.54C169.973 306.054 112.894 311.455 100.105 354.195" stroke="#141414" stroke-width="16" stroke-linecap="round" stroke-linejoin="round"/>
<path d="M113.874 169.77C135.476 209.227 166.567 229.99 207.028 218.699" stroke="#141414" stroke-width="16" stroke-linecap="round" stroke-linejoin="round"/>
<path d="M245.205 158.344C245.927 145.562 250.889 136.218 262.587 131.09C274.501 125.869 291.006 131.155 300.23 138.731C362.933 190.242 228.267 235.371 245.693 159.336" stroke="#141414" stroke-width="16" stroke-linecap="round" stroke-linejoin="round"/>
<path d="M284.216 218.96C291.898 251.906 284.735 316.276 271.232 354.708" stroke="#141414" stroke-width="16" stroke-linecap="round" stroke-linejoin="round"/>
<path d="M280.652 219.248C255.459 227.968 228.618 227.229 207.969 211.171" stroke="#141414" stroke-width="16" stroke-linecap="round" stroke-linejoin="round"/>
<path d="M287.008 269.51C287.008 307.25 300.876 311.069 319 350.431" stroke="#141414" stroke-width="16" stroke-linecap="round" stroke-linejoin="round"/>
</svg>
