<svg width="400" height="400" viewBox="0 0 400 400" fill="none" xmlns="http://www.w3.org/2000/svg">
<path d="M307.188 126.919C272.177 124.735 229.214 127.946 194.286 126.199C180.524 125.511 49.8373 126.294 44.1957 133.584C36.9871 142.899 37.8743 267.671 43.2206 273.145C65.1898 273.145 282.175 266.237 323.078 266.237C331.756 259.96 322.03 229.188 328.561 222.657C334.086 217.133 349.316 222.621 356.501 213.09C362.858 204.656 360.863 184 356.103 177.654C346.197 164.446 331.274 175.349 327.362 167.525C323.89 160.582 325.727 145.79 325.727 137.219" stroke="#141414" stroke-width="16" stroke-linecap="round" stroke-linejoin="round"/>
<path d="M74.1922 155.163C236.794 149.003 223.022 149.036 220.272 152.94C192.478 192.396 151.993 246.827 143.585 246.774C75.5759 246.343 66.5827 248.544 66.1622 247.41C61.2719 234.21 65.5453 187.836 65.5453 170.724" stroke="#141414" stroke-width="16" stroke-linecap="round" stroke-linejoin="round"/>
<path d="M176.299 161.639C158.808 192.053 133.41 217.487 113.332 245.596" stroke="#141414" stroke-width="16" stroke-linecap="round" stroke-linejoin="round"/>
<path d="M137.743 163.492C122.714 183.246 100.308 209.162 83.418 233.292" stroke="#141414" stroke-width="16" stroke-linecap="round" stroke-linejoin="round"/>
<path d="M103.989 162.257C94.1847 172.748 84.0413 182.861 74.9746 193.741" stroke="#141414" stroke-width="16" stroke-linecap="round" stroke-linejoin="round"/>
</svg>
