<svg width="400" height="400" viewBox="0 0 400 400" fill="none" xmlns="http://www.w3.org/2000/svg">
<path d="M255.962 187.861C246.687 202.237 228.535 263.956 206.087 307.993" stroke="#141414" stroke-width="16" stroke-linecap="round" stroke-linejoin="round"/>
<path d="M206.074 307.993C180.325 288.847 147.975 256.496 124.621 225.659" stroke="#141414" stroke-width="16" stroke-linecap="round" stroke-linejoin="round"/>
<path d="M124.635 225.659C116.297 270.36 116.081 300.591 111.197 365.922" stroke="#141414" stroke-width="16" stroke-linecap="round" stroke-linejoin="round"/>
<path d="M255.324 188.419C271.914 189.623 276.618 190.543 291.359 188.972" stroke="#141414" stroke-width="16" stroke-linecap="round" stroke-linejoin="round"/>
<path d="M226.4 57.4394C169.856 20.2002 129.185 35.9782 113.298 46.3675C33.934 98.2782 73.6531 208.53 171.064 209.974C256.271 211.236 260.305 111.034 215.925 76.2003" stroke="#141414" stroke-width="16" stroke-linecap="round" stroke-linejoin="round"/>
<path d="M208.372 161.648C221.462 153.915 240.472 151.466 230.9 160.162" stroke="#141414" stroke-width="16" stroke-linecap="round" stroke-linejoin="round"/>
<path d="M230.905 160.162C244.697 171.039 219.76 172.523 208.501 166.457" stroke="#141414" stroke-width="16" stroke-linecap="round" stroke-linejoin="round"/>
<path d="M228.524 109.222C224.979 120.135 218.077 121.07 207.463 113.463" stroke="#141414" stroke-width="16" stroke-linecap="round" stroke-linejoin="round"/>
<path d="M194.683 115.408C194.145 126.557 182.207 131.742 171.946 126.557" stroke="#141414" stroke-width="16" stroke-linecap="round" stroke-linejoin="round"/>
<path d="M325.022 177.327C326.472 169.151 335.419 147.294 323.439 142.502C314.703 139.008 316.987 160.585 313.942 157.54C311.062 154.66 314.293 147.374 309.193 143.294C307.391 141.852 303.608 140.934 301.278 141.711C286.143 146.756 320.703 173.008 325.022 177.327Z" stroke="#EB5757" stroke-width="16" stroke-linecap="round" stroke-linejoin="round"/>
</svg>
