<svg width="400" height="400" viewBox="0 0 400 400" fill="none" xmlns="http://www.w3.org/2000/svg">
<path fill-rule="evenodd" clip-rule="evenodd" d="M94.9514 290.839C96.0697 273.201 104.458 259.309 100.063 240.961C85.3993 250.124 60.1673 257.01 42.6555 257.01C53.5901 239.969 60.2459 224.987 75.0268 203.03C75.0268 197.998 30.5462 187.507 26 181.527C31.0216 176.139 82.5915 167.509 82.5915 162.881C82.5915 158.252 59.766 119.817 65.1537 119.194C83.2953 117.096 100.672 122.564 119.674 123.611C119.674 123.611 130.67 86.7363 136.789 86.7363C140.868 86.7363 155.917 100.564 174.788 115.868C178.448 94.4625 189.055 77.9351 192.901 77.031C198.67 75.6749 211.653 119.194 218.191 119.194C224.729 119.194 242.552 80.4286 247.822 80.4286C253.092 80.4286 260.227 133.984 264.798 133.984C267.846 133.984 287.602 114.413 304.242 99.3515C309.9 135.511 301.833 155.682 304.242 155.682C307.855 155.682 347.874 129.863 347.874 137.196C347.874 144.529 329.599 181.527 329.599 181.527C329.599 181.527 365.484 182.517 374.021 186.604C382.558 190.69 332.446 217.778 332.446 217.778C332.446 217.778 368.286 253.603 365.464 257.01C363.582 259.281 343.903 251.75 313.962 247.85C313.663 276.509 327.668 295.826 324.578 295.826C319.942 295.826 294.561 269.243 292.141 268.694C289.722 268.145 280.227 307.506 277.036 309.412C273.845 311.318 251.402 294.717 247.822 290.839C244.242 286.961 218.191 324 218.191 324C218.191 324 209.761 305.969 192.901 281.856L162.462 317.692C154.443 311.082 145.853 287.133 140.363 277.476C135.196 277.283 129.753 278.134 124.037 280.029C118.32 281.925 105.217 285.528 94.9514 290.839Z" stroke="#141414" stroke-width="16" stroke-linecap="round" stroke-linejoin="round"/>
</svg>
