<svg width="400" height="400" viewBox="0 0 400 400" fill="none" xmlns="http://www.w3.org/2000/svg">
<path d="M201.237 132C207.801 139.491 228.019 151.798 237.169 151.798C243.015 151.798 248.754 149.923 248.695 150.205C239.596 193.375 266.911 207.017 267 207.55C267.022 207.683 259.392 211.383 258.864 211.874C253.635 216.734 249.25 222.684 246.209 229.168C240.219 241.94 237.426 255.253 236.039 269.219C235.985 269.769 235.948 273.789 234.909 273.998C234.186 274.144 229.265 267.745 228.582 267.171C219.03 259.156 203.296 254.971 191.067 254.655C178.38 254.328 165.61 257.064 153.553 260.799C151.915 261.307 146.192 266.468 146.321 265.35C150.953 225.078 98.5827 215.46 106.896 214.487C151.674 209.246 135.901 153.324 138.479 154.09C171.322 163.844 184.286 142.014 194.231 132" stroke="#808080" stroke-width="16" stroke-linecap="round" stroke-linejoin="round"/>
<path d="M225.244 115.683C239.929 105.974 265.769 106.921 273.224 122.575C283.662 144.495 271.901 154.618 271.901 155.308C271.901 156.526 283.999 165.27 286.899 168.24C295.843 177.397 299.967 191.207 298.809 203.397C297.208 220.27 275.084 225.506 274.547 228.452C271.225 246.714 283.69 271.428 265.725 285.028C245.954 299.994 217.026 303.971 204.849 291.089C202.97 289.101 200.136 295.315 197.792 296.747C186.468 303.662 170.501 302.961 158.09 299.172C144.16 294.918 132.323 284.339 125.006 272.904C124.469 272.065 116.918 255.473 116.624 255.528C93.1066 259.836 77.0624 231.759 80.4516 212.288C86.5063 177.503 103.39 175.022 103.39 173.493C103.39 155.634 103.43 132.23 121.477 120.958C139.21 109.883 150.389 120.311 154.561 116.513C183.284 90.3707 207.073 103.751 207.073 110.223" stroke="#141414" stroke-width="16" stroke-linecap="round" stroke-linejoin="round"/>
<path d="M234 91C244.977 64.6875 244.824 51.2387 253 31" stroke="#141414" stroke-width="16" stroke-linecap="round" stroke-linejoin="round"/>
<path d="M217 86C220.063 68.3945 223 39.2843 223 26" stroke="#141414" stroke-width="16" stroke-linecap="round" stroke-linejoin="round"/>
<path d="M94 120C84.887 102.888 72.7088 90.575 57 80" stroke="#141414" stroke-width="16" stroke-linecap="round" stroke-linejoin="round"/>
<path d="M83 144C81.9871 143.448 38.4209 118.168 38 120.106" stroke="#141414" stroke-width="16" stroke-linecap="round" stroke-linejoin="round"/>
<path d="M97 285C81.1757 299.427 68.0095 311.254 57 325" stroke="#141414" stroke-width="16" stroke-linecap="round" stroke-linejoin="round"/>
<path d="M118 292C105.386 314.729 90.953 344.367 81 358" stroke="#141414" stroke-width="16" stroke-linecap="round" stroke-linejoin="round"/>
<path d="M220.397 319C220.268 325.643 219.938 332.284 220.01 338.928C220.011 339.015 224.096 383.128 222.715 372.285" stroke="#141414" stroke-width="16" stroke-linecap="round" stroke-linejoin="round"/>
<path d="M242 315C244.266 323.793 267.723 366.171 266.983 370" stroke="#141414" stroke-width="16" stroke-linecap="round" stroke-linejoin="round"/>
<path d="M361 176C358.432 178.655 326.486 186.458 316 190" stroke="#141414" stroke-width="16" stroke-linecap="round" stroke-linejoin="round"/>
<path d="M362 224C346.079 221.14 329.069 213.061 319 210" stroke="#141414" stroke-width="16" stroke-linecap="round" stroke-linejoin="round"/>
</svg>
