<svg width="400" height="400" viewBox="0 0 400 400" fill="none" xmlns="http://www.w3.org/2000/svg">
<path d="M175.743 63C178.022 81.4449 193.991 101.355 205.957 101.355C217.924 101.355 234.067 92.1328 254.385 73.6879C251.232 108.802 257.253 126.359 272.447 126.359C287.641 126.359 306.63 121.151 329.414 110.736C309.273 137.697 302.333 155.033 308.592 162.744C314.852 170.455 334.321 178.554 367 187.043C340.994 193.278 327.305 202.799 325.935 215.605C323.88 234.815 337.487 274.555 341.273 280.767C345.058 286.978 304.866 254.84 283.282 268.581C254.385 286.978 255.253 331.144 251.287 326.432C247.322 321.72 251.283 294.292 217.937 290.439C195.705 287.871 174.609 303.391 154.648 337C156.918 307.634 151.272 288.89 137.71 280.767C98.5612 266.071 76.473 300.564 76.473 286.586C76.473 280.767 89.88 249.199 89.88 232.402C89.88 221.204 66.1994 220.499 34 201.457C54.8732 195.142 75.6967 179.182 83.5805 162.744C95.4062 138.087 86.2307 129.613 77.3911 112.379C68.5515 95.1442 117.284 143.659 144.278 133.372C171.273 123.084 166.035 75.7106 166.035 63" stroke="#141414" stroke-width="16" stroke-linecap="round" stroke-linejoin="round"/>
</svg>
