<svg width="400" height="400" viewBox="0 0 400 400" fill="none" xmlns="http://www.w3.org/2000/svg">
<path d="M180.001 37.9137C188.969 17.5024 290.766 22.793 292.972 109.973C295.179 197.153 162.781 249.322 133.122 144.405C129.852 132.838 127.679 109.19 131.812 98.0556C136.758 84.7238 142.511 69.1872 151.466 58.325" stroke="#141414" stroke-width="16" stroke-linecap="round" stroke-linejoin="round"/>
<path d="M123.5 124C122.557 136.54 124.23 133.44 127.666 132.281" stroke="#141414" stroke-width="16" stroke-linecap="round" stroke-linejoin="round"/>
<path d="M293 127.576C305.615 128.227 300.045 139.168 293 144.485" stroke="#141414" stroke-width="16" stroke-linecap="round" stroke-linejoin="round"/>
<path d="M191.546 123.424C191.546 121.32 191.546 118.991 191.546 115.424" stroke="#141414" stroke-width="16" stroke-linecap="round" stroke-linejoin="round"/>
<path d="M234.758 123.818C234.758 120.86 234.758 119.261 234.758 116.303" stroke="#141414" stroke-width="16" stroke-linecap="round" stroke-linejoin="round"/>
<path d="M185.945 360.546C185.043 355.146 201.512 230.909 202.712 230.909C203.304 230.909 201.233 260.768 201.233 263.318C201.233 294.358 198.121 329.381 198.121 360.546" stroke="#141414" stroke-width="16" stroke-linecap="round" stroke-linejoin="round"/>
<path d="M125.339 360.546C132.401 270.339 139.135 230.909 132.401 230.909C130.902 230.909 74.2142 353.584 61.2301 353.584C58.2546 351.264 51.492 353.584 45 353.584" stroke="#141414" stroke-width="16" stroke-linecap="round" stroke-linejoin="round"/>
<path d="M267.97 367.206C269.28 356.495 260.828 240.464 265.091 240.464C282.804 240.464 335.052 351.952 339.97 370.906C343.727 370.906 349.364 370.906 355 372.785" stroke="#141414" stroke-width="16" stroke-linecap="round" stroke-linejoin="round"/>
<path d="M217.849 167.03C214.35 168.013 206.07 169.682 200.939 168.504" stroke="#141414" stroke-width="16" stroke-linecap="round"/>
<path d="M178.516 111.788C191.921 104.493 230.357 104.3 246.152 111.092" stroke="#141414" stroke-width="16" stroke-linecap="round" stroke-linejoin="round"/>
</svg>
