<svg width="400" height="400" viewBox="0 0 400 400" fill="none" xmlns="http://www.w3.org/2000/svg">
<path d="M69.7342 193.406C62.4304 174.217 64.9745 158.596 77.3666 146.545C103.099 121.52 114 122 146.545 135.127C147.99 135.127 171.68 102 199.783 102C217.851 102 223.03 106.135 229.115 113.016C235.2 119.897 243.189 133.018 243.189 136.731C243.189 140.444 274.012 128.532 298.832 130.49C337.503 133.542 392.346 170.505 339.793 204.917C350.551 207.358 356.672 213.365 358.155 222.938C360.381 237.297 357.184 263.192 331.997 280.462C306.809 297.731 294.841 300.2 269.015 297.731C243.189 295.261 214.556 274.496 212.091 271.31C209.625 268.124 215.309 276.772 189.446 287.251C163.584 297.731 136.528 297.731 108.263 280.462C103.196 277.366 101.377 271.486 102.805 262.821C90.5901 267.786 78.4655 267.786 66.4309 262.821C48.3792 255.373 32.8758 244.641 41.4096 229.569C47.0989 219.52 52.8885 213.514 58.7785 211.551" stroke="#141414" stroke-width="16" stroke-linecap="round" stroke-linejoin="round"/>
</svg>
