<svg width="400" height="400" viewBox="0 0 400 400" fill="none" xmlns="http://www.w3.org/2000/svg">
<path d="M173.992 57.0285C200.726 19.3405 249.485 80.0241 215.222 104.863C188.597 124.167 157.339 94.0792 169.839 67.9001" stroke="#141414" stroke-width="16" stroke-linecap="round" stroke-linejoin="round"/>
<path d="M171 132C174.266 173.123 180.467 191.744 184.971 221.019C184.992 221.348 185.001 221.674 185 222" stroke="#141414" stroke-width="16" stroke-linecap="round" stroke-linejoin="round"/>
<path d="M185 223C184.602 224.967 178.714 267.975 177.604 276.262C175.026 295.571 171.186 314.004 167.655 333.018C167.196 335.488 166.749 337.957 166.321 340.439C165.678 344.16 165.085 347.91 164.395 351.613C164.19 351.672 163.984 351.729 163.778 351.796C163.334 351.941 162.893 352.087 162.449 352.233C161.759 352.46 157.371 352.276 157 353" stroke="#141414" stroke-width="16" stroke-linecap="round" stroke-linejoin="round"/>
<path d="M226 135C224.714 164.058 222.242 198.581 217.144 225C217.097 224.951 217.048 224.905 217 224.858" stroke="#141414" stroke-width="16" stroke-linecap="round" stroke-linejoin="round"/>
<path d="M217 226C217.18 229.335 219.771 249.486 220.43 253.833C221.919 263.668 223.4 273.504 224.868 283.347C227.591 301.567 229.082 337.002 237.391 352.798C239.036 355.717 243 354.97 243.309 354.754C243.539 354.605 243.771 354.453 244 354.304" stroke="#141414" stroke-width="16" stroke-linecap="round" stroke-linejoin="round"/>
<path d="M170.719 132C156.682 140.761 141.165 170.614 142.035 179C142.339 181.913 180.709 210.6 182.041 211.62C182.692 212.119 183.344 212.622 184 213.114C183.961 213.222 183.922 213.333 183.885 213.443C183.191 215.486 182.772 217.783 182.664 220.054C182.564 222.156 182.827 224.2 183.619 226" stroke="#141414" stroke-width="16" stroke-linecap="round" stroke-linejoin="round"/>
<path d="M226.136 135C226.905 136.656 252.847 166.345 254.627 170.036C255.033 170.874 255.415 171.725 255.782 172.589C256.021 173.156 256.234 173.768 256.434 174.355C256.505 174.558 256.58 174.76 256.642 174.966C256.819 175.538 257.042 176.34 256.993 176.939C256.956 177.427 256.905 177.913 256.84 178.396C256.684 178.862 256.515 179.32 256.333 179.774C256.018 180.322 255.707 180.899 255.303 181.366C254.466 182.328 253.473 183.151 252.483 183.876C251.321 184.724 250.14 185.539 248.983 186.395C247.449 187.536 227.319 205.614 226.136 206.419C224.965 207.217 223.71 207.809 222.449 208.38C222.76 208.879 223.03 209.412 223.248 209.974C223.526 210.687 223.773 211.39 223.952 212.143C224.049 212.782 224.109 213.424 224.132 214.069C224.067 214.945 223.966 215.789 223.771 216.638C223.217 219.047 221.031 220.503 219 219.839" stroke="#141414" stroke-width="16" stroke-linecap="round" stroke-linejoin="round"/>
</svg>
