<svg width="400" height="400" viewBox="0 0 400 400" fill="none" xmlns="http://www.w3.org/2000/svg">
<path d="M177.232 134.411C180.283 160.14 177.232 221.115 171.615 230.076C164.426 241.545 90.0087 349.635 96.3873 355.953C99.7975 359.331 300.722 360.733 300.722 353.936C300.722 321.064 221.999 234.183 218.375 227.236C213.961 218.775 215.067 154.092 218.375 134.411" stroke="#141414" stroke-width="16" stroke-linecap="round" stroke-linejoin="round"/>
<path opacity="0.503384" d="M132.456 292.86C176.692 282.49 221.854 289.675 267.068 289.675" stroke="#141414" stroke-width="12" stroke-linecap="round" stroke-linejoin="round"/>
<path opacity="0.503384" d="M235.919 311.089C242.591 315.223 239.836 324.986 232.565 324.986C219.939 324.986 222.423 314.002 227.811 311.089" stroke="#141414" stroke-width="12" stroke-linecap="round" stroke-linejoin="round"/>
<path opacity="0.503384" d="M155.831 313.585C164.069 324.563 141.778 333.265 152.047 312.49" stroke="#141414" stroke-width="12" stroke-linecap="round" stroke-linejoin="round"/>
<path opacity="0.503384" d="M212.007 250.794C223.6 265.24 191.652 268.028 204.014 250.794" stroke="#141414" stroke-width="12" stroke-linecap="round" stroke-linejoin="round"/>
<path opacity="0.503384" d="M260.051 81.1274L257.264 75.5186" stroke="#141414" stroke-width="12" stroke-linecap="round" stroke-linejoin="round"/>
<path opacity="0.503384" d="M227.853 80.8713C243.421 97.7043 201.514 96.7 219.991 75.5186" stroke="#141414" stroke-width="12" stroke-linecap="round" stroke-linejoin="round"/>
<path opacity="0.503384" d="M211.683 44.1339V41" stroke="#141414" stroke-width="12" stroke-linecap="round" stroke-linejoin="round"/>
</svg>
