<svg width="400" height="400" viewBox="0 0 400 400" fill="none" xmlns="http://www.w3.org/2000/svg">
<path d="M69.5275 238.001C-9.47449 214.379 109.671 181.471 145.868 181.471" stroke="#141414" stroke-width="16" stroke-linecap="round" stroke-linejoin="round"/>
<path d="M148.557 196.945C209.808 185.466 295.226 167.576 353.278 198.843C355.345 199.96 366.64 232.606 326.512 232.606" stroke="#141414" stroke-width="16" stroke-linecap="round" stroke-linejoin="round"/>
<path d="M132.369 239.351C176.121 243.588 221.926 247.583 265.924 242.016" stroke="#141414" stroke-width="16" stroke-linecap="round" stroke-linejoin="round"/>
<path d="M278.649 226.177C296.83 172.527 348.636 256.888 294.608 256.888C281.742 256.888 278.93 248.28 275.367 237.517" stroke="#141414" stroke-width="16" stroke-linecap="round" stroke-linejoin="round"/>
<path d="M81.5711 234.895C93.1213 194.364 155.508 218.441 111.389 253.413C107.888 256.19 94.8823 260.122 90.8889 257.214C83.0317 251.497 81.105 241.245 81.105 232.044" stroke="#141414" stroke-width="16" stroke-linecap="round" stroke-linejoin="round"/>
<path d="M170.718 147.096C190.269 132.502 199.82 146.9 196.54 161.104C193.031 176.304 175.619 191.364 165.033 173.047C160.816 165.762 161.721 156.054 164.157 148.827" stroke="#141414" stroke-width="16" stroke-linecap="round" stroke-linejoin="round"/>
<path d="M207.915 157.059C214.26 164.764 221.607 170.144 228.151 177.295" stroke="#141414" stroke-width="16" stroke-linecap="round" stroke-linejoin="round"/>
<path opacity="0.503384" d="M164.746 209.672C227.059 206.384 290.355 202.927 353.611 202.927" stroke="#141414" stroke-width="16" stroke-linecap="round" stroke-linejoin="round"/>
</svg>
