<svg width="400" height="400" viewBox="0 0 400 400" fill="none" xmlns="http://www.w3.org/2000/svg">
<path d="M129 161.119C155.314 121.892 182.378 103.603 210.192 106.251C251.914 110.223 293.551 164.981 284.833 198" stroke="#141414" stroke-width="16" stroke-linecap="round" stroke-linejoin="round"/>
<path d="M113.733 197C104.983 227.573 129.294 295 188.416 295C247.539 295 276 252.914 276 246" stroke="#141414" stroke-width="16" stroke-linecap="round" stroke-linejoin="round"/>
<path d="M77 240C84.4492 233.507 112.545 199.646 112.545 197.201C112.545 194.757 162 215.275 162 220.426" stroke="#141414" stroke-width="16" stroke-linecap="round" stroke-linejoin="round"/>
<path d="M236 174.53C246.173 180.317 275.781 193.382 280.765 200.212C285.749 207.041 319.122 167.258 319.122 167.258C319.122 167.258 323 165.238 323 161" stroke="#141414" stroke-width="16" stroke-linecap="round" stroke-linejoin="round"/>
</svg>
