<svg width="400" height="400" viewBox="0 0 400 400" fill="none" xmlns="http://www.w3.org/2000/svg">
<path d="M249.664 249.389C286.488 208.937 359.322 253.23 327.164 304.783C291.159 362.507 232.271 329.705 243.466 268.029" stroke="#141414" stroke-width="16" stroke-linecap="round" stroke-linejoin="round"/>
<path d="M65.0243 266.147C65.0243 262.054 74.5339 243.842 93.7567 235.43C130.903 219.174 175.048 256.432 157.514 297.979C132.03 358.365 68.5383 339.106 64 279.191" stroke="#141414" stroke-width="16" stroke-linecap="round" stroke-linejoin="round"/>
<path d="M235.31 206.358C218.827 210.543 183.008 197.485 169.021 207.9C155.658 217.856 146.537 245.714 135.881 259.316C134.104 261.584 112.011 282.824 112.576 284.509C113.003 285.783 162.571 283.484 165.399 283.484C168.168 283.484 189.211 285.547 191.81 282.967C204.473 270.395 264.32 168.847 279.846 196.589" stroke="#141414" stroke-width="16" stroke-linecap="round" stroke-linejoin="round"/>
<path d="M242.073 217.441C255.624 240.398 263.912 271.522 283.893 288.941" stroke="#141414" stroke-width="16" stroke-linecap="round" stroke-linejoin="round"/>
<path d="M192.825 276.61C200.684 304.809 138.164 288.808 137.044 285.234C135.202 279.357 146.845 278.371 152.26 276.073C161.688 272.064 180.856 275.073 186.232 277.152" stroke="#141414" stroke-width="16" stroke-linecap="round" stroke-linejoin="round"/>
<path d="M142.244 174.272C171.066 203.819 176.281 236.034 168.933 271.403" stroke="#141414" stroke-width="16" stroke-linecap="round" stroke-linejoin="round"/>
<path d="M142.244 174.272C157.363 159.074 177.134 140.251 190.81 132.452" stroke="#141414" stroke-width="16" stroke-linecap="round" stroke-linejoin="round"/>
<path d="M195.247 137.848C198.618 151.996 195.963 166.977 198.517 181.017" stroke="#141414" stroke-width="16" stroke-linecap="round" stroke-linejoin="round"/>
<path d="M200.253 182.547C219.386 180.482 234.183 196.703 251.516 199.904" stroke="#141414" stroke-width="16" stroke-linecap="round" stroke-linejoin="round"/>
<path d="M206.655 97.6401C208.659 90.0784 214.017 83.3186 219.778 78.1007C225.626 72.807 239.029 72.6287 246.526 73.4754C294.218 78.876 219.975 185.632 205.649 105.349" stroke="#141414" stroke-width="16" stroke-linecap="round" stroke-linejoin="round"/>
<path d="M248.733 98.726C241.303 95.7086 232.93 95.2794 224.907 94.2216C126.965 81.3284 239.561 39.3191 259.611 87.723" stroke="#141414" stroke-width="16" stroke-linecap="round" stroke-linejoin="round"/>
</svg>
