<svg width="400" height="400" viewBox="0 0 400 400" fill="none" xmlns="http://www.w3.org/2000/svg">
<path d="M128.954 65.8066C149.021 51.4299 172.774 44.8798 200.211 46.1561C241.366 48.0706 278 59.3329 278 72.74C278 86.147 232.788 106 203.477 106C174.165 106 129.543 90.3497 125 78.0781" stroke="#141414" stroke-width="16" stroke-linecap="round" stroke-linejoin="round"/>
<path d="M277.822 76C278.559 133.24 278.95 176.097 278.995 204.569C279.04 233.041 278.779 273.011 278.213 324.479C261.656 344.16 239.128 354 210.627 354C182.126 354 153.758 347.368 125.522 334.104C125.522 231.075 125.522 176.417 125.522 170.13C125.522 163.842 124.015 137.442 121 90.9291" stroke="#141414" stroke-width="16" stroke-linecap="round" stroke-linejoin="round"/>
</svg>
