<svg width="400" height="400" viewBox="0 0 400 400" fill="none" xmlns="http://www.w3.org/2000/svg">
<path d="M108.443 195.261C109.389 188.19 129.163 157.263 131.631 155.824C138.942 151.559 241.296 154.88 255.301 163.374C260.802 166.71 282.111 207.172 282.111 212.076C282.111 215.174 230.068 217.677 221.06 218.126C210.664 218.645 188.064 217.202 165.413 212.076C146.852 207.874 128.679 202.079 109.389 199.843C108.931 199.789 120.253 218.666 131.631 235.002C136.938 242.625 173.01 311.215 178.003 313.469C182.995 315.723 271.407 220.682 282.963 212.463" stroke="#141414" stroke-width="16" stroke-linecap="round" stroke-linejoin="round"/>
<path d="M220.27 219.771C208.261 245.315 186.688 294.075 182.994 308.692" stroke="#141414" stroke-width="12" stroke-linecap="round" stroke-linejoin="round"/>
<path d="M168.311 218.554C172.106 248.613 177.256 278.838 180.736 308.692" stroke="#141414" stroke-width="12" stroke-linecap="round" stroke-linejoin="round"/>
<path d="M176.217 151.559C169.16 171.543 171.251 194.109 168.311 214.899" stroke="#141414" stroke-width="12" stroke-linecap="round" stroke-linejoin="round"/>
<path d="M216.882 156.431C218.828 174.48 216.357 207.792 222.53 219.771" stroke="#141414" stroke-width="12" stroke-linecap="round" stroke-linejoin="round"/>
<path opacity="0.503384" d="M176.218 155.213C165.329 168.694 145.594 191.59 142.331 202.718" stroke="#141414" stroke-width="16" stroke-linecap="round" stroke-linejoin="round"/>
<path opacity="0.503384" d="M134.423 160.085C136.047 172.618 141.424 184.297 143.459 196.628" stroke="#141414" stroke-width="16" stroke-linecap="round" stroke-linejoin="round"/>
<path opacity="0.503384" d="M179.606 156.431C194.584 173.96 194.867 195.198 210.105 212.463" stroke="#141414" stroke-width="16" stroke-linecap="round" stroke-linejoin="round"/>
<path opacity="0.503384" d="M210.106 163.739C199.122 178.66 185.918 191.779 176.219 207.59" stroke="#141414" stroke-width="16" stroke-linecap="round" stroke-linejoin="round"/>
<path opacity="0.503384" d="M227.05 161.304C246.433 176.191 260.44 194.917 276.751 211.245" stroke="#141414" stroke-width="16" stroke-linecap="round" stroke-linejoin="round"/>
<path opacity="0.503384" d="M77.2089 151.558C69.1045 146.077 61.9508 140.819 61 140.596" stroke="#141414" stroke-width="16" stroke-linecap="round" stroke-linejoin="round"/>
<path opacity="0.503384" d="M128.774 105.271C125.479 98.7234 128.774 99.6093 123.432 90.4736" stroke="#141414" stroke-width="16" stroke-linecap="round" stroke-linejoin="round"/>
<path opacity="0.503384" d="M212.404 111.362C211.098 103.438 212.417 94.8484 212.887 87" stroke="#141414" stroke-width="16" stroke-linecap="round" stroke-linejoin="round"/>
<path opacity="0.503384" d="M276.749 129.633C282.962 124.761 284.738 122.517 289.174 119.889" stroke="#141414" stroke-width="16" stroke-linecap="round" stroke-linejoin="round"/>
<path opacity="0.503384" d="M327.58 201.5C333.228 199.978 335.123 200.293 338.876 198.455" stroke="#141414" stroke-width="16" stroke-linecap="round" stroke-linejoin="round"/>
<path opacity="0.503384" d="M298.213 292.856C301.111 295.821 303.546 299.314 306.12 302.601" stroke="#141414" stroke-width="16" stroke-linecap="round" stroke-linejoin="round"/>
<path opacity="0.503384" d="M66.6479 230.118C65.098 231.955 62.8739 232.569 61 233.787" stroke="#141414" stroke-width="16" stroke-linecap="round" stroke-linejoin="round"/>
<path opacity="0.503384" d="M251.898 219.771L195.984 294.565" stroke="#141414" stroke-width="16" stroke-linecap="round" stroke-linejoin="round"/>
</svg>
