<svg width="400" height="400" viewBox="0 0 400 400" fill="none" xmlns="http://www.w3.org/2000/svg">
<path d="M203.836 88.9692C199.525 105.629 196.431 121.624 188.553 136.889C180.185 153.101 140.387 197.883 140.633 198.865C171.624 234.094 188.553 280.75 202.609 328.823" stroke="#141414" stroke-width="16" stroke-linecap="round" stroke-linejoin="round"/>
<path d="M205.807 90.8862C209.441 130.389 229.456 165.903 259.478 189.92" stroke="#141414" stroke-width="16" stroke-linecap="round" stroke-linejoin="round"/>
<path d="M257.634 195.147C235.708 232.854 204.081 280.815 204.081 329.029" stroke="#141414" stroke-width="16" stroke-linecap="round" stroke-linejoin="round"/>
<path d="M205.807 53.5853C206.294 42.7327 207.527 31.8104 206.447 21" stroke="#808080" stroke-width="16" stroke-linecap="round" stroke-linejoin="round"/>
<path d="M200.839 350.937C200.767 354.018 203.039 388.999 202.319 376.742" stroke="#808080" stroke-width="16" stroke-linecap="round" stroke-linejoin="round"/>
<path d="M89.6733 201.638C97.6925 201.638 108.753 201.638 111.581 201.638" stroke="#808080" stroke-width="16" stroke-linecap="round" stroke-linejoin="round"/>
<path d="M288.227 188.004C295.743 187.783 303.091 188.643 310.589 188.643" stroke="#808080" stroke-width="16" stroke-linecap="round" stroke-linejoin="round"/>
</svg>
