<svg width="400" height="400" viewBox="0 0 400 400" fill="none" xmlns="http://www.w3.org/2000/svg">
<path d="M357 104.221C334.405 90.96 322.475 77.7795 310.533 78.0028C271.714 78.7285 262.209 148.095 251.288 162.911C248.505 166.69 188.676 163.283 176.28 169.019C140.338 185.642 129.721 231.016 109.239 261.326C97.4534 278.772 77.1649 297.363 59.0581 307.888C57.2838 308.919 42.9534 315.919 43.0001 316.062C52.0432 343.654 143.808 266.707 155.079 256.547C160.668 251.508 175.956 260.821 183.586 260.934C328.782 263.08 288.427 151.337 306.739 124.903C307.198 124.24 332.83 126.901 351.747 124.903" stroke="#141414" stroke-width="16" stroke-linecap="round" stroke-linejoin="round"/>
<path d="M235.444 157.407C225.044 147.18 216.428 129.209 200.271 126.943C190.375 125.555 196.592 158.402 191.58 157C178.94 153.454 157.106 131.877 143.157 138.72C131.203 144.591 152.448 170.763 149.779 177.306C148.34 180.842 110.912 169.546 105.909 175.682C94.5745 189.587 120.318 210.918 117.499 221.983C114.68 233.048 88.5273 222.788 88.5273 263.816" stroke="#141414" stroke-width="16" stroke-linecap="round" stroke-linejoin="round"/>
<path d="M216.567 211.408C246.662 239.422 246.077 300.147 198.166 310.459" stroke="#141414" stroke-width="16" stroke-linecap="round" stroke-linejoin="round"/>
<path d="M196.228 260.934C169.513 343.137 183.912 314.37 251.287 317.962" stroke="#141414" stroke-width="16" stroke-linecap="round" stroke-linejoin="round"/>
<path d="M324.936 175.947C312.615 175.844 304.845 183.144 296.129 190.358" stroke="#141414" stroke-width="16" stroke-linecap="round" stroke-linejoin="round"/>
<path d="M294.689 199.137C303.338 198.293 310.494 201.682 317.735 204.771" stroke="#141414" stroke-width="16" stroke-linecap="round" stroke-linejoin="round"/>
</svg>
