<svg width="400" height="400" viewBox="0 0 400 400" fill="none" xmlns="http://www.w3.org/2000/svg">
<path d="M233.5 126.232C246.239 162.29 250.6 107.687 253.044 111.352C253.907 112.648 253.338 160.026 261.418 155.987C273.455 149.972 274.429 100.156 278.169 107.632C281.965 115.222 267.386 174.524 283.75 171.797C297.42 169.52 298.929 104.841 306.083 104.841C312.288 104.841 298.181 180.989 307.944 193.184C329.52 220.135 333.265 128.012 334 120.651" stroke="#141414" stroke-width="16" stroke-linecap="round" stroke-linejoin="round"/>
<path d="M227.916 78.828C229.896 148.168 249.099 109.003 265.603 77" stroke="#141414" stroke-width="16" stroke-linecap="round" stroke-linejoin="round"/>
<path d="M79.959 181.828C108.526 295.019 109.076 168.875 112.623 168.875C120.638 168.875 101.803 218.257 118.225 241.039C132.575 260.957 144.571 213.143 145.288 209.585C147.146 200.376 148.835 191.637 151.823 182.753C157.549 165.722 143.113 248.135 160.222 254.918C177.944 261.946 196.898 157.342 193.824 172.577C190.447 189.308 180.578 263.915 202.222 272.498C215.016 277.57 226.224 177.205 229.289 177.205C231.966 177.205 229.289 225.365 229.289 229.012C229.289 257.462 227.733 294.292 237.687 320.608" stroke="#141414" stroke-width="16" stroke-linecap="round" stroke-linejoin="round"/>
<path d="M75.6098 209.539C58.6261 225.927 73.7203 296.934 70.8315 322" stroke="#141414" stroke-width="16" stroke-linecap="round" stroke-linejoin="round"/>
<path d="M67.5895 139.642C64.2851 157.551 66.1569 173.612 72.9791 189.756" stroke="#141414" stroke-width="16" stroke-linecap="round" stroke-linejoin="round"/>
</svg>
