<svg width="400" height="400" viewBox="0 0 400 400" fill="none" xmlns="http://www.w3.org/2000/svg">
<path d="M185.622 92.7351C190.911 97.7068 196.115 109.061 193.66 117.437C188.601 134.709 177.305 142.084 173.934 159.357C173.316 162.513 185.485 175.22 180.511 180.315C179.655 181.192 135.967 165.144 152.742 193.791C163.861 212.772 204.949 194.776 199.506 228.225C195.235 254.478 166.711 286.215 173.203 312.815" stroke="#141414" stroke-width="16" stroke-linecap="round" stroke-linejoin="round"/>
<path d="M102.294 150.375C96.9808 165.818 132.49 176.609 125.797 188.538C122.546 194.334 112.509 192.796 107.667 197.518C102.372 202.682 106.383 211.7 111.697 208.743" stroke="#141414" stroke-width="16" stroke-linecap="round" stroke-linejoin="round"/>
<path d="M117.524 223.735C116.039 262.071 145.138 268.771 150.219 312.815" stroke="#141414" stroke-width="16" stroke-linecap="round" stroke-linejoin="round"/>
<path d="M243.883 96.665C234.738 102.805 223.734 121.866 228.777 134.13C236.288 152.388 278.35 141.284 282.002 164.1C289 207.858 223.714 162.428 231.654 212.052C233.904 226.1 262.362 226.642 268.335 237.531C275.405 250.419 270.843 280.009 274.809 294.475" stroke="#141414" stroke-width="16" stroke-linecap="round" stroke-linejoin="round"/>
<path d="M92.5069 121.062C213.173 -48.1433 440.977 191.978 269.04 311.03C184.836 369.334 88.2636 321.325 72.3973 226.102C70.2118 213 66.3924 198.148 71.6523 185.874" stroke="#141414" stroke-width="16" stroke-linecap="round" stroke-linejoin="round"/>
</svg>
