<svg width="400" height="400" viewBox="0 0 400 400" fill="none" xmlns="http://www.w3.org/2000/svg">
<path d="M186.934 111.799C189.888 202.133 178.624 253.628 142 326.205" stroke="#141414" stroke-width="16" stroke-linecap="round" stroke-linejoin="round"/>
<path d="M204.036 111.799C204.377 189.728 214.023 271.787 262.807 336" stroke="#141414" stroke-width="16" stroke-linecap="round" stroke-linejoin="round"/>
<path d="M167.032 328.942C183.381 275.744 225.468 289.382 231.245 336" stroke="#141414" stroke-width="16" stroke-linecap="round" stroke-linejoin="round"/>
<path d="M168.121 246.986C188.446 247.166 208.74 245.422 229.068 245.422" stroke="#141414" stroke-width="16" stroke-linecap="round" stroke-linejoin="round"/>
<path d="M159.414 272.366C186.226 270.766 214.501 276.036 241.04 272.366" stroke="#141414" stroke-width="16" stroke-linecap="round" stroke-linejoin="round"/>
<path d="M209.478 108.856C201.675 107.381 184.843 111.434 182.269 111.799" stroke="#141414" stroke-width="16" stroke-linecap="round" stroke-linejoin="round"/>
<path d="M195.896 65C195.9 78.0837 196.94 91.0935 196.94 104.181" stroke="#141414" stroke-width="16" stroke-linecap="round" stroke-linejoin="round"/>
<path opacity="0.503384" d="M206.877 236.96C206.813 235.227 189.097 219.349 189.915 218.078C192.444 214.153 210.566 213.305 210.566 209.495C210.566 200.865 192.598 192.915 191.023 183.745C190.109 178.435 209.73 174.073 208.354 170.872C200.345 152.234 185.869 147.682 199.872 131.39" stroke="#141414" stroke-width="6" stroke-linecap="round" stroke-linejoin="round"/>
<path opacity="0.503384" d="M241.04 321.851C238.321 323.096 235.278 324.07 232.333 325.117" stroke="#141414" stroke-width="6" stroke-linecap="round" stroke-linejoin="round"/>
<path opacity="0.503384" d="M236.687 301.173C233.65 304.667 230.43 307.872 226.892 310.968" stroke="#141414" stroke-width="6" stroke-linecap="round" stroke-linejoin="round"/>
<path opacity="0.503384" d="M222.538 282.671C217.368 285.896 213.499 289.929 210.566 294.643" stroke="#141414" stroke-width="6" stroke-linecap="round" stroke-linejoin="round"/>
<path opacity="0.503384" d="M217.097 252.197C192.773 273.131 175.479 301.15 151.795 321.851" stroke="#141414" stroke-width="6" stroke-linecap="round" stroke-linejoin="round"/>
<path opacity="0.503384" d="M168.121 280.494C173.596 283.729 178.214 287.421 182.269 292.466" stroke="#141414" stroke-width="6" stroke-linecap="round" stroke-linejoin="round"/>
<path opacity="0.503384" d="M200.771 279.406C220.637 291.189 230.444 315.508 250.835 326.205" stroke="#141414" stroke-width="6" stroke-linecap="round" stroke-linejoin="round"/>
<path opacity="0.503384" d="M182.269 247.057L209.478 271.788" stroke="#141414" stroke-width="6" stroke-linecap="round" stroke-linejoin="round"/>
</svg>
