<svg width="400" height="400" viewBox="0 0 400 400" fill="none" xmlns="http://www.w3.org/2000/svg">
<path d="M193 73C195.23 158.662 207.696 246.593 196.193 332" stroke="#141414" stroke-width="16" stroke-linecap="round" stroke-linejoin="round"/>
<path d="M176 125C202.282 64.2184 182.464 41.0317 214 116.633" stroke="#141414" stroke-width="16" stroke-linecap="round" stroke-linejoin="round"/>
<path d="M161 223C178.831 214.605 189.12 203.083 197.018 187.616C201.626 178.59 210.824 210.006 238 216.92" stroke="#141414" stroke-width="16" stroke-linecap="round" stroke-linejoin="round"/>
<path d="M148 261.822C157.431 262.741 165.916 259.951 174.682 256.845C183.472 253.727 191.894 249.553 197.39 241.901C198.114 240.895 201.235 232.27 203.636 233.05C215.839 237.014 235.404 260.309 257 252.417" stroke="#141414" stroke-width="16" stroke-linecap="round" stroke-linejoin="round"/>
<path d="M138 296.973C162.382 304.824 180.236 288.028 199 278" stroke="#141414" stroke-width="16" stroke-linecap="round" stroke-linejoin="round"/>
<path d="M201 276C208.42 296.859 243.8 295.171 261 288.544" stroke="#141414" stroke-width="16" stroke-linecap="round" stroke-linejoin="round"/>
<path d="M169 173C180.163 166.056 188.297 153.857 194.456 142.957C204.584 125.025 195.063 161.099 229 166.56" stroke="#141414" stroke-width="16" stroke-linecap="round" stroke-linejoin="round"/>
</svg>
