<svg width="400" height="400" viewBox="0 0 400 400" fill="none" xmlns="http://www.w3.org/2000/svg">
<path d="M191.31 107.648C207.746 133.069 242.014 146.732 272.648 158.352" stroke="#141414" stroke-width="16" stroke-linecap="round" stroke-linejoin="round"/>
<path d="M179.69 73.845C263.141 52.7184 312.171 126.662 312.171 180.535C312.171 234.409 299.056 270.324 312.171 287.754" stroke="#141414" stroke-width="16" stroke-linecap="round" stroke-linejoin="round"/>
<path d="M159.619 85.4651C76.1693 108.705 114.197 246.028 99.4087 281.944" stroke="#141414" stroke-width="16" stroke-linecap="round" stroke-linejoin="round"/>
<path d="M191.31 107.648C178.634 127.718 159.809 143.028 137.437 158.352" stroke="#141414" stroke-width="16" stroke-linecap="round" stroke-linejoin="round"/>
<path d="M130.042 176.31C124.336 176.31 124.646 189.734 129.551 191.099" stroke="#141414" stroke-width="16" stroke-linecap="round" stroke-linejoin="round"/>
<path d="M287.42 177.366C293.507 182.706 290.077 189.125 284.268 189.125" stroke="#141414" stroke-width="16" stroke-linecap="round" stroke-linejoin="round"/>
<path d="M160.24 185.492C176.53 187.6 204.609 191.448 214.211 190.245C223.813 189.042 256.35 180.738 263.841 184.827C271.138 212.956 260.047 264.189 214.211 264.189C198.119 264.189 153.884 258.907 160.24 194.166" stroke="#808080" stroke-width="16" stroke-linecap="round" stroke-linejoin="round"/>
<path d="M227.029 176.755C227.029 174.141 227.029 171.529 227.029 168.916" stroke="#141414" stroke-width="16" stroke-linecap="round" stroke-linejoin="round"/>
<path d="M192.366 178.423C192.403 175.212 193.101 172.096 193.423 168.916" stroke="#141414" stroke-width="16" stroke-linecap="round" stroke-linejoin="round"/>
<path d="M73 356.025C83.055 331.743 117.353 281.27 168.681 281.27C190.554 281.932 195.74 324.107 215.18 324.107C234.62 324.107 235.351 279.941 254.215 281.27C307.749 285.043 339.197 339.514 342.366 360.394" stroke="#141414" stroke-width="16" stroke-linecap="round" stroke-linejoin="round"/>
</svg>
