<svg width="400" height="400" viewBox="0 0 400 400" fill="none" xmlns="http://www.w3.org/2000/svg">
<path d="M103.557 216.814C139.925 217.247 175.546 216.905 210.419 215.789C262.728 214.114 318.907 214.114 318.907 218.012C318.907 221.91 318.907 232.406 318.907 238.676C318.907 244.946 318.907 303.546 318.907 308.177C318.907 312.809 313.077 312.809 298.264 312.809C283.451 312.809 107.555 316.396 97.7534 312.809C87.9512 309.221 90.3107 251.677 90.3107 246.457C90.3107 241.237 90.3107 234.218 90.3107 230.282" stroke="#141414" stroke-width="16" stroke-linecap="round" stroke-linejoin="round"/>
<path d="M81 248.706C158.307 244.944 203.898 244.132 320 244.132" stroke="#141414" stroke-width="16" stroke-linecap="round" stroke-linejoin="round"/>
<path d="M90.0615 282.731C164.437 278.968 208.3 278.156 320 278.156" stroke="#141414" stroke-width="16" stroke-linecap="round" stroke-linejoin="round"/>
<path d="M127.446 228.318C127.408 249.795 128.54 294.014 128.54 314.403" stroke="#141414" stroke-width="16" stroke-linecap="round" stroke-linejoin="round"/>
<path d="M167.104 228.318C167.065 246.969 168.198 285.37 168.198 303.076" stroke="#141414" stroke-width="16" stroke-linecap="round" stroke-linejoin="round"/>
<path d="M200.013 228.318C199.858 249.23 204.389 292.286 204.389 312.138" stroke="#141414" stroke-width="16" stroke-linecap="round" stroke-linejoin="round"/>
<path d="M241.783 222.654C241.899 242.436 238.501 283.164 238.501 301.943" stroke="#141414" stroke-width="16" stroke-linecap="round" stroke-linejoin="round"/>
<path d="M277.037 222.654C276.882 246.393 281.413 295.266 281.413 317.801" stroke="#141414" stroke-width="16" stroke-linecap="round" stroke-linejoin="round"/>
<path d="M235.047 196.32C235.047 181.072 236.727 137.302 238.526 134.303C240.003 131.84 260.465 133.998 262.202 135.114C263.535 135.975 263.33 156.78 261.587 197.529" stroke="#141414" stroke-width="16" stroke-linecap="round" stroke-linejoin="round"/>
<path d="M281.488 196.32C281.488 181.072 283.034 137.302 284.688 134.303C286.048 131.84 304.873 133.998 306.47 135.114C307.697 135.975 307.508 156.78 305.905 197.529" stroke="#141414" stroke-width="16" stroke-linecap="round" stroke-linejoin="round"/>
<path opacity="0.49614" d="M293.948 116.18C291.848 106.469 287.541 96.3713 279.62 89.5336C254.905 68.2022 231.637 100.238 230.062 99.7396C218.416 96.0547 212.304 79.678 196.032 84.434C185.223 87.5901 173.999 107.109 164.385 107.109C140.376 107.109 144.743 52.9573 95.7251 108.81" stroke="#141414" stroke-width="16" stroke-linecap="round" stroke-linejoin="round"/>
<path opacity="0.49614" d="M208.995 167.233C193.42 206.537 164.339 153.369 148.822 157.152C142.954 158.585 95.831 220.376 84.3979 170.195" stroke="#141414" stroke-width="16" stroke-linecap="round" stroke-linejoin="round"/>
</svg>
