<svg width="400" height="400" viewBox="0 0 400 400" fill="none" xmlns="http://www.w3.org/2000/svg">
<path d="M84.9887 307.772C84.3145 277.473 85.1293 254.103 87.433 237.662C110.086 201.779 122.393 183.505 124.353 182.84C128.573 181.409 151.365 232.553 155.004 232.553C200.147 232.553 265.405 230.81 316.36 224.912" stroke="#141414" stroke-width="16" stroke-linecap="round" stroke-linejoin="round"/>
<path d="M81 242.259C89.9766 222.848 106.595 158.442 111.248 155.799C121.062 150.224 164.087 151.501 174.364 152.052C184.831 152.614 278.965 148.752 280.499 150.834C286.976 159.625 291.714 177.785 296.173 188.124C305.431 209.59 313.653 216.585 320 232.099" stroke="#141414" stroke-width="16" stroke-linecap="round" stroke-linejoin="round"/>
<path d="M129.527 190.89C169.193 148.172 151.34 126.387 176.167 166.033C188.554 185.818 201.967 209 213.754 228.609" stroke="#141414" stroke-width="16" stroke-linecap="round" stroke-linejoin="round"/>
<path d="M179.184 308.984C181.194 294.583 182.077 276.736 181.831 255.443C201.559 254.269 212.028 254.269 213.239 255.443C220.148 262.158 214.308 296.101 215.264 307.272" stroke="#141414" stroke-width="16" stroke-linecap="round" stroke-linejoin="round"/>
<path d="M136.687 290.519C127.024 290.519 110.315 292.809 106.211 291.694C103.895 291.065 106.211 286.466 106.211 283.85C106.211 276.796 103.075 260.154 108.306 254.439C111.302 251.172 140.17 249.103 141.716 252.478C144.328 258.185 141.356 273.413 141.356 279.932" stroke="#141414" stroke-width="16" stroke-linecap="round" stroke-linejoin="round"/>
<path d="M285.058 292.199C260.322 289.306 239.135 306.298 239.135 276.366C239.135 272.431 237.523 255.529 240.615 252.225C243.478 249.165 289.677 248.648 291.352 251.039C296.328 258.124 290.243 280.913 290.243 290.22" stroke="#141414" stroke-width="16" stroke-linecap="round" stroke-linejoin="round"/>
<path d="M311.406 232.553C310.941 253.583 310.948 301.44 311.914 308.985" stroke="#141414" stroke-width="16" stroke-linecap="round" stroke-linejoin="round"/>
<path d="M155.036 211.119C153.834 146.476 189.326 218.439 161.577 213.618" stroke="#141414" stroke-width="16" stroke-linecap="round" stroke-linejoin="round"/>
<path d="M273.317 144.213C274.108 141.384 273.677 138.074 272.023 134.284H256.026C253.846 137.584 252.961 141.605 253.371 146.347" stroke="#141414" stroke-width="16" stroke-linecap="round" stroke-linejoin="round"/>
<path opacity="0.344424" d="M280.755 118.513C239.016 110.669 274.311 97.946 277.922 90.781C285.289 76.1557 258.37 75.3349 290.883 53" stroke="#141414" stroke-width="16" stroke-linecap="round" stroke-linejoin="round"/>
</svg>
