<svg width="400" height="400" viewBox="0 0 400 400" fill="none" xmlns="http://www.w3.org/2000/svg">
<path d="M186.745 289C129.418 289 91.2369 229.56 95.295 203.239C98.4313 182.902 108.366 212.795 111.787 217.7C120.227 229.806 135.012 241.957 147.269 250.109C148.276 250.779 150.566 252.299 150.766 251.107C151.678 245.646 160.348 259.655 139.273 222.685C118.198 185.715 134.571 144.169 153.266 150.386C156.874 151.588 149.622 157.157 148.767 160.858C146.211 171.912 147.158 186.645 154.264 195.761C162.32 206.097 211.558 217.7 170.255 224.368C164.027 225.373 169.008 187.561 170.255 182.299C181.954 132.935 197.053 155.665 231.223 132.935C235.93 129.803 241.234 126.335 243.714 120.968C244.066 120.21 248.447 110 248.961 110C252.452 110 236.219 128.036 236.219 149.391C236.219 173.385 258.861 191.499 263.151 213.962C266.531 231.659 258.992 241.513 240.535 243.521C242.655 200.063 259.372 177.328 290.689 175.316C291.652 175.254 275.514 184.258 279.696 200.249C287.698 230.862 335.132 273.55 271.199 285.51" stroke="#141414" stroke-width="16" stroke-linecap="round" stroke-linejoin="round"/>
<path opacity="0.503384" d="M199.109 287.751C166.124 292.207 161.638 262.275 165.112 235.904C169.585 201.968 172.863 251.087 181.373 263.82C189.883 276.553 222.78 293.986 200.096 288.25C195.533 287.097 201.632 276.267 199.109 272.146C172.328 228.408 212.102 198.979 215.129 200C217.363 200.755 203.688 208.833 206.503 219.951C212.771 244.703 230.967 233.496 236.558 252.354C240.635 266.099 217.342 276.421 217.342 276.784C217.342 282.04 274.273 255.12 265.136 245.875C259.139 239.808 263.465 271.566 259.717 276.784C253.654 285.216 228.718 284.6 234.094 282.267" stroke="#141414" stroke-width="7" stroke-linecap="round" stroke-linejoin="round"/>
<path opacity="0.503384" d="M245.129 175.543C295.228 167.481 269.906 125.169 269.906 140.204C269.906 148.24 271.649 152.654 262.129 163.535" stroke="#141414" stroke-width="7" stroke-linecap="round" stroke-linejoin="round"/>
</svg>
