<svg width="400" height="400" viewBox="0 0 400 400" fill="none" xmlns="http://www.w3.org/2000/svg">
<path d="M140.126 298C126.478 278.853 54.833 167.153 70.1301 153.966C112.157 117.747 160.987 233.547 169 254.261" stroke="#141414" stroke-width="16" stroke-linecap="round" stroke-linejoin="round"/>
<path d="M231 268.972C243.441 246.461 259.817 226.683 274.612 205.819C278.22 200.734 320.083 138.326 322.768 139.006C343.317 144.18 326.022 199.098 305.37 238.087C284.718 277.076 251.134 295.672 251.805 297.023C255.377 304.223 287.8 289.396 292.786 290.026" stroke="#141414" stroke-width="16" stroke-linecap="round" stroke-linejoin="round"/>
<path d="M259 298C266.518 299.647 276.168 308.608 279 310" stroke="#141414" stroke-width="16" stroke-linecap="round" stroke-linejoin="round"/>
<path d="M254 299C255.514 302.597 255.482 306.329 256 310" stroke="#141414" stroke-width="16" stroke-linecap="round" stroke-linejoin="round"/>
<path d="M151 309C145.734 312.243 119.294 310.792 114 314" stroke="#141414" stroke-width="16" stroke-linecap="round" stroke-linejoin="round"/>
<path d="M142 314C140.604 316.008 141.333 318.665 141 321" stroke="#141414" stroke-width="16" stroke-linecap="round" stroke-linejoin="round"/>
<path d="M142 300C144.572 305.007 147.155 307.391 151 310" stroke="#141414" stroke-width="16" stroke-linecap="round" stroke-linejoin="round"/>
<path d="M118 161.604C168.8 81.3012 290 44.8316 290 181" stroke="#141414" stroke-width="16" stroke-linecap="round" stroke-linejoin="round"/>
<path d="M186 87.9739C175.016 73.6925 165.556 87.8316 164 101" stroke="#141414" stroke-width="16" stroke-linecap="round" stroke-linejoin="round"/>
<path d="M256 80.8324C269.395 72.3387 274.059 84.7859 272.804 94" stroke="#141414" stroke-width="16" stroke-linecap="round" stroke-linejoin="round"/>
<path d="M259 141C238.262 134.454 210.707 135.187 188 138.362" stroke="#141414" stroke-width="16" stroke-linecap="round" stroke-linejoin="round"/>
</svg>
