<svg width="400" height="400" viewBox="0 0 400 400" fill="none" xmlns="http://www.w3.org/2000/svg">
<path d="M113 307.118C159.034 249.855 113.914 175.413 149.893 103.552C167.081 69.2199 223.733 61.2364 250.421 87.8935C299.182 136.588 270.126 209.971 277.169 259.22C279.214 273.504 298.646 302.352 279.936 313.564C250.334 331.304 250.058 284.2 231.055 280.404C219.134 278.023 224.418 329.471 198.774 320.933C188.725 317.589 198.029 291.772 184.017 287.774C170.496 283.915 168.149 347.454 142.515 321.856" stroke="#141414" stroke-width="16" stroke-linecap="round" stroke-linejoin="round"/>
<path d="M221.475 170.81C220.85 174.399 220.636 178.072 220.003 181.524" stroke="#141414" stroke-width="16" stroke-linecap="round" stroke-linejoin="round"/>
<path d="M196.929 180.334C196.929 177.556 196.929 174.778 196.929 172" stroke="#141414" stroke-width="16" stroke-linecap="round" stroke-linejoin="round"/>
</svg>
