<svg width="400" height="400" viewBox="0 0 400 400" fill="none" xmlns="http://www.w3.org/2000/svg">
<path opacity="0.500488" d="M112 302C143.887 303.333 175.654 304 207.301 304C254.771 304 292.208 302 302 302" stroke="#141414" stroke-width="16" stroke-linecap="round" stroke-linejoin="round"/>
<path opacity="0.500488" d="M301.666 280C308.562 281.561 324.223 297.404 328.383 299.059C332.543 300.715 314.609 319.655 306.376 323" stroke="#141414" stroke-width="16" stroke-linecap="round" stroke-linejoin="round"/>
<path opacity="0.500488" d="M91 294C91.6667 262.113 92 230.346 92 198.699C92 151.229 91 113.792 91 104" stroke="#141414" stroke-width="16" stroke-linecap="round" stroke-linejoin="round"/>
<path opacity="0.500488" d="M70 104.334C71.5608 97.4383 87.4041 81.7774 89.0592 77.6172C90.7143 73.457 109.655 91.3914 113 99.6239" stroke="#141414" stroke-width="16" stroke-linecap="round" stroke-linejoin="round"/>
<path d="M123 269L147 258.754C153.543 246.062 158.438 236.125 161.684 228.943C164.93 221.761 168.035 213.997 171 205.651L195 217.044L218.289 175.918L243 212.189L268.116 180.774L291 125" stroke="#141414" stroke-width="16" stroke-linecap="round" stroke-linejoin="round"/>
</svg>
