<svg width="400" height="400" viewBox="0 0 400 400" fill="none" xmlns="http://www.w3.org/2000/svg">
<path d="M95 235.501C95 218.078 120.445 148.465 121.944 147.414" stroke="#141414" stroke-width="16" stroke-linecap="round" stroke-linejoin="round"/>
<path d="M215.213 248.085C201.552 260.038 170.037 147.177 168.579 145.34" stroke="#141414" stroke-width="16" stroke-linecap="round" stroke-linejoin="round"/>
<path d="M175.75 350.001C168.638 346.472 166.68 353.67 166.535 327.642C166.474 316.955 163.463 293.915 161.728 243.274C160.132 196.64 167.559 159.02 166.903 143.575" stroke="#141414" stroke-width="16" stroke-linecap="round" stroke-linejoin="round"/>
<path d="M107.913 348.961C108.462 346.692 112.971 347.99 113.6 347.897C122.113 346.677 129.197 212.182 121.894 147.731" stroke="#141414" stroke-width="16" stroke-linecap="round" stroke-linejoin="round"/>
<path d="M121.341 70.0285C149.412 32.3405 200.609 93.0241 164.633 117.863C136.677 137.167 103.856 107.079 116.981 80.9001" stroke="#141414" stroke-width="16" stroke-linecap="round" stroke-linejoin="round"/>
<path d="M204.849 248.973C218.475 248.973 245.632 209.808 247.338 206.484" stroke="#141414" stroke-width="16" stroke-linecap="round" stroke-linejoin="round"/>
<path d="M297.822 270.733C299.174 268.278 304.568 241.933 304.327 241.054C299.805 224.116 275.222 198.958 274.282 198.191" stroke="#141414" stroke-width="16" stroke-linecap="round" stroke-linejoin="round"/>
<path d="M290.863 349.493C284.412 346.906 282.636 352.182 282.504 333.105C282.449 325.272 281.634 302.796 280.06 265.679C277.494 232.008 275.913 209.512 275.318 198.191" stroke="#141414" stroke-width="16" stroke-linecap="round" stroke-linejoin="round"/>
<path d="M228.685 349.495C229.196 347.824 233.392 348.78 233.977 348.711C241.9 347.813 248.201 224.6 249.411 201.303" stroke="#141414" stroke-width="16" stroke-linecap="round" stroke-linejoin="round"/>
<path d="M236.409 133.571C260.915 100.451 305.611 153.779 274.203 175.607C249.797 192.571 221.144 166.13 232.603 143.124" stroke="#141414" stroke-width="16" stroke-linecap="round" stroke-linejoin="round"/>
</svg>
