<svg width="400" height="400" viewBox="0 0 400 400" fill="none" xmlns="http://www.w3.org/2000/svg">
<path d="M295.606 174.118C295.606 194.507 282.587 223.179 313.14 249.621C343.694 276.063 163.914 273.28 137.278 267.864" stroke="#141414" stroke-width="16" stroke-linecap="round" stroke-linejoin="round"/>
<path d="M268.756 156.202C269.305 148.394 268.392 141.338 265.133 134.347" stroke="#141414" stroke-width="16" stroke-linecap="round" stroke-linejoin="round"/>
<path d="M235.417 132.552C233.451 126.989 229.39 122.46 225.453 117.982" stroke="#141414" stroke-width="16" stroke-linecap="round" stroke-linejoin="round"/>
<path d="M192.738 114.024C190.228 108.177 186.575 103.737 183.355 99" stroke="#141414" stroke-width="16" stroke-linecap="round" stroke-linejoin="round"/>
<path d="M138.482 115.617C134.548 112.465 127.455 110.498 123.99 109.546" stroke="#141414" stroke-width="16" stroke-linecap="round" stroke-linejoin="round"/>
<path d="M101.613 139.27C97.9344 136.023 89.7266 134.565 88.0266 134.413" stroke="#141414" stroke-width="16" stroke-linecap="round" stroke-linejoin="round"/>
<path d="M79.0596 178.815C74.2086 179.014 69.3034 178.795 64.5681 178.41" stroke="#141414" stroke-width="16" stroke-linecap="round" stroke-linejoin="round"/>
<path d="M78.6885 220.262C75.4166 222.113 68.9059 223.624 66.9137 224.309" stroke="#141414" stroke-width="16" stroke-linecap="round" stroke-linejoin="round"/>
<path d="M98.791 255.673C97.2038 258.721 93.6031 261.356 91.5449 263.363" stroke="#141414" stroke-width="16" stroke-linecap="round" stroke-linejoin="round"/>
<path d="M274.495 237.854C274.844 236.649 275.1 235.425 275.401 234.211" stroke="#141414" stroke-width="16" stroke-linecap="round" stroke-linejoin="round"/>
<path d="M245.175 294.306C239.974 292.627 233.262 294.306 225.237 279.282" stroke="#141414" stroke-width="16" stroke-linecap="round" stroke-linejoin="round"/>
<path d="M137.278 291.087C132.582 290.895 124.382 291.087 119.686 288.143" stroke="#141414" stroke-width="16" stroke-linecap="round" stroke-linejoin="round"/>
</svg>
