<svg width="400" height="400" viewBox="0 0 400 400" fill="none" xmlns="http://www.w3.org/2000/svg">
<path d="M124 76.9623C128.503 76.0833 132.975 75.0886 137.501 74.3253C146.814 73.4001 156.143 72.5211 165.487 71.9043C175.532 71.2412 185.631 71.5727 195.706 71.0947C205.597 70.6398 259.971 68.6168 262.495 68.2699C263.188 68.1773 263.881 68.0848 264.573 68C266.353 70.5396 268.095 73.1044 269.814 75.6857C278.995 89.4759 286.365 100.337 296.161 113.71C303.435 123.679 310.593 133.741 317.99 143.618C323.371 150.82 329.089 157.721 334.701 164.729C337.002 167.983 338.949 171.445 341.32 174.637C342.821 176.703 344.499 178.893 346 181.145C345.092 183.905 343.929 186.619 342.775 189.287C342.836 189.132 342.906 188.978 342.975 188.824C337.502 201.415 332.061 214.037 326.134 226.412C319.822 239.728 312.964 252.766 306.321 265.928C300.341 277.732 294.083 289.544 287.317 300.894C280.913 311.65 274.663 322.552 267.836 333" stroke="#141414" stroke-width="16" stroke-linecap="round" stroke-linejoin="round"/>
<path d="M265 331C259.184 330.399 253.337 330.152 247.467 329.913C231.997 329.343 216.559 327.894 201.128 327.022C193.178 326.568 185.267 326.298 177.325 326.059C169.322 325.851 161.349 325.095 153.346 324.525C145.703 323.978 137.969 323.376 130.295 323.376C128.231 323.376 126.16 323.407 124.095 323.438C122.346 323.461 120.589 323.477 118.839 323.477C117.504 320.756 116.092 318.073 114.619 315.398C108.388 304.021 101.759 292.844 95.8271 281.312C90.2179 270.444 85.7827 258.974 80.2733 248.074C74.6949 237.036 69.0934 226.075 64.0136 214.805C62.0646 209.779 60.2767 204.692 58.4198 199.627C57.0847 195.989 55.5577 192.451 54 188.928C54.046 188.859 54.0844 188.789 54.1304 188.728C56.5322 184.989 58.4505 180.927 60.576 177.042C66.6609 165.957 73.1372 155.181 79.8513 144.459C93.456 122.814 104.851 99.6891 119.952 79C119.445 79.6706 118.931 80.3335 118.417 80.9887" stroke="#141414" stroke-width="16" stroke-linecap="round" stroke-linejoin="round"/>
</svg>
