<svg width="400" height="400" viewBox="0 0 400 400" fill="none" xmlns="http://www.w3.org/2000/svg">
<path d="M153.829 118.535C150.219 108.262 151.791 99.389 155.425 89.6376C168.76 53.8785 228.133 73.5137 225.017 111.151C222.029 147.227 168.672 161.958 157.66 124.313" stroke="#141414" stroke-width="16" stroke-linecap="round" stroke-linejoin="round"/>
<path d="M158.353 126.636C183.34 113.262 197.281 76.6481 183.703 50" stroke="#141414" stroke-width="16" stroke-linecap="round" stroke-linejoin="round"/>
<path d="M191.197 79.5595C194.189 97.1778 218.567 104.104 218.567 121.162" stroke="#141414" stroke-width="16" stroke-linecap="round" stroke-linejoin="round"/>
<path d="M213.881 166.569C204.945 169.003 198.115 175.053 191.508 181.227C120.829 247.302 139.491 125.635 231.137 145.22C272.301 154.015 250.123 193.602 197.579 183.776" stroke="#141414" stroke-width="16" stroke-linecap="round" stroke-linejoin="round"/>
<path d="M184.062 197.798C187.812 205.27 188.768 213.998 185.63 221.951C179.145 238.386 162.383 241.62 168.389 262.317C174.776 284.342 209.339 292.935 205.064 316.036" stroke="#141414" stroke-width="16" stroke-linecap="round" stroke-linejoin="round"/>
<path d="M219.39 191.229C242.966 231.832 140.049 247.062 181.403 282.097" stroke="#141414" stroke-width="16" stroke-linecap="round" stroke-linejoin="round"/>
<path d="M176.965 328.078C186.737 311.219 212.57 330.281 226.231 320.415" stroke="#141414" stroke-width="16" stroke-linecap="round" stroke-linejoin="round"/>
<path d="M226.96 309.467C241.241 327.863 209.192 333.086 206.524 346.69" stroke="#141414" stroke-width="16" stroke-linecap="round" stroke-linejoin="round"/>
<path d="M187.913 329.173C190.025 342.024 198.092 344.787 209.809 342.845" stroke="#141414" stroke-width="16" stroke-linecap="round" stroke-linejoin="round"/>
<path d="M210.903 349.736C205.028 349.578 199.167 349.74 193.387 350.27" stroke="#141414" stroke-width="16" stroke-linecap="round" stroke-linejoin="round"/>
</svg>
