<svg width="400" height="400" viewBox="0 0 400 400" fill="none" xmlns="http://www.w3.org/2000/svg">
<path d="M150.992 127.431C179.361 97.0167 206.838 105.627 212.286 128.563C217.622 151.03 201.077 166.929 189.75 169.088C163.56 174.081 135.718 137.197 155.442 124.042" stroke="#141414" stroke-width="16" stroke-linecap="round" stroke-linejoin="round"/>
<path d="M156.5 175.5C154.244 177.186 154 214.5 154 214.5C154 214.5 152.967 248.015 160.59 260.691C160.992 261.356 195.729 261.711 197.806 260.161C198.89 259.352 188.5 218 191.958 193.884" stroke="#141414" stroke-width="16" stroke-linecap="round" stroke-linejoin="round"/>
<path d="M156.339 175.058C141.916 144.323 154.883 101.798 178.136 79.1547C189.276 68.3085 203.024 61.1806 214.286 51.6767C232.441 36.3545 222.573 74.6004 214.286 50.5567" stroke="#141414" stroke-width="16" stroke-linecap="round" stroke-linejoin="round"/>
<path d="M193.76 189.19C227.849 232.639 233.657 189.571 252.768 155.259" stroke="#141414" stroke-width="16" stroke-linecap="round" stroke-linejoin="round"/>
<path d="M161 263C163.844 269.507 181.138 334.917 201.526 334.917C208.201 334.917 188.48 273.751 201.526 291.97" stroke="#141414" stroke-width="16" stroke-linecap="round" stroke-linejoin="round"/>
<path d="M201.526 262.812C208.08 268.048 217.62 274.048 224.388 279C232.067 284.614 238.218 285.087 245.12 291.97C250.612 297.447 208.267 336.867 224.388 352.945" stroke="#141414" stroke-width="16" stroke-linecap="round" stroke-linejoin="round"/>
</svg>
