<svg width="400" height="400" viewBox="0 0 400 400" fill="none" xmlns="http://www.w3.org/2000/svg">
<path d="M176.919 183.214C181.751 178.997 189.686 177.352 196.01 176.897C210.048 175.889 226.754 183.616 230.78 197.745C237.808 222.396 214.56 255.353 186.818 241.539C173.677 234.996 169.026 223.675 169.35 209.672" stroke="#141414" stroke-width="16" stroke-linecap="round" stroke-linejoin="round"/>
<path d="M115.663 234.734C133.403 283.112 234.925 273.271 260.452 257.052C271.401 250.095 276.47 237.733 283.774 229.397" stroke="#141414" stroke-width="16" stroke-linecap="round" stroke-linejoin="round"/>
<path d="M237.94 90.5667C250.073 74.7536 279.796 95.9794 266.995 114.598C252.394 135.838 224.777 118.986 235.029 97.7514" stroke="#141414" stroke-width="12" stroke-linecap="round" stroke-linejoin="round"/>
<path d="M156.72 86.7106C159.514 84.1148 164.103 83.1022 167.76 82.8223C175.878 82.2015 185.539 86.9581 187.867 95.6554C191.931 110.83 178.487 131.117 162.444 122.613C154.845 118.585 152.155 111.617 152.343 102.997" stroke="#141414" stroke-width="12" stroke-linecap="round" stroke-linejoin="round"/>
<path d="M100.307 161.154C104.502 155.68 109.84 151.65 117.156 153.263C137.775 157.808 133.809 189.886 113.413 191.33C96.8977 192.501 90.719 164.194 104.051 160.226" stroke="#141414" stroke-width="12" stroke-linecap="round" stroke-linejoin="round"/>
<path d="M273.708 158.892C277.903 153.418 283.24 149.388 290.557 151.001C311.175 155.545 307.209 187.623 286.813 189.068C270.298 190.238 264.119 161.931 277.452 157.964" stroke="#141414" stroke-width="12" stroke-linecap="round" stroke-linejoin="round"/>
<path d="M218.165 270.701C215.558 285.151 215.703 299.801 215.703 314.364" stroke="#141414" stroke-width="16" stroke-linecap="round" stroke-linejoin="round"/>
<path d="M183.751 270.701C185.81 285.151 187.406 300.868 187.406 315.431" stroke="#141414" stroke-width="16" stroke-linecap="round" stroke-linejoin="round"/>
<path opacity="0.503384" d="M209.451 208.173C209.451 207.113 208.684 207.355 208.362 206.222" stroke="#141414" stroke-width="6" stroke-linecap="round" stroke-linejoin="round"/>
<path opacity="0.503384" d="M201.74 212.62C201.74 212.138 200.59 211.161 200.59 210.675" stroke="#141414" stroke-width="6" stroke-linecap="round" stroke-linejoin="round"/>
</svg>
