<svg width="400" height="400" viewBox="0 0 400 400" fill="none" xmlns="http://www.w3.org/2000/svg">
<path d="M147.401 313.003C39.849 313.003 42.299 313.003 87.1137 209.526V275.47" stroke="#141414" stroke-width="16" stroke-linecap="round" stroke-linejoin="round"/>
<path d="M324.557 227.946C304.429 227.192 195.421 226.265 187.533 234.155C176.154 245.537 148.004 324.113 159.274 339.143C235.862 340.602 293.779 342.161 305.107 337.629C310.954 335.29 315.623 328.565 318.227 322.487C320.289 317.673 341.944 244.299 341.944 242.231" stroke="#141414" stroke-width="16" stroke-linecap="round" stroke-linejoin="round"/>
<path d="M155.578 338.466C139.386 332.347 122.409 326.968 106.82 318.962" stroke="#141414" stroke-width="16" stroke-linecap="round" stroke-linejoin="round"/>
<path d="M109.285 124.88C83.9951 207.964 197.142 243.153 227.106 159.615C243.35 114.329 188.699 47.6705 132.681 97.7023" stroke="#141414" stroke-width="16" stroke-linecap="round" stroke-linejoin="round"/>
<path d="M187.702 157.793C188.738 154.993 189.477 153.351 190.056 150.635" stroke="#141414" stroke-width="16" stroke-linecap="round" stroke-linejoin="round"/>
<path d="M164.323 157.307C165.409 155.075 165.59 153.073 166.015 150.55" stroke="#141414" stroke-width="16" stroke-linecap="round" stroke-linejoin="round"/>
</svg>
