<svg width="400" height="400" viewBox="0 0 400 400" fill="none" xmlns="http://www.w3.org/2000/svg">
<path d="M145.813 184.914C180.296 205.59 225.618 199.918 254.198 173.723C254.603 173.352 265.109 163.886 266.081 164.617C267.767 165.885 267.638 174.952 267.638 176.484C267.638 260.333 186.879 321.09 138.87 224.86C132.289 211.667 131.069 192.951 132.58 179.327" stroke="#141414" stroke-width="16" stroke-linecap="round" stroke-linejoin="round"/>
<path d="M228.887 195.352C230.081 215.682 231.866 236.336 230.882 256.903" stroke="#141414" stroke-width="16" stroke-linecap="round" stroke-linejoin="round"/>
<path d="M199.515 207.89C199.18 226.839 200.285 246.194 198.886 264.882" stroke="#141414" stroke-width="16" stroke-linecap="round" stroke-linejoin="round"/>
<path d="M169.613 199.911C168.606 220.022 166.194 240.137 166.194 260.323" stroke="#141414" stroke-width="16" stroke-linecap="round" stroke-linejoin="round"/>
<path d="M154.797 126C168.279 149.119 171.986 153.67 188.321 127.403" stroke="#141414" stroke-width="16" stroke-linecap="round" stroke-linejoin="round"/>
<path d="M215.208 126.001C228.69 149.119 232.397 153.67 248.732 127.403" stroke="#141414" stroke-width="16" stroke-linecap="round" stroke-linejoin="round"/>
</svg>
