<svg width="400" height="400" viewBox="0 0 400 400" fill="none" xmlns="http://www.w3.org/2000/svg">
<path d="M117.315 215.369C154.176 176.229 180.944 121.211 184.461 90C198.464 91.0419 209.685 91.5629 218.122 91.5629C226.208 91.5629 238.601 91.0419 255.301 90C246.535 110.522 239.87 127.016 235.304 139.48C230.739 151.945 225.011 169.286 218.122 191.504C239.032 190.107 254.714 189.408 265.169 189.408C270.687 189.408 278.964 190.107 290 191.504C272.539 202.112 254.307 216.497 235.304 234.658C216.302 252.819 187.383 284.266 148.55 329L172.976 252.043L180.944 232.497C177.011 231.254 168.088 230.463 154.176 230.122C140.264 229.782 125.872 230.015 111 230.821" stroke="#141414" stroke-width="16" stroke-linecap="round" stroke-linejoin="round"/>
</svg>
