<svg width="400" height="400" viewBox="0 0 400 400" fill="none" xmlns="http://www.w3.org/2000/svg">
<path opacity="0.503384" d="M192.736 181.647C189.285 167.987 181.272 155.221 179.094 140.974C176.957 126.977 173.388 79.1365 189.065 71.246C194.646 68.4363 209.243 90.5493 212.149 93.9592C236.08 122.074 223.308 163.688 212.149 184.29" stroke="#141414" stroke-width="16" stroke-linecap="round" stroke-linejoin="round"/>
<path opacity="0.503384" d="M221.986 92.3266C245.687 61.9228 263.791 69.9798 251.788 104.614" stroke="#141414" stroke-width="16" stroke-linecap="round" stroke-linejoin="round"/>
<path opacity="0.503384" d="M236.848 117.242C243.646 109.358 304.152 98.1271 304.152 103.55C304.152 105.845 293.715 114.896 292.493 119.351C284.817 147.327 285.911 181.685 250.625 185.19C241.672 186.081 227.362 185.071 225.72 184.136" stroke="#141414" stroke-width="16" stroke-linecap="round" stroke-linejoin="round"/>
<path opacity="0.503384" d="M171.681 124.315C159 105.625 135.394 113.216 116.832 115.853C109.627 116.874 95 108.091 95 115.323C95 116.669 102.817 128.761 103.518 133.309C113.683 198.942 139.437 184.094 187.126 184.094" stroke="#141414" stroke-width="16" stroke-linecap="round" stroke-linejoin="round"/>
<path opacity="0.503384" d="M172.188 89.0238C171.522 79.2405 150.007 78.8352 148.504 72.2454C148.469 72.0917 145.487 103.433 148.997 109.593" stroke="#141414" stroke-width="16" stroke-linecap="round" stroke-linejoin="round"/>
<path opacity="0.503384" d="M271.784 191.76C262.535 216.489 233.231 201.669 217.006 194.035" stroke="#141414" stroke-width="16" stroke-linecap="round" stroke-linejoin="round"/>
<path opacity="0.503384" d="M207.324 189.27C221.181 196.607 165.615 221.435 159.737 198.31" stroke="#141414" stroke-width="16" stroke-linecap="round" stroke-linejoin="round"/>
<path d="M210.214 209.189C218.372 273.63 135.813 307.139 127.369 329.949" stroke="#141414" stroke-width="16" stroke-linecap="round" stroke-linejoin="round"/>
</svg>
