<svg width="400" height="400" viewBox="0 0 400 400" fill="none" xmlns="http://www.w3.org/2000/svg">
<path d="M226.443 277.84C226.608 277.193 226.663 276.514 226.773 275.851C228.489 265.453 229.872 255.007 230.869 244.5C231.716 235.56 232.691 226.646 234.3 217.804C236.425 206.122 238.256 194.373 240.043 182.624" stroke="#141414" stroke-width="16" stroke-linecap="round" stroke-linejoin="round"/>
<path d="M165.887 183.113C165.944 186.233 170.566 210.738 172.459 219.91C173.99 227.327 175.717 234.748 176.547 242.26C177.603 251.802 178.938 261.288 180.247 270.789" stroke="#141414" stroke-width="16" stroke-linecap="round" stroke-linejoin="round"/>
<path fill-rule="evenodd" clip-rule="evenodd" d="M200.791 311.241C202.296 310.836 203.482 310.744 204.977 311.168C213.232 313.514 221.29 316.472 229.492 318.986C238.51 321.751 247.597 322.794 256.816 322.228C265.809 321.677 274.767 320.346 283.694 319.042C289.736 318.16 314.71 312.264 314.71 295.287C314.71 278.311 292.556 278.576 290.277 278.876C285.041 279.566 279.827 279.504 274.566 279.205C268.28 278.846 261.931 278.639 255.784 280.378C247.718 282.659 238.736 285.038 230.768 287.627C228.959 288.216 227.436 288.365 226.062 287.295C223.261 285.116 213.588 282.304 204.622 282.304C195.655 282.304 184.754 284.747 182.601 286.461C178.674 289.585 174.976 289.114 171.475 285.696C168.672 282.96 165.391 281.288 161.674 280.351C158.422 279.531 155.14 278.825 151.873 278.055C137.413 274.642 95.546 274.642 97.5679 295.287C98.3173 302.939 102.974 309.493 105.788 311.314C109.576 313.765 139.98 318.877 151.107 318.796C171.475 321.03 193.298 313.256 200.791 311.241Z" stroke="#141414" stroke-width="16" stroke-linecap="round" stroke-linejoin="round"/>
<path d="M80.2997 279.838C83.176 280.433 86.0602 280.879 89.041 280.78C91.8748 280.687 94.4563 280.107 96.6094 278.213C99.0531 276.062 110.275 274.425 115.073 272.937C119.886 271.445 128.875 266.284 132.991 263.242C134.598 262.054 135.695 260.729 136.535 259.008C145.392 240.87 146.486 238.549 151.54 219.102C152.38 215.872 162.324 181.886 165.908 182.806M241.839 180.446C244.396 180.327 247.308 219.765 261.503 256.589C264.068 263.242 297.7 273.325 305.729 275.096C310.236 276.089 316.819 277.526 320.028 274.275" stroke="#141414" stroke-width="16" stroke-linecap="round" stroke-linejoin="round"/>
<path d="M171.19 93.1887C205.192 46.449 267.208 121.707 223.629 152.512C189.766 176.452 150.01 139.138 165.908 106.671" stroke="#141414" stroke-width="16" stroke-linecap="round" stroke-linejoin="round"/>
</svg>
