<svg width="400" height="400" viewBox="0 0 400 400" fill="none" xmlns="http://www.w3.org/2000/svg">
<path d="M176.997 244.998C166.917 256.974 162.876 268.785 164.875 280.43C167.873 297.898 182.386 323.2 203.839 317.939C225.293 312.678 259.938 291.272 233.121 244.998" stroke="#141414" stroke-width="16" stroke-linecap="round" stroke-linejoin="round"/>
<path d="M214.541 276.105C214.633 272.355 214.562 273.354 214.562 269.669" stroke="#141414" stroke-width="16" stroke-linecap="round" stroke-linejoin="round"/>
<path d="M194.184 276.105C194.184 273.96 194.184 271.814 194.184 269.669" stroke="#141414" stroke-width="16" stroke-linecap="round" stroke-linejoin="round"/>
<path d="M203.838 293.268C203.838 295.348 203.838 299.675 203.838 300.817" stroke="#141414" stroke-width="16" stroke-linecap="round" stroke-linejoin="round"/>
<path d="M144.933 266.446C142.529 277.579 143.178 285.299 146.88 289.607C152.432 296.069 121.779 354.706 121.779 357.016C121.779 359.327 162.553 339.367 165.809 336.296C169.065 333.225 190.661 340.283 207.172 339.21C223.683 338.138 239.165 331.052 243.163 331.052C247.161 331.052 276.993 352.012 278.315 353.211C279.637 354.41 264.96 288.114 260.63 284.523C256.301 280.932 265.83 267.519 263.036 263.233" stroke="#141414" stroke-width="16" stroke-linecap="round" stroke-linejoin="round"/>
<path opacity="0.503384" d="M186.163 160.13C169.151 166.114 153.774 160.036 144.551 153.547C141.069 151.097 122.337 172.472 107.1 153.547C82.8435 123.42 117.262 77.4495 154.954 77.4495C162.796 77.4495 164.984 45.9185 199.34 42.3311C238.731 38.2179 240.427 73.7911 245.808 73.7911C249.66 73.7911 269.015 56.5109 288.065 74.7816C328.285 113.356 268.369 130.564 268.693 131.594C270.689 137.908 288.78 133.693 291.58 144.034C298.859 170.908 242.315 162.622 231.242 154.278" stroke="#141414" stroke-width="14" stroke-linecap="round" stroke-linejoin="round"/>
<path opacity="0.503384" d="M195.694 175.226C197.897 189.779 193.254 224.237 192.051 226.637" stroke="#141414" stroke-width="14" stroke-linecap="round" stroke-linejoin="round"/>
<path opacity="0.503384" d="M220.133 172.472C215.721 191.104 220.75 210.21 220.75 228.473" stroke="#141414" stroke-width="14" stroke-linecap="round" stroke-linejoin="round"/>
<path opacity="0.503384" d="M234.29 181.441C331.937 207.71 69.7553 214.031 181.698 183.326" stroke="#141414" stroke-width="14" stroke-linecap="round" stroke-linejoin="round"/>
</svg>
