<svg width="400" height="400" viewBox="0 0 400 400" fill="none" xmlns="http://www.w3.org/2000/svg">
<path d="M18 229.515C21.2635 134.81 142.198 93.2816 180.979 187.467C195.038 221.61 210.522 251.92 246.051 267.464C333.518 305.729 393.176 116.751 302.765 122.394C251.811 125.574 208.948 179.579 194.981 195.639" stroke="#141414" stroke-width="16" stroke-linecap="round" stroke-linejoin="round"/>
<path d="M149.434 240.392C109 279.486 18 307.832 18 229.515" stroke="#141414" stroke-width="16" stroke-linecap="round" stroke-linejoin="round"/>
<path d="M37.1055 226.335C37.1055 197.114 78.025 155.804 109.938 165.378C132.376 172.109 133.181 192.625 140.981 211.346C146.734 225.152 157.577 240.74 166.652 252.539C178.928 268.496 194.755 285.777 212.62 295.522C263.494 323.271 326.382 311.12 356.495 259.106C385.15 209.612 406.234 97.071 320.743 91.2672C261.088 87.2188 214.162 129.867 178.773 172.515" stroke="#141414" stroke-width="16" stroke-linecap="round" stroke-linejoin="round"/>
<path d="M134 216.986C101.429 248.437 84.0354 253.729 75.3616 254.674C45.7149 257.581 37 242.986 37 223.975" stroke="#141414" stroke-width="16" stroke-linecap="round" stroke-linejoin="round"/>
</svg>
