<svg width="400" height="400" viewBox="0 0 400 400" fill="none" xmlns="http://www.w3.org/2000/svg">
<path d="M68 291.921C68 290.858 69.6578 242.556 69.4984 192.976C69.342 144.297 67.3458 94.3217 69.7469 93.5278C74.5937 91.9254 196.642 93.5278 221.365 93.5278C246.088 93.5278 329.607 89.307 329.607 90.099C329.607 90.891 333 230.922 333 234.679C333 238.435 329.528 309.633 238.329 307.934C147.131 306.235 76.4243 309.67 73.1364 310" stroke="#141414" stroke-width="16" stroke-linecap="round" stroke-linejoin="round"/>
<path d="M251 307C260.057 300.871 265.105 293.916 268.578 279.425C270.893 269.765 269.666 259.623 264.898 249C272.9 260.787 282.081 267.613 292.44 269.479C307.98 272.278 324.042 271.733 328 260.367" stroke="#141414" stroke-width="16" stroke-linecap="round" stroke-linejoin="round"/>
</svg>
