<svg width="400" height="400" viewBox="0 0 400 400" fill="none" xmlns="http://www.w3.org/2000/svg">
<path d="M40.5665 231.146C47.4007 220.01 35.4189 197.148 42.1103 186.06C45.5109 180.432 79.7753 186.573 84.9065 186.573C156.748 186.573 228.2 183.5 299.904 183.5C306.2 183.5 340.838 174.995 344.76 178.887C349.188 183.287 345.606 202.83 346.309 209.119C346.683 212.471 350.292 237.435 348.369 239.346C347.705 240.006 338.503 236.562 337.025 236.272C304.974 229.902 266.562 234.733 233.908 234.733C212.718 234.733 191.65 236.786 170.493 236.786C134.768 236.786 72.9624 241.626 52.422 237.293" stroke="#141414" stroke-width="16" stroke-linecap="round" stroke-linejoin="round"/>
<path d="M176.248 234.527C179.961 203.416 172.093 170.812 176.756 140.094" stroke="#141414" stroke-width="16" stroke-linecap="round" stroke-linejoin="round"/>
<path d="M181.649 137.396C198.08 132.308 215.914 134.325 232.913 132" stroke="#141414" stroke-width="16" stroke-linecap="round" stroke-linejoin="round"/>
<path d="M238.309 136.047C249.055 151.117 259.989 166.313 272.035 180.565" stroke="#141414" stroke-width="16" stroke-linecap="round" stroke-linejoin="round"/>
<path d="M271.952 185.962C271.806 202.587 269.421 219.278 269.421 235.876" stroke="#141414" stroke-width="16" stroke-linecap="round" stroke-linejoin="round"/>
<path d="M224.818 133.349C243.775 142.387 249.101 160.887 249.101 180.566" stroke="#141414" stroke-width="16" stroke-linecap="round" stroke-linejoin="round"/>
<path d="M84.5186 229.006C100.661 184.484 161.933 206.635 136.37 253.811C119.128 285.63 85.547 258.645 85.547 232.624" stroke="#141414" stroke-width="16" stroke-linecap="round" stroke-linejoin="round"/>
<path fill-rule="evenodd" clip-rule="evenodd" d="M282.216 222.295C309.764 187.311 338.932 219.933 328.168 246.508C320.58 265.241 299.298 276.333 285.839 258.547C278.327 248.62 275.473 237.122 278.594 225.402L282.216 222.295Z" stroke="#141414" stroke-width="16" stroke-linecap="round" stroke-linejoin="round"/>
<path d="M356.813 212.942C361.46 218.957 359.798 227.392 358.842 234.527" stroke="#141414" stroke-width="16" stroke-linecap="round" stroke-linejoin="round"/>
</svg>
