<svg width="400" height="400" viewBox="0 0 400 400" fill="none" xmlns="http://www.w3.org/2000/svg">
<path opacity="0.470215" d="M107.648 125.462C117.7 103.133 138.425 89.1063 160.475 83.5932C173.087 80.4433 181.185 79.8971 193.981 77.663C212.22 74.477 244.683 83.5056 256.597 89.1719C280.085 100.342 291.717 120.525 301.229 142.755C309.469 162.009 315.864 183.146 314.278 204.451C314.281 213.733 312.287 222.399 310.375 231.539C297.87 291.324 243.584 318.577 214.505 321.475C184.323 324.484 155.882 319.551 130.135 302.089C123.17 297.366 103.195 280.519 96.6158 261.949C89.1531 240.886 80.7539 218.218 87.4347 194.805C90.1698 185.226 90.7741 174.38 98.8297 166.297" stroke="#141414" stroke-width="16" stroke-linecap="round" stroke-linejoin="round"/>
<path d="M205.512 77.0566C223.672 77.7447 246.917 84.5682 256.597 89.172C280.085 100.342 291.717 120.525 301.229 142.755C305.506 152.749 309.287 163.25 311.711 174.019" stroke="#141414" stroke-width="16" stroke-linecap="round" stroke-linejoin="round"/>
<path d="M200.717 211.301C199.917 190.446 199.917 168.063 200.717 144.151C201.516 120.238 202.983 97.8548 205.117 77" stroke="#141414" stroke-width="16" stroke-linecap="round" stroke-linejoin="round"/>
<path d="M205.359 214.301C226.161 208.353 243.828 202.568 258.359 196.948C272.891 191.327 290.557 183.445 311.359 173.301" stroke="#141414" stroke-width="16" stroke-linecap="round" stroke-linejoin="round"/>
</svg>
