<svg width="400" height="400" viewBox="0 0 400 400" fill="none" xmlns="http://www.w3.org/2000/svg">
<path d="M196.71 261.483C200.621 257.568 207.215 256.692 212.401 259.701C232.381 271.296 204.518 305.068 189.888 279.596C186.446 273.605 189.263 268.794 195.004 265.046" stroke="#808080" stroke-width="16" stroke-linecap="round" stroke-linejoin="round"/>
<path d="M86.0645 111.424C101.592 104.276 111.171 114.546 114.846 128.798C129.562 185.869 8.75402 156.363 84.4349 103" stroke="#141414" stroke-width="16" stroke-linecap="round" stroke-linejoin="round"/>
<path d="M59.3066 177.868C69.2203 208.557 96.7873 212.187 124.915 207.498" stroke="#141414" stroke-width="16" stroke-linecap="round" stroke-linejoin="round"/>
<path d="M58.2095 177.069C60.8144 190.083 27.5573 230.912 36.3402 244.089C42.2599 252.968 115.714 271.217 75.8475 287.828C58.336 295.124 36.0407 291.587 18 297.001" stroke="#141414" stroke-width="16" stroke-linecap="round" stroke-linejoin="round"/>
<path d="M238.5 148.801C245.057 142.209 256.788 140.045 265.712 143.06C274.387 145.988 278.75 157.204 278.75 165.454C278.75 230.857 183.181 185.814 234.531 145.355" stroke="#141414" stroke-width="16" stroke-linecap="round" stroke-linejoin="round"/>
<path d="M214.208 253.826C241.494 267.883 263.267 243.785 278.749 208.848" stroke="#141414" stroke-width="16" stroke-linecap="round" stroke-linejoin="round"/>
<path d="M278.748 208.347C372.908 194.865 343.306 250.041 297.665 283.716" stroke="#141414" stroke-width="16" stroke-linecap="round" stroke-linejoin="round"/>
<path d="M299.401 283.621C327.766 275.445 356.922 277.139 382.014 288.881" stroke="#141414" stroke-width="16" stroke-linecap="round" stroke-linejoin="round"/>
<path d="M120.487 226.133C123.276 226.165 126.076 226.513 128.865 226.48C142.911 226.318 155.649 227.552 172.864 226.473C173.324 226.382 169.133 217.833 163.715 208.289C157.79 197.853 152.735 186.737 144.5 177.868C139.662 177.868 122.274 214.817 119.493 219.703C118.341 221.726 117.04 223.75 116.102 225.884" stroke="#808080" stroke-width="16" stroke-linecap="round" stroke-linejoin="round"/>
<path d="M127.309 246.046C134.565 245.401 179.556 243.678 179.556 246.822C179.556 262.175 182.009 290.418 179.556 292.879C175.613 296.836 129.004 297.716 125.901 295.245C122.867 292.829 124.095 263.39 124.095 253.781" stroke="#808080" stroke-width="16" stroke-linecap="round" stroke-linejoin="round"/>
</svg>
