<svg width="400" height="400" viewBox="0 0 400 400" fill="none" xmlns="http://www.w3.org/2000/svg">
<path d="M153.662 228.473C167.11 229.68 180.952 229.177 194.587 229.177C208.737 229.177 222.171 229.829 236.243 228.473C256.006 226.572 278.197 219.313 273.515 241.838C272.96 244.519 271.96 255.248 269.132 256.611C264.207 258.981 150.207 265.246 149.278 264.349C143.006 258.315 145.888 239.565 143.429 231.288" stroke="#141414" stroke-width="16" stroke-linecap="round" stroke-linejoin="round"/>
<path d="M155.881 274.561C160.192 359.89 172.702 326.642 243.563 335.398C251.346 336.363 260.456 272.299 260.456 264.437" stroke="#141414" stroke-width="16" stroke-linecap="round" stroke-linejoin="round"/>
<path d="M207.176 218.373C207.956 206.868 208.506 195.149 207.923 183.603C206.003 145.637 206.153 102.232 175.042 74.8525C168.705 69.2759 133.211 56.6966 127.967 69.675C114.062 104.082 177.413 152.2 207.176 132.557" stroke="#141414" stroke-width="16" stroke-linecap="round" stroke-linejoin="round"/>
<path d="M208.166 176.045C212.014 157.622 227.785 90.0795 254.696 94.0466C265.773 95.6806 265.432 118.621 265.432 126.548C265.432 162.187 231.215 160.727 210.311 167.919" stroke="#141414" stroke-width="16" stroke-linecap="round" stroke-linejoin="round"/>
</svg>
