<svg width="400" height="400" viewBox="0 0 400 400" fill="none" xmlns="http://www.w3.org/2000/svg">
<path d="M164.7 99.5444C163.534 108.855 153.904 130.56 135.812 164.659C117.719 198.759 92.7816 242.203 61 294.99C104.003 296.715 138.57 298.571 164.7 300.558C190.83 302.544 217.69 305.358 245.279 309C277.109 286.526 298.738 270.622 310.166 261.288C321.595 251.953 331.206 242.341 339 232.451C313.598 216.186 290.271 198.545 269.018 179.53C247.766 160.514 218.397 131.004 180.911 91C199.395 144.587 212.956 185.067 221.594 212.441C230.232 239.816 238.127 267.332 245.279 294.99" stroke="#141414" stroke-width="16" stroke-linecap="round" stroke-linejoin="round"/>
</svg>
