<svg width="400" height="400" viewBox="0 0 400 400" fill="none" xmlns="http://www.w3.org/2000/svg">
<path d="M273.147 213.344C278.691 167.312 221.029 102.171 165.634 137.369C161.679 139.881 131.004 164.896 134.659 170.47C134.757 170.62 154.31 167.673 156.899 168.048C167.294 169.556 171.607 188.234 176.751 188.234C188.153 188.234 196.186 176.857 208.521 185.812C214.687 190.286 216.018 205.493 221.23 207.611C234.642 213.064 254.12 196.498 257.726 225.814" stroke="#141414" stroke-width="16" stroke-linecap="round" stroke-linejoin="round"/>
<path d="M103.936 226.608C124.347 179.963 179.918 221.562 145.804 255.172C125.796 274.892 93.0776 259.672 99.1044 232.958" stroke="#141414" stroke-width="16" stroke-linecap="round" stroke-linejoin="round"/>
<path d="M71.0999 370.553C70.6605 363.221 56.3275 331.269 64.529 323.013C72.9746 314.511 89.7291 288.603 100.835 284.878C117.819 279.177 179.241 302.102 184.491 293.616C190.948 283.176 204.834 220.37 211.957 194.083" stroke="#141414" stroke-width="16" stroke-linecap="round" stroke-linejoin="round"/>
<path d="M137.784 296.75C131.141 321.122 130.049 346.059 125.79 370.553" stroke="#141414" stroke-width="16" stroke-linecap="round" stroke-linejoin="round"/>
<path d="M96.687 289.885C97.5883 312.238 97.4495 356.486 98.3491 368.836" stroke="#141414" stroke-width="16" stroke-linecap="round" stroke-linejoin="round"/>
<path opacity="0.503384" d="M221.743 29C210.569 52.8618 178.673 85.6585 170.34 101.087" stroke="#141414" stroke-width="12" stroke-linecap="round" stroke-linejoin="round"/>
<path opacity="0.503384" d="M266.293 30.7163C249.693 49.1203 238.579 71.4163 223.457 90.7884" stroke="#141414" stroke-width="12" stroke-linecap="round" stroke-linejoin="round"/>
<path opacity="0.503384" d="M288.568 53.0288C278.157 68.3787 269.601 85.3052 257.726 99.3702" stroke="#141414" stroke-width="12" stroke-linecap="round" stroke-linejoin="round"/>
<path opacity="0.503384" d="M322.837 71.9087C309.43 89.9944 298.601 110.084 283.428 126.832" stroke="#141414" stroke-width="12" stroke-linecap="round" stroke-linejoin="round"/>
<path opacity="0.503384" d="M338.258 106.236C328.359 124.975 314.476 140.797 307.416 161.159" stroke="#141414" stroke-width="12" stroke-linecap="round" stroke-linejoin="round"/>
<path d="M199.468 251.829C206.808 251.521 210.477 250.443 210.477 248.597C210.477 246.75 209.481 242.777 207.488 236.678" stroke="#141414" stroke-width="16" stroke-linecap="round" stroke-linejoin="round"/>
</svg>
