<svg width="400" height="400" viewBox="0 0 400 400" fill="none" xmlns="http://www.w3.org/2000/svg">
<path d="M113.522 72.3094C126.092 62.4134 147.796 57.5003 164.308 63.8358C217.616 84.2877 188.464 153.111 135.04 146.278C99.0308 141.674 101.014 78.431 129.017 67.6868" stroke="#141414" stroke-width="16" stroke-linecap="round" stroke-linejoin="round"/>
<path d="M102 132L134.874 252.494L141.641 321.831" stroke="#808080" stroke-width="16" stroke-linecap="round" stroke-linejoin="round"/>
<path d="M136 172L196.321 215C205.002 213.176 204.317 212.264 207.412 212.264C210.507 212.264 212.37 213.176 213 215" stroke="#141414" stroke-width="16" stroke-linecap="round" stroke-linejoin="round"/>
<path d="M130.921 220.595C152.726 220.595 166.817 220.595 173.191 220.595C182.754 220.595 213.776 220.595 220.569 220.595C227.362 220.595 233.348 221.559 233.348 226.024C233.348 229.001 233.348 250.753 233.348 318" stroke="#808080" stroke-width="16" stroke-linecap="round" stroke-linejoin="round"/>
<path d="M135.685 256.921C175.03 256.921 198.045 256.921 204.729 256.921C211.413 256.921 222.541 256.921 238.112 256.921" stroke="#808080" stroke-width="16" stroke-linecap="round" stroke-linejoin="round"/>
<path d="M306 315C271.698 331.408 234.664 339.403 194.899 338.984C155.134 338.566 121.501 330.571 94 315" stroke="#808080" stroke-width="16" stroke-linecap="round" stroke-linejoin="round"/>
<path d="M242 260C263.303 310.083 266.976 322 271.003 322C275.031 322 279.696 319.302 285 313.905" stroke="#141414" stroke-width="16" stroke-linecap="round" stroke-linejoin="round"/>
</svg>
