<svg width="400" height="400" viewBox="0 0 400 400" fill="none" xmlns="http://www.w3.org/2000/svg">
<path d="M231.365 91.6232C252.923 46.6323 314.787 93.0608 294.043 127.319C274.02 160.385 229.522 144.652 224.798 112.318" stroke="#141414" stroke-width="16" stroke-linecap="round" stroke-linejoin="round"/>
<path d="M143.75 214.793C160.979 211.115 163.871 184.766 175.572 177.102C177.235 176.014 228.259 166.297 229.425 166.678C270.525 180.102 225.656 246.65 298.978 214.793" stroke="#141414" stroke-width="16" stroke-linecap="round" stroke-linejoin="round"/>
<path d="M229.346 168.619C206.144 189.331 178.775 282.734 174.523 286.658C161.622 291.004 125.224 295.734 107.884 306.927L100.353 316.667" stroke="#141414" stroke-width="16" stroke-linecap="round" stroke-linejoin="round"/>
<path d="M200.5 245C202.327 245.95 222.795 258.822 232.913 281.662C242.837 304.063 244.612 336.667 250.574 336.667" stroke="#141414" stroke-width="16" stroke-linecap="round" stroke-linejoin="round"/>
</svg>
