<svg width="400" height="400" viewBox="0 0 400 400" fill="none" xmlns="http://www.w3.org/2000/svg">
<path d="M194.703 61.9602C220.81 24.4863 268.427 84.8251 234.967 109.523C208.966 128.717 178.44 98.8004 190.648 72.77" stroke="#141414" stroke-width="16" stroke-linecap="round" stroke-linejoin="round"/>
<path d="M216.82 144.922L220.083 201.078L216.82 205.238L212.484 202.464V144.922" stroke="#808080" stroke-width="12" stroke-linecap="round" stroke-linejoin="round"/>
<path d="M191.391 138.206C203.985 140.67 231.575 130.784 242.019 138.64C254.073 147.706 259.142 237.891 259.36 239.844" stroke="#141414" stroke-width="16" stroke-linecap="round" stroke-linejoin="round"/>
<path d="M187.875 147.266C178.086 172.903 170.927 217.517 177.56 233.984" stroke="#141414" stroke-width="16" stroke-linecap="round" stroke-linejoin="round"/>
<path d="M191.509 144.922C193.477 154.594 194.437 187.631 192.739 233.984" stroke="#141414" stroke-width="16" stroke-linecap="round" stroke-linejoin="round"/>
<path d="M190.905 300.781C191.357 314.368 189.156 336.003 190.905 343.768C192.699 351.727 202.414 350.136 205.453 349.236" stroke="#141414" stroke-width="16" stroke-linecap="round" stroke-linejoin="round"/>
<path d="M238.301 137.891C239.902 150.748 230.641 346.184 232.709 348.384C233.707 349.45 242.292 348.313 244.125 347.922" stroke="#141414" stroke-width="16" stroke-linecap="round" stroke-linejoin="round"/>
<path fill-rule="evenodd" clip-rule="evenodd" d="M152.469 244.171C143.719 245.87 142.575 253.007 142.088 256.769C141.136 264.107 140.211 284.815 142.088 288.266C143.964 291.717 151.591 294.194 162.679 294.194C173.767 294.194 195.907 295.551 202.786 294.194C209.665 292.837 217.009 248.786 209.359 245.767C200.082 243.228 161.218 242.472 152.469 244.171Z" stroke="#141414" stroke-width="16" stroke-linecap="round" stroke-linejoin="round"/>
<path d="M213.065 249.219C215.803 265.998 217.172 276.363 217.172 280.313C217.172 286.239 216.386 293.107 212.051 293.939C210.257 294.283 206.755 294.283 201.547 293.939" stroke="#141414" stroke-width="16" stroke-linecap="round" stroke-linejoin="round"/>
<path d="M191.685 239.863C192.192 236.056 190.701 234.153 187.211 234.153C181.976 234.153 176.674 233.25 174.95 235.625C173.801 237.208 173.227 239.282 173.227 241.847" stroke="#141414" stroke-width="16" stroke-linecap="round" stroke-linejoin="round"/>
</svg>
