<svg width="400" height="400" viewBox="0 0 400 400" fill="none" xmlns="http://www.w3.org/2000/svg">
<path d="M130.495 160.01C121.003 97.6834 171.337 33.5974 241.199 53.7929C248.424 55.8813 272.829 59.2575 272.829 70.632C272.829 71.9631 251.795 66.8217 244.275 76.6771C232.758 91.7679 238.124 125.666 238.124 143.603C238.124 148.843 160.327 150.57 142.356 160.874" stroke="#141414" stroke-width="16" stroke-linecap="round" stroke-linejoin="round"/>
<path opacity="0.504581" d="M152.171 140.221C178.649 126.967 205.69 121.261 234.783 127.584" stroke="#141414" stroke-width="16" stroke-linecap="round" stroke-linejoin="round"/>
<path opacity="0.504976" fill-rule="evenodd" clip-rule="evenodd" d="M239.842 274.274C236.141 299.498 242.463 312.407 223.984 335.193C198.579 366.521 186.49 337.62 174.768 339.521C165.847 340.968 163.263 341.453 151.979 341.453C127.785 341.453 113.982 319.388 115.548 298.058C115.763 295.115 123.332 294.438 121.977 291.799C66.833 184.431 198.89 190.983 234.872 206.657C269.089 224.546 242.45 256.507 239.842 274.274Z" stroke="#141414" stroke-width="16" stroke-linecap="round" stroke-linejoin="round"/>
<path d="M196.738 215.225C188.483 215.225 169.184 215.087 166.375 217.92C156.718 227.657 180.32 279.529 196.738 218.821" stroke="#141414" stroke-width="16" stroke-linecap="round" stroke-linejoin="round"/>
<path d="M276.534 68.6918C299.839 46.3267 291.988 98.8169 277.531 81.0362C274.527 77.3417 276.897 75.5523 278.527 72.6311" stroke="#141414" stroke-width="16" stroke-linecap="round" stroke-linejoin="round"/>
<path d="M160.728 170.657C185.098 180.281 171.335 175.76 154.345 183.701" stroke="#141414" stroke-width="16" stroke-linecap="round" stroke-linejoin="round"/>
<path d="M205.98 167.396C185.239 176.381 187.45 175.337 206.521 182.614" stroke="#141414" stroke-width="16" stroke-linecap="round" stroke-linejoin="round"/>
</svg>
