<svg width="400" height="400" viewBox="0 0 400 400" fill="none" xmlns="http://www.w3.org/2000/svg">
<path d="M167.649 219.213C167.577 219.088 167.506 218.96 167.434 218.833C171.349 225.778 175.247 232.721 178.843 239.763C187.114 255.923 195.52 272.048 203.744 288.224C207.677 295.976 211.218 303.838 214.702 311.706C215.945 314.508 217.159 317.321 218.332 320.14C218.816 319.335 219.299 318.526 219.774 317.718C221.451 314.62 223.139 311.508 224.523 308.329C226.197 304.47 227.86 300.603 229.488 296.727C232.558 289.48 236.233 270.83 239.794 263.71C241.537 260.231 243.099 256.709 244.604 253.161C246.054 249.733 247.291 246.261 248.784 242.84C250.346 239.251 251.888 235.662 253.416 232.064C253.841 231.079 254.483 230.084 254.785 229.073C255.461 226.773 256.695 224.811 258.933 223.109C259.912 222.366 261.057 221.809 262.287 221.434C262.332 221.072 262.413 220.719 262.526 220.376" stroke="#141414" stroke-width="16" stroke-linecap="round" stroke-linejoin="round"/>
<path d="M127.053 363C127.335 360.869 127.688 358.746 128.155 356.648C129.018 352.735 129.927 348.834 130.758 344.915C131.121 342.147 131.384 339.374 131.837 336.617C132.28 333.969 132.934 331.364 133.596 328.757C135.61 320.835 137.752 312.948 139.732 305.017C141.774 296.879 143.736 288.716 146.1 280.639C148.534 272.31 150.967 263.991 153.362 255.664C154.611 251.332 155.847 247 157.083 242.659C158.01 239.389 158.955 236.117 160.101 232.899C160.936 230.553 161.843 228.239 162.886 225.963C163.11 224.295 163.903 222.764 165.091 221.535C165.721 220.523 166.472 219.584 167.434 218.833" stroke="#141414" stroke-width="16" stroke-linecap="round" stroke-linejoin="round"/>
<path opacity="0.503384" d="M258.458 217.534C256.974 216.167 297.899 150.885 299 148.697" stroke="#141414" stroke-width="14" stroke-linecap="round" stroke-linejoin="round"/>
<path d="M216.934 108.434C216.121 110.083 215.359 111.788 214.431 113.368C214.001 114.098 213.564 114.828 213.109 115.539C212.54 116.409 211.944 117.253 211.323 118.087C210.702 118.938 209.974 119.423 209.118 120.124" stroke="#141414" stroke-width="16" stroke-linecap="round" stroke-linejoin="round"/>
<path d="M257.316 214.776C260.599 220.456 265.787 220.171 272.879 213.92C283.518 204.544 284.212 190.986 278.56 185.064" stroke="#141414" stroke-width="16" stroke-linecap="round" stroke-linejoin="round"/>
<path d="M116.32 68.4826C134.642 47.5927 157.955 32.2157 189.91 38.3704C279.963 55.7112 262.641 178.117 173.559 183.63C101.427 188.097 74.4411 80.0795 132.672 64.94" stroke="#141414" stroke-width="16" stroke-linecap="round" stroke-linejoin="round"/>
</svg>
