<svg width="400" height="400" viewBox="0 0 400 400" fill="none" xmlns="http://www.w3.org/2000/svg">
<path d="M133.401 175.556C162.585 159.866 211.524 147.532 218.707 148.728L194.762 215.225C187.029 228.673 166.776 260.433 162.585 262.226C157.347 264.468 107.211 219.707 102.721 219.707C99.1293 219.707 92.7438 228.673 90 233.156M310 193.557C304.682 184.454 283.551 173.426 262.857 164.577C255.125 184.946 232.925 230.168 232.925 233.156C232.925 236.892 286.054 249.594 288.299 257.812C290.544 266.031 274.082 340 277.823 340C280.816 340 293.039 337.011 298.775 335.517" stroke="#141414" stroke-width="16" stroke-linecap="round" stroke-linejoin="round"/>
<path d="M238.824 75.0932C287.194 24.5853 328.006 107.672 278.589 123.541C239.53 136.085 211.497 102.547 242.335 72.8382" stroke="#141414" stroke-width="16" stroke-linecap="round" stroke-linejoin="round"/>
<path d="M190.455 294.359C232.875 249.293 268.666 323.429 225.328 337.588C191.074 348.781 166.489 318.855 193.534 292.347" stroke="#141414" stroke-width="16" stroke-linecap="round" stroke-linejoin="round"/>
</svg>
