<svg width="400" height="400" viewBox="0 0 400 400" fill="none" xmlns="http://www.w3.org/2000/svg">
<path d="M70.2552 281.074C69.9526 284.241 66.8584 304.605 71.8701 309.293C136 317.5 315.5 309.293 360.829 309.293C364.486 305.447 362.87 292.329 362.554 288.48C357.693 229.696 362.554 137.376 361.023 95.1291C357.237 84.9174 347.197 85.0073 343.253 85.2688C330.357 86.1349 317.426 85.7399 304.513 85.9568C295.962 86.1002 185.847 87.4686 177.288 87.3581C157.003 87.1033 87.9999 85.2688 76.8701 95.1291C63.61 106.877 70.0207 195.296 70.2552 230.464C70.3122 239.018 51.445 243.284 44.2484 244.879C42.4053 245.292 40.5716 245.731 38.7469 246.218C47.3788 252.874 66.7804 255.369 70.8701 266.341" stroke="#141414" stroke-width="16" stroke-linecap="round" stroke-linejoin="round"/>
</svg>
