<svg width="400" height="400" viewBox="0 0 400 400" fill="none" xmlns="http://www.w3.org/2000/svg">
<path d="M122.554 253.59L96.6058 267.361C97.5349 253.003 97.9995 243.449 97.9995 238.698C97.9995 221.664 96.6058 215.962 96.6058 215.962C80.5951 225.764 63.7064 229.533 44.7308 229.533C42.7939 229.533 70.2749 184.734 70.2749 176.874C70.2749 171.688 24.3547 154.715 28.2325 154.715C32.1103 154.715 85.2549 140.232 85.2549 135.462C85.2549 130.693 54.5641 87.6955 60.2305 87.0535C81.3144 84.6646 100.787 95.8584 122.554 97.0325C122.554 97.0325 132.555 63.3982 138.99 63.3982C143.28 63.3982 155.348 71.2833 175.194 87.0535C179.044 64.9954 188.186 49.9651 192.23 49.0335C198.298 47.636 213.966 90.4811 220.842 90.4811C227.718 90.4811 242.698 63.3982 248.24 63.3982C253.783 63.3982 265.051 105.722 269.859 105.722C273.064 105.722 282.65 94.5441 298.616 72.1876C304.567 109.45 308.809 128.082 311.342 128.082C315.142 128.082 356.731 103.476 356.731 111.032C356.731 118.589 338.011 154.715 338.011 154.715C338.011 154.715 356.888 155.736 365.866 159.947C374.845 164.158 341.005 192.072 341.005 192.072C341.005 192.072 374.736 222.067 371.768 225.579C369.789 227.919 353.055 227.08 321.565 223.061C321.25 252.594 319.468 267.361 316.218 267.361C311.342 267.361 301.161 245.106 298.616 244.54C296.072 243.975 279.139 279.597 275.783 281.561C272.427 283.526 242.996 271.358 239.231 267.361C235.466 263.364 217.231 302.533 217.231 302.533C217.231 302.533 193.963 295.38 176.231 270.533C155.231 318.033 159.731 325.532 96.6058 351.063C118.731 326.032 122.554 313.033 134.894 267.361" stroke="#141414" stroke-width="16" stroke-linecap="round" stroke-linejoin="round"/>
</svg>
