<svg width="400" height="400" viewBox="0 0 400 400" fill="none" xmlns="http://www.w3.org/2000/svg">
<path d="M261.642 168.273C295.607 165.975 344.008 169.214 369.99 195.196C378.49 203.695 372.823 217.149 362.767 220.806C340.378 228.947 292.759 206.663 270.178 199.136C267.349 198.193 253.76 192.572 251.135 195.853C246.436 201.727 256.404 207.926 260.329 209.643C266.834 212.489 273.298 214.13 279.372 218.179C291.539 226.291 337.658 270.712 297.758 270.712C254.141 270.712 257.423 223.558 233.406 215.553C225.876 213.043 228.004 237.222 218.959 257.579C209.914 277.936 164.796 298.314 159.204 287.128C147.866 264.453 204.18 232.773 199.26 215.553C198.68 213.522 196.144 209.714 193.35 210.956C165.389 223.383 141.75 258.127 105.358 247.729C99.7222 246.118 93.2692 243.461 91.5682 237.222C75.4362 178.074 189.273 201.066 194.663 176.81C201.086 147.905 109.364 165.647 127.684 141.35C146.004 117.054 180.126 142.392 202.543 144.634C212.042 145.584 280.375 88.3725 291.848 117.054C297.008 129.953 248.228 138.82 253.105 148.574C255.922 154.206 276.999 145.014 281.998 152.514" stroke="#141414" stroke-width="16" stroke-linecap="round" stroke-linejoin="round"/>
<path d="M107.732 183.392C90.3134 194.63 49.8404 211.333 28.9334 205.061C13.0964 200.31 49.1757 169.702 64.6759 163.692C80.1761 157.682 96.3424 170.116 115.612 163.692" stroke="#141414" stroke-width="16" stroke-linecap="round" stroke-linejoin="round"/>
</svg>
