<svg width="400" height="400" viewBox="0 0 400 400" fill="none" xmlns="http://www.w3.org/2000/svg">
<path d="M162.306 296.703C86.5656 280.061 193.295 178.11 151.811 163.49C116.893 151.185 110.03 193.852 99.0729 193.852C83.8055 193.852 55.2757 90.5537 151.811 91.0015C248.345 91.4492 198.29 154.211 188.99 191.842C181.631 221.62 176.88 251.756 174.735 282.25C191.815 222.181 216.546 192.147 248.927 192.147" stroke="#141414" stroke-width="16" stroke-linecap="round" stroke-linejoin="round"/>
<path d="M248.926 192.147C249.56 176.841 254.388 162.534 255.745 147.824" stroke="#141414" stroke-width="16" stroke-linecap="round" stroke-linejoin="round"/>
<path d="M255.746 147.824C256.481 150.517 262.67 158.969 266.196 160.59C282.182 167.942 320.819 171.131 307.584 194.77C301.809 205.084 284.37 206.921 273.746 206.921" stroke="#141414" stroke-width="16" stroke-linecap="round" stroke-linejoin="round"/>
<path d="M254.095 239.879C278.502 244.461 271.202 293.353 252.195 303.911C245.119 307.842 232.285 309.584 213.695 309.136H276.202" stroke="#141414" stroke-width="16" stroke-linecap="round" stroke-linejoin="round"/>
<path d="M254.609 239.879C272.296 239.879 285.176 237.227 293.25 231.924" stroke="#141414" stroke-width="16" stroke-linecap="round" stroke-linejoin="round"/>
<path d="M293.25 234.15C303.348 288.117 333.29 211.054 305.786 221.557C299.889 223.81 295.965 225.786 293.797 231.86" stroke="#141414" stroke-width="16" stroke-linecap="round" stroke-linejoin="round"/>
<path d="M278.767 184.207C278.738 183.818 278.71 183.429 278.682 183.041" stroke="#141414" stroke-width="12" stroke-linecap="round" stroke-linejoin="round"/>
</svg>
