<svg width="400" height="400" viewBox="0 0 400 400" fill="none" xmlns="http://www.w3.org/2000/svg">
<path d="M168.958 155.927C176.737 130.329 183.098 111.177 188.041 98.4702C195.455 79.4104 212.356 53.1502 212.356 60.1603C212.356 67.1705 239.365 153.837 243.921 155.927C248.477 158.016 327.888 156.593 326.992 160.124C326.097 163.655 327.188 164.541 317.314 170.331C310.732 174.19 287.62 191.086 247.979 221.017C245.644 221.991 245.882 224.949 248.692 229.891C252.907 237.304 265.034 277.871 269.41 290.528C273.786 303.186 282.717 337.149 278.251 340.628C273.786 344.108 252.431 322.129 247.979 317.222C243.527 312.314 212.356 253.79 204.271 253.79C196.186 253.79 178.108 279.57 174.148 284.216C170.187 288.862 128.921 336.672 114.124 338.65C99.3259 340.628 104.105 328.539 114.124 309.534C120.803 296.863 134.107 267.309 154.037 220.87C144.027 216.395 135.15 212.906 127.406 210.401C115.791 206.644 79.1085 194.473 73.9807 192.933C68.8528 191.392 84.9287 184.462 96.8396 177.396C108.751 170.331 135.032 160.124 149.953 160.124" stroke="#141414" stroke-width="16" stroke-linecap="round" stroke-linejoin="round"/>
</svg>
