<svg width="400" height="400" viewBox="0 0 400 400" fill="none" xmlns="http://www.w3.org/2000/svg">
<path d="M261.379 181.763C265.223 194.585 261.011 202.865 251.93 210.685C244.352 217.211 227.312 211.257 219.005 206.448C156.312 170.163 262.712 102.206 272.805 188.119" stroke="#141414" stroke-width="16" stroke-linecap="round" stroke-linejoin="round"/>
<path d="M245.065 56.2674C233.4 49.0105 211.16 49.8486 210.668 67.9246C209.981 93.048 253.423 100.346 250.895 82.347C248.671 66.5302 207.737 64.8803 206.392 86.1018C204.373 117.921 245.672 115.368 240.012 109.614C210.668 101.735 205.716 122.49 229.129 133.916" stroke="#808080" stroke-width="12" stroke-linecap="round" stroke-linejoin="round"/>
<path d="M173.515 187.1C158.292 192.174 145.431 195.237 133.549 204.858C17.0838 299.14 172.706 226.239 185.933 246.076C197.323 263.164 172.922 328.092 167.172 348.215" stroke="#141414" stroke-width="16" stroke-linecap="round" stroke-linejoin="round"/>
<path d="M174.783 189.637C197.666 235.086 233.78 218.159 278.927 218.159" stroke="#141414" stroke-width="16" stroke-linecap="round" stroke-linejoin="round"/>
<path d="M29.645 169.649C38.1194 203.514 54.7917 234.844 64.8544 267.547" stroke="#808080" stroke-width="16" stroke-linecap="round" stroke-linejoin="round"/>
<path d="M68.2773 267.547C96.4002 262.153 126.561 268.77 154.151 263.254" stroke="#808080" stroke-width="16" stroke-linecap="round" stroke-linejoin="round"/>
<path d="M103.741 275.904C105.209 299.672 102.75 323.348 106.278 346.947" stroke="#808080" stroke-width="16" stroke-linecap="round" stroke-linejoin="round"/>
<path d="M63.124 340.655C78.3323 312.44 133.908 316.531 142.127 346.665" stroke="#808080" stroke-width="16" stroke-linecap="round" stroke-linejoin="round"/>
<path d="M213.124 341.872C212.054 310.584 211.586 279.123 214.864 247.994" stroke="#808080" stroke-width="16" stroke-linecap="round" stroke-linejoin="round"/>
<path d="M347.147 242.92C346.008 271.37 347.94 334.103 349.339 341.873" stroke="#808080" stroke-width="16" stroke-linecap="round" stroke-linejoin="round"/>
<path d="M192.544 225.159C248.407 225.159 315.524 225.159 370.152 225.159" stroke="#808080" stroke-width="16" stroke-linecap="round" stroke-linejoin="round"/>
<path d="M326.767 93.2222C320.676 118.595 308.375 156.844 301.864 189.402" stroke="#141414" stroke-width="16" stroke-linecap="round" stroke-linejoin="round"/>
<path d="M317.093 145.086C323.555 168.407 330.646 191.403 338.503 213.97" stroke="#808080" stroke-width="16" stroke-linecap="round" stroke-linejoin="round"/>
<path d="M318.955 220.487C326.688 219.225 332.886 219.551 341.295 219.733" stroke="#141414" stroke-width="16" stroke-linecap="round" stroke-linejoin="round"/>
</svg>
