<svg width="400" height="400" viewBox="0 0 400 400" fill="none" xmlns="http://www.w3.org/2000/svg">
<path d="M148.359 59.1247C158.567 35.1399 208.645 43.0502 196.305 72.6629C186.094 97.1725 149.487 100.171 149.487 64.7662" stroke="#141414" stroke-width="16" stroke-linecap="round" stroke-linejoin="round"/>
<path d="M95.873 49C109.847 72.5921 122.042 93.0768 151.746 106.566" stroke="#141414" stroke-width="16" stroke-linecap="round" stroke-linejoin="round"/>
<path d="M151.736 106.566C156.241 160.388 151.252 226.364 143.28 279.265" stroke="#141414" stroke-width="16" stroke-linecap="round" stroke-linejoin="round"/>
<path d="M186.057 107.436C185.439 129.617 184.365 158.058 184.365 180.203" stroke="#141414" stroke-width="16" stroke-linecap="round" stroke-linejoin="round"/>
<path d="M186.058 178.509C195.675 177.701 207.903 173.176 217.647 175.125C221.282 175.853 234.698 234.824 235.697 242.815" stroke="#141414" stroke-width="16" stroke-linecap="round" stroke-linejoin="round"/>
<path d="M186.058 107.435C213.387 106.326 245.394 84.1311 258.825 61.7446" stroke="#141414" stroke-width="16" stroke-linecap="round" stroke-linejoin="round"/>
<path d="M40 336.785C60.1084 319.257 67.9351 301.735 93.0797 313C94.8504 313.794 95.7336 309.931 97.125 308.471C102.369 302.964 108.091 299.658 114.818 297.145C132.439 290.566 146.42 277.463 162.843 268.265C174.442 261.769 191.488 263.987 204.297 259.204C212.935 255.98 227.034 240.062 236.65 242.215C277.372 251.34 262.006 273.093 283.16 292.048C290.853 298.942 316.252 309.987 326.636 316.964C336.412 323.535 350.563 341.126 360 350.376" stroke="#808080" stroke-width="16" stroke-linecap="round" stroke-linejoin="round"/>
<path d="M142.631 182.412C139.894 182.757 131.689 184.496 129.811 181.755C123.825 173.015 111.116 99.2462 150.053 113.458" stroke="#141414" stroke-width="16" stroke-linecap="round" stroke-linejoin="round"/>
</svg>
