<svg width="400" height="400" viewBox="0 0 400 400" fill="none" xmlns="http://www.w3.org/2000/svg">
<path d="M169.577 182.606C175.485 172.427 184.636 168.234 194.381 167.352C221.576 164.893 257.877 205.592 224.147 228.369C186.897 253.522 142.674 220.259 168.159 187.991" stroke="#141414" stroke-width="16" stroke-linecap="round" stroke-linejoin="round"/>
<path d="M246.047 134.751C254.413 125.339 270.477 105.511 274.75 100.665" stroke="#141414" stroke-width="16" stroke-linecap="round" stroke-linejoin="round"/>
<path d="M184.513 126.116C185.606 112.638 180.602 88.2885 178.762 80.9314" stroke="#141414" stroke-width="16" stroke-linecap="round" stroke-linejoin="round"/>
<path d="M132.755 148.297C121.564 142.059 115.596 129.006 103.18 126.938" stroke="#141414" stroke-width="16" stroke-linecap="round" stroke-linejoin="round"/>
<path d="M107.291 212.378C98.3604 211.829 89.5054 212.32 81.002 214.021" stroke="#141414" stroke-width="16" stroke-linecap="round" stroke-linejoin="round"/>
<path d="M149.19 264.133C140.765 271.698 132.463 280.188 126.188 289.602" stroke="#141414" stroke-width="16" stroke-linecap="round" stroke-linejoin="round"/>
<path d="M207.518 281.386C212.284 292.444 211.626 306.408 211.626 319.11" stroke="#141414" stroke-width="16" stroke-linecap="round" stroke-linejoin="round"/>
<path d="M265.846 256.74C270.734 263.03 281.972 277.145 283.92 279.743" stroke="#141414" stroke-width="16" stroke-linecap="round" stroke-linejoin="round"/>
<path d="M289.67 186.089C296.082 186.397 324.139 171.961 316.78 181.159" stroke="#141414" stroke-width="16" stroke-linecap="round" stroke-linejoin="round"/>
</svg>
