<svg width="400" height="400" viewBox="0 0 400 400" fill="none" xmlns="http://www.w3.org/2000/svg">
<path d="M187.543 85.4788C211.036 51.704 253.885 106.087 223.775 128.347C200.378 145.646 172.908 118.682 183.893 95.2216" stroke="#141414" stroke-width="16" stroke-linecap="round" stroke-linejoin="round"/>
<path d="M180.181 151.977C180.206 153.121 180.457 154.29 180.682 155.393C180.884 156.368 184.599 172.465 185.701 175.376C186.579 177.694 195.48 217.874 195.764 219.783C195.78 220.047 195.787 220.307 195.786 220.568" stroke="#141414" stroke-width="16" stroke-linecap="round" stroke-linejoin="round"/>
<path d="M195.999 221.624C195.534 223.206 188.659 257.799 187.363 264.464C186.683 267.974 186.005 271.484 185.333 274.995C185.062 276.415 184.819 277.846 184.506 279.258C184.023 281.429 183.54 283.604 183.057 285.776C182.715 287.322 182.239 288.832 181.811 290.351C181.389 291.854 180.956 293.341 180.48 294.824C179.427 298.102 178.319 301.37 177.339 304.673C176.803 306.484 176.239 308.29 175.747 310.115C175.212 312.102 174.689 314.088 174.19 316.084C173.44 319.077 172.747 322.093 171.941 325.071C171.702 325.119 171.462 325.165 171.222 325.219C170.703 325.336 170.187 325.453 169.669 325.57C168.864 325.753 163.741 325.605 163.308 326.187" stroke="#141414" stroke-width="16" stroke-linecap="round" stroke-linejoin="round"/>
<path d="M228.688 155.083C228.522 155.535 228.438 156.019 228.437 156.542C228.088 160.921 227.72 165.294 227.358 169.671C226.768 176.271 226.184 182.871 225.533 189.459C225.217 192.671 224.909 195.88 224.531 199.074C224.272 201.286 224.012 203.496 223.751 205.706C223.59 207.079 223.341 208.431 223.127 209.785C222.899 211.224 222.705 212.687 222.424 214.106C222.087 215.795 221.776 217.501 221.406 219.172C221.07 220.695 220.73 222.216 220.387 223.736C220.342 223.697 220.297 223.66 220.251 223.621" stroke="#141414" stroke-width="16" stroke-linecap="round" stroke-linejoin="round"/>
<path d="M222.361 224.792C222.55 227.469 225.283 243.637 225.977 247.125C227.548 255.017 229.11 262.909 230.658 270.807C231.94 277.332 233.222 283.865 234.671 290.343C235.543 294.236 236.42 298.124 237.334 302.007C238.127 305.373 238.92 308.744 239.616 312.142C239.671 312.409 243.642 326.212 243.864 326.533C245.598 328.875 249.779 328.276 250.105 328.102C250.347 327.983 250.592 327.861 250.834 327.742" stroke="#141414" stroke-width="16" stroke-linecap="round" stroke-linejoin="round"/>
<path d="M179.961 149.517C179.271 150.363 178.577 151.202 177.92 152.09C177.243 153.006 153.091 173.358 152.776 173.699C152.075 174.457 151.514 175.365 150.981 176.299C150.43 177.265 150.058 178.42 149.793 179.544C149.531 180.66 149.564 181.849 149.702 182.981C149.99 185.337 191.821 212.334 193.084 213.159C193.702 213.563 194.32 213.969 194.942 214.367C194.905 214.455 194.868 214.544 194.833 214.633C194.175 216.286 193.777 218.145 193.675 219.982C193.58 221.683 193.83 223.336 194.581 224.792" stroke="#141414" stroke-width="16" stroke-linecap="round" stroke-linejoin="round"/>
<path d="M229.158 154C229.778 155.34 250.655 176.076 252.088 179.063C252.414 179.742 252.722 180.431 253.017 181.13C253.209 181.59 253.381 182.085 253.542 182.56C253.599 182.725 253.659 182.888 253.71 183.055C253.851 183.518 254.031 184.167 253.992 184.652C253.962 185.047 253.921 185.44 253.869 185.831C253.743 186.209 253.607 186.579 253.46 186.947C253.207 187.39 252.956 187.858 252.632 188.236C251.958 189.015 251.159 189.681 250.362 190.268C249.427 190.954 248.477 191.614 247.546 192.307C246.311 193.23 230.111 207.866 229.158 208.517C228.216 209.163 227.206 209.643 226.191 210.104C226.441 210.509 226.659 210.94 226.834 211.395C227.058 211.972 227.257 212.542 227.401 213.151C227.479 213.668 227.527 214.188 227.546 214.71C227.493 215.419 227.412 216.103 227.255 216.79C226.809 218.74 225.05 219.919 223.416 219.381" stroke="#141414" stroke-width="16" stroke-linecap="round" stroke-linejoin="round"/>
<path opacity="0.503384" d="M182 148.524C126.645 143.651 172.471 219.348 146 257.5L167.176 256.371" stroke="#141414" stroke-width="14" stroke-linecap="round" stroke-linejoin="round"/>
</svg>
