<svg width="400" height="400" viewBox="0 0 400 400" fill="none" xmlns="http://www.w3.org/2000/svg">
<path d="M249.665 170.842C297.615 123.988 352.792 213.071 294.727 238.282C249.285 258.008 221.732 208.484 249.665 179.379" stroke="#141414" stroke-width="16" stroke-linecap="round" stroke-linejoin="round"/>
<path d="M249.771 277.143C238.403 267.635 145.413 144.758 140.782 138.725C136.152 132.693 277.22 119.788 273.611 123.663" stroke="#141414" stroke-width="16" stroke-linecap="round" stroke-linejoin="round"/>
<path d="M186.611 215.238C157.855 232.012 141.448 254.039 112.5 270.286" stroke="#141414" stroke-width="16" stroke-linecap="round" stroke-linejoin="round"/>
<path opacity="0.503384" d="M51.2778 302.453C62.1132 300.755 83.1233 287.571 95.509 288.166C111.742 288.948 106.983 301.279 131.359 302.453C160.347 303.846 188.389 286.262 214.576 290.137C238.253 293.641 234.344 304.304 263.224 302.453C289.611 300.76 319.98 281.433 347.722 292.107" stroke="#141414" stroke-width="16" stroke-linecap="round" stroke-linejoin="round"/>
</svg>
