<svg width="400" height="400" viewBox="0 0 400 400" fill="none" xmlns="http://www.w3.org/2000/svg">
<path d="M79.261 353.613C68.9515 341.593 68.2915 335.583 77.2811 335.583C90.7654 335.583 124.681 332.455 126.907 322.56C129.134 312.665 126.99 301.388 114.953 297.728C102.917 294.068 97.7712 296.205 95.7654 299.587C93.7597 302.969 95.5598 310.404 113.907 310.404C132.255 310.404 146.29 300.545 146.29 293.325C146.29 286.105 136.526 265.853 117.48 261.103C98.4337 256.353 91.9035 261.103 91.9035 268.772C91.9035 276.441 136.616 288.662 152.529 283.695C168.441 278.728 205.524 259.728 175.907 230.728C146.29 201.728 117.712 202.445 113.907 216.587C110.103 230.728 157.737 255.608 189.421 255.608C221.105 255.608 247.907 252.49 251.907 236.609C255.907 220.728 240.872 187.31 208.39 169.019C175.907 150.728 114.245 125.754 110.103 155.193C105.961 184.632 148.771 210.606 175.907 213.728C203.044 216.85 247.798 220.728 273.907 190.263C286.742 173.819 279.5 150.5 243.907 126.603C196.172 98.4009 143.707 76.0035 128.807 104.539C113.907 133.074 174.224 176.193 189.421 183.228C204.618 190.263 278 225.5 318.554 196.728C347 174.5 312.666 117.513 273.907 91.0191C235.148 64.5254 155.91 29.8526 131.909 56.6829C123.908 64.8914 123.908 72.5068 131.909 79.5289" stroke="#141414" stroke-width="16" stroke-linecap="round" stroke-linejoin="round"/>
</svg>
