<svg width="400" height="400" viewBox="0 0 400 400" fill="none" xmlns="http://www.w3.org/2000/svg">
<path d="M226.455 80.7928C219.148 69.266 208.972 62.6438 193.703 70.2678C147.201 106.127 234.642 150.212 226.455 94.6272" stroke="#141414" stroke-width="16" stroke-linecap="round" stroke-linejoin="round"/>
<path d="M183.295 138.149C146.897 158.286 179.107 241.007 168.252 253.199C157.398 265.392 124.736 233.213 108.84 255.499" stroke="#141414" stroke-width="16" stroke-linecap="round" stroke-linejoin="round"/>
<path d="M173.989 197.166C197.429 192.482 215.889 199.046 219.731 203.477C234.114 220.064 223.551 272.434 242.239 258.324" stroke="#141414" stroke-width="16" stroke-linecap="round" stroke-linejoin="round"/>
<path d="M180.193 136.598C142.015 138.139 132.711 132.611 135.741 176.935" stroke="#141414" stroke-width="16" stroke-linecap="round" stroke-linejoin="round"/>
<path d="M183.295 138.149C195.945 177.638 201.291 183.782 228.278 151.754" stroke="#141414" stroke-width="16" stroke-linecap="round" stroke-linejoin="round"/>
<path d="M289.846 144.752C295.954 188.771 300.368 233.618 307.248 277.118" stroke="#141414" stroke-width="16" stroke-linecap="round" stroke-linejoin="round"/>
<path opacity="0.497721" d="M294.619 273.893C269.817 286.393 52.2965 313.952 66.0325 341.601C72.4029 354.422 131.657 344.383 192.666 332.723C267.863 318.351 343.662 298.042 301.5 273.122" stroke="#141414" stroke-width="16" stroke-linecap="round" stroke-linejoin="round"/>
<path d="M295.045 115.882C290.32 136.4 282.84 156.717 274.881 176.387" stroke="#141414" stroke-width="16" stroke-linecap="round" stroke-linejoin="round"/>
</svg>
