<svg width="400" height="400" viewBox="0 0 400 400" fill="none" xmlns="http://www.w3.org/2000/svg">
<path d="M199.815 223.537C199.522 251.188 198.421 302.401 199.815 319.222" stroke="#141414" stroke-width="16" stroke-linecap="round" stroke-linejoin="round"/>
<path d="M203 249.357C220.675 237.499 232.988 219.34 249.347 206" stroke="#141414" stroke-width="16" stroke-linecap="round" stroke-linejoin="round"/>
<path d="M196 236C184.45 225.015 172.036 220.18 160 214" stroke="#141414" stroke-width="16" stroke-linecap="round" stroke-linejoin="round"/>
<path d="M147.142 276.472C120.241 307.281 112.618 256.038 105.703 256.038C95.0877 256.038 68.3237 302.752 51.457 226.527" stroke="#141414" stroke-width="16" stroke-linecap="round" stroke-linejoin="round"/>
<path d="M49.4996 224.121C18.9858 182.421 71.7425 165.692 71.7425 165.507C71.7425 163.59 63.001 160.253 62.1028 156.718C55.0567 128.87 88.9038 98.1656 114.754 112.759" stroke="#141414" stroke-width="16" stroke-linecap="round" stroke-linejoin="round"/>
<path d="M151 95.4227C162.928 71.5188 192.62 98.5836 193.319 98.3867C205.6 94.9471 271.15 48.7054 252.261 122.862" stroke="#141414" stroke-width="16" stroke-linecap="round" stroke-linejoin="round"/>
<path d="M251.793 123.855C278.785 90.7949 349.27 129.673 335.166 169.471C331.863 178.782 318.294 182.134 316.387 185.927C429 229.5 289 319.5 260.808 247.993" stroke="#141414" stroke-width="16" stroke-linecap="round" stroke-linejoin="round"/>
</svg>
