<svg width="400" height="400" viewBox="0 0 400 400" fill="none" xmlns="http://www.w3.org/2000/svg">
<path d="M88 320.449C109.046 293.403 132.69 252.231 148.633 221.834C168.049 184.811 168.664 189.206 173.153 146.754C173.303 145.344 177.474 117.676 179.911 118.483C187.799 121.099 193.655 136.793 197.479 165.566C276.481 193.769 314.618 214.657 311.889 228.23C308.988 242.663 291.294 285.187 268.583 262.095C263.463 256.889 266.897 242.934 262 242.934C257.103 242.934 227.538 232.15 226.678 233.009C225.657 234.021 233.68 306.714 229.616 335.009" stroke="#141414" stroke-width="16" stroke-linecap="round" stroke-linejoin="round"/>
<path d="M196.251 148.774C226.811 74.1665 211.393 159.843 208.412 168.01" stroke="#141414" stroke-width="16" stroke-linecap="round" stroke-linejoin="round"/>
<path d="M217.761 168.01C238.419 140.206 294.575 63.0096 302.996 64.0096C303.455 64.0641 261.721 141.747 240.324 180.01" stroke="#141414" stroke-width="16" stroke-linecap="round" stroke-linejoin="round"/>
<path d="M151 205.703C136.236 205.515 121.364 205.011 107 208.455" stroke="#141414" stroke-width="16" stroke-linecap="round" stroke-linejoin="round"/>
<path d="M138 236.01C125.859 236.904 111.562 237.001 101 241.01" stroke="#141414" stroke-width="16" stroke-linecap="round" stroke-linejoin="round"/>
<path d="M123 268.16C113.959 266.823 92.5038 274.847 91 275.01" stroke="#141414" stroke-width="16" stroke-linecap="round" stroke-linejoin="round"/>
<path d="M211 197.73C211 196.586 211 195.438 211 194.29" stroke="#141414" stroke-width="16" stroke-linecap="round" stroke-linejoin="round"/>
</svg>
