<svg width="400" height="400" viewBox="0 0 400 400" fill="none" xmlns="http://www.w3.org/2000/svg">
<path d="M47.9894 235.921C52.1231 192 44.906 153.586 47.6337 112.062C47.7327 110.556 47.8239 109.05 47.857 107.542C47.8708 106.833 47.9104 106.123 47.9506 105.414C47.9692 105.058 47.9746 104.701 47.9914 104.343C49.3658 104.275 50.7498 104.254 52.1235 104.174C75.4959 102.822 99.2758 104.537 122.68 104.173C125.613 104.128 338.617 104.127 341.55 104.176C344.328 104.221 347.119 104.278 349.896 104.146C356.523 142.5 348.204 186 352.294 232.219C352.429 233.259 352.578 234.693 352.506 235.739C351.011 235.843 349.611 235.864 348.204 235.921C347.365 235.955 201.93 236.904 146.245 237.122C142.694 237.136 138.361 253.068 138.361 254.599C138.361 256.13 158.728 255.452 155.318 255.465C151.6 255.48 125.352 296.318 122.978 295.998C117.164 295.215 125.453 270.419 128.482 265.491C130.161 262.758 113.47 267.178 112.735 265.491C111.56 262.795 127.768 239.273 120.337 237.582C102.482 233.519 83.3776 236.666 65.2571 237.059" stroke="#141414" stroke-width="16" stroke-linecap="round" stroke-linejoin="round"/>
</svg>
