<svg width="400" height="400" viewBox="0 0 400 400" fill="none" xmlns="http://www.w3.org/2000/svg">
<path d="M104.204 26.4246C130.75 10.7722 161.539 15.6846 189.042 28.0023C220.184 41.9497 248.266 69.6239 248.266 105.283C248.266 275.141 24.4518 242.598 44.3833 96.1774C47.2412 75.1787 66.6821 50.6552 81.9466 35.6161" stroke="#141414" stroke-width="16" stroke-linecap="round" stroke-linejoin="round"/>
<path d="M189.046 56.3905C201.616 35.9239 218.888 19.6321 241.868 15.3837C357.564 -5.99829 398.788 123.489 325.105 185.717C238.794 258.61 124.333 177.605 176.24 75.3163" stroke="#141414" stroke-width="16" stroke-linecap="round" stroke-linejoin="round"/>
<path d="M115.807 216.108C137.803 60.2161 335.31 121.884 288.28 263.939C260.694 347.264 125.772 341.131 119.001 240.795" stroke="#141414" stroke-width="16" stroke-linecap="round" stroke-linejoin="round"/>
<path d="M215.898 150.049C209.05 155.392 203.394 161.911 197.308 167.996" stroke="#141414" stroke-width="16" stroke-linecap="round" stroke-linejoin="round"/>
<path d="M192.649 153.041C201.248 156.696 209.409 161.57 218.076 165.219" stroke="#141414" stroke-width="16" stroke-linecap="round" stroke-linejoin="round"/>
<path d="M204.401 144.492C204.188 154.041 204.659 167.662 205.683 174.834" stroke="#141414" stroke-width="16" stroke-linecap="round" stroke-linejoin="round"/>
<path d="M72.2528 358.47C61.0988 365.138 49.4803 372.058 37.5903 377.011" stroke="#141414" stroke-width="16" stroke-linecap="round" stroke-linejoin="round"/>
<path d="M37.9985 358.873C49.0927 364.077 65.1269 375.801 74.274 375.801" stroke="#141414" stroke-width="16" stroke-linecap="round" stroke-linejoin="round"/>
<path d="M57.3415 348.796C55.862 361.337 57.3829 374.172 56.1318 386.683" stroke="#141414" stroke-width="16" stroke-linecap="round" stroke-linejoin="round"/>
</svg>
