<svg width="400" height="400" viewBox="0 0 400 400" fill="none" xmlns="http://www.w3.org/2000/svg">
<path d="M104.59 160.669C165.009 143.465 228.446 153.13 289.757 147.882" stroke="#141414" stroke-width="16" stroke-linecap="round" stroke-linejoin="round"/>
<path d="M85.1254 138.827C132.073 31.3797 104.589 293.169 81.1348 156.122" stroke="#141414" stroke-width="16" stroke-linecap="round" stroke-linejoin="round"/>
<path d="M283.271 141.334C288.81 106.245 302.24 102.816 309.408 113.279C322.354 132.177 324.775 194.491 293.624 183.979C281.336 179.832 280.266 158.197 280.266 148.225" stroke="#141414" stroke-width="16" stroke-linecap="round" stroke-linejoin="round"/>
<path d="M134 155.457C145.447 239.108 164.818 147.842 170 155.457" stroke="#141414" stroke-width="16" stroke-linecap="round" stroke-linejoin="round"/>
<path d="M211 156.916C234.494 179.898 255 228.539 255 150" stroke="#141414" stroke-width="16" stroke-linecap="round" stroke-linejoin="round"/>
<path d="M210.511 162C206.682 186.883 207.007 181.653 207.007 230.887C213.433 237.396 231.075 291.5 231.075 331" stroke="#141414" stroke-width="16" stroke-linecap="round" stroke-linejoin="round"/>
<path d="M147.906 326.843C157.43 295.846 154.121 262.456 178 231.5C176.562 204.471 171.9 164.7 171.5 161.5" stroke="#141414" stroke-width="16" stroke-linecap="round" stroke-linejoin="round"/>
<path d="M143 327C143.822 327 144.647 327 145.469 327" stroke="#141414" stroke-width="16" stroke-linecap="round" stroke-linejoin="round"/>
<path d="M232 331C235.086 331.016 238.168 331.032 241.255 331.047" stroke="#141414" stroke-width="16" stroke-linecap="round" stroke-linejoin="round"/>
<path d="M165.964 94.2151C175.124 82.9807 189.445 78.7596 203.674 84.3438C236.713 97.3159 217.677 143.596 186.838 138.629C159.712 134.258 148.034 80.6915 181.451 78" stroke="#141414" stroke-width="16" stroke-linecap="round" stroke-linejoin="round"/>
</svg>
