<svg width="400" height="400" viewBox="0 0 400 400" fill="none" xmlns="http://www.w3.org/2000/svg">
<path d="M204.853 139.779C209.382 125.77 223.011 118.138 236.982 120.238C260.876 123.828 261.731 150.54 248.623 164.407C233.276 180.643 201.526 181.335 206.401 137.745" stroke="#141414" stroke-width="16" stroke-linecap="round" stroke-linejoin="round"/>
<path d="M148.681 111.669C148.549 147.218 176.281 168.119 200.972 187.112" stroke="#141414" stroke-width="16" stroke-linecap="round" stroke-linejoin="round"/>
<path d="M203.764 189.904C211.262 255.173 205.761 320.73 205.761 385.896" stroke="#141414" stroke-width="16" stroke-linecap="round" stroke-linejoin="round"/>
<path d="M252.105 189.53C242.12 253.946 242.599 321.573 250.909 386.001" stroke="#141414" stroke-width="16" stroke-linecap="round" stroke-linejoin="round"/>
<path d="M252.104 189.53C265.933 220.781 272 254.383 272 289.009" stroke="#141414" stroke-width="16" stroke-linecap="round" stroke-linejoin="round"/>
<path d="M160.26 50.1987C150.382 66.2572 143.948 84.0291 141.898 102.488" stroke="#141414" stroke-width="16" stroke-linecap="round" stroke-linejoin="round"/>
<path d="M165.04 49.7971C177.022 52.8934 188.062 59.8918 196.175 69.3572" stroke="#141414" stroke-width="16" stroke-linecap="round" stroke-linejoin="round"/>
<path d="M199.381 68.1589C189.483 87.4729 175.911 105.521 155.073 112.467" stroke="#141414" stroke-width="16" stroke-linecap="round" stroke-linejoin="round"/>
<path d="M146.289 111.269C144.34 117.444 140.92 122.761 137.508 128.036" stroke="#141414" stroke-width="16" stroke-linecap="round" stroke-linejoin="round"/>
<path d="M127.93 125.638C133.655 127.864 138.965 131.115 144.695 133.621" stroke="#141414" stroke-width="16" stroke-linecap="round" stroke-linejoin="round"/>
<path d="M143.083 86.5208C136.901 72.0117 129.146 33.7719 155.856 49.798" stroke="#141414" stroke-width="16" stroke-linecap="round" stroke-linejoin="round"/>
<path d="M200.172 74.9458C221.319 88.8754 191.557 104.083 176.621 104.083" stroke="#141414" stroke-width="16" stroke-linecap="round" stroke-linejoin="round"/>
<path d="M215.33 13.8738C216.778 23.4362 207.287 26.3958 203.355 28.6441" stroke="#808080" stroke-width="16" stroke-linecap="round" stroke-linejoin="round"/>
<path d="M214.945 13.4753C214.651 24.7364 221.319 23.1968 223.726 24.2513" stroke="#808080" stroke-width="16" stroke-linecap="round" stroke-linejoin="round"/>
<path d="M206.56 27.8445C215.314 25.9295 214.869 30.9682 216.14 39.021" stroke="#808080" stroke-width="16" stroke-linecap="round" stroke-linejoin="round"/>
<path d="M221.328 25.4497C217.088 28.4241 217.051 33.893 216.141 38.2228" stroke="#808080" stroke-width="16" stroke-linecap="round" stroke-linejoin="round"/>
</svg>
