<svg width="400" height="400" viewBox="0 0 400 400" fill="none" xmlns="http://www.w3.org/2000/svg">
<path d="M135.545 159.971C156.836 159.648 177.864 158.212 199.182 158.212" stroke="#141414" stroke-width="16" stroke-linecap="round" stroke-linejoin="round"/>
<path d="M193.5 152.286C188.993 130.076 186.757 107.405 180.332 85.447C179.944 84.1107 167.926 46.8312 164.129 50.2174C159.143 54.6635 146.909 141.379 146.909 154.545" stroke="#141414" stroke-width="16" stroke-linecap="round" stroke-linejoin="round"/>
<path d="M175.24 193.932C128.373 179.069 170.949 258.083 182.704 220.377C185.336 211.94 184.96 201.966 181.305 194.929" stroke="#141414" stroke-width="16" stroke-linecap="round" stroke-linejoin="round"/>
<path d="M146.143 227.509C132.77 240.956 115.601 253.088 94.6364 263.908C95.0678 270.345 96.4949 276.23 98.9179 281.562C102.29 288.98 102.794 303.638 109.527 309.071C114.514 313.095 140.109 256.887 140.836 257.621C152.337 269.221 130.936 318.138 137.3 330.973C139.733 335.889 153.819 335.193 168.971 335.193C184.124 335.193 199.91 333.586 199.423 330.973C191.052 286.108 186.698 268.715 191.052 251.161C195.081 234.897 234.789 235.155 238.31 224.51C240.77 217.068 235.446 202.446 234.773 194.965C234.179 188.378 232.408 183.238 229.459 179.545C216.713 193.351 206.701 203.924 199.423 211.264" stroke="#141414" stroke-width="16" stroke-linecap="round" stroke-linejoin="round"/>
<path d="M242.364 186.184C244.408 184.106 247.635 184.106 250.318 184.425" stroke="#141414" stroke-width="16" stroke-linecap="round" stroke-linejoin="round"/>
<path d="M285.861 139.088C295.218 143.176 300.912 123.745 303.831 115.627C314.647 85.5413 282.099 73.5719 270.46 104.404C248.267 163.2 237.69 227.708 219.636 287.5" stroke="#141414" stroke-width="16" stroke-linecap="round" stroke-linejoin="round"/>
<path d="M154.371 340.909C156.169 349.855 153.077 350 144.636 350" stroke="#141414" stroke-width="16" stroke-linecap="round" stroke-linejoin="round"/>
<path d="M176.628 339.773C175.603 347.877 179.148 349.275 186.682 350" stroke="#141414" stroke-width="16" stroke-linecap="round" stroke-linejoin="round"/>
<path d="M144.636 164.773C145.716 177.029 145.303 190.734 152.591 200" stroke="#141414" stroke-width="16" stroke-linecap="round" stroke-linejoin="round"/>
<path d="M190.074 164.773C190.348 174.28 187.25 192.552 185.545 196.591" stroke="#141414" stroke-width="16" stroke-linecap="round" stroke-linejoin="round"/>
</svg>
