<svg width="400" height="400" viewBox="0 0 400 400" fill="none" xmlns="http://www.w3.org/2000/svg">
<path d="M153.279 73.6768C167.972 61.7093 193.342 55.7677 212.642 63.4294C274.954 88.1626 240.878 171.392 178.432 163.129C136.34 157.562 138.658 81.0799 171.391 68.0865" stroke="#141414" stroke-width="16" stroke-linecap="round" stroke-linejoin="round"/>
<path d="M290.493 333.662C290.133 333.026 289.765 332.388 289.487 331.715C288.785 330.026 288.024 328.349 287.475 326.607C280.845 305.625 271.66 285.703 262.446 265.769C257.999 256.156 254.377 246.162 250.388 236.339C250.112 235.661 249.915 234.956 249.646 234.275C244.246 220.535 247.218 221.819 230.723 222.009C223.025 222.098 215.335 223.068 207.641 223.615C203.613 223.899 199.584 224.21 195.553 224.361C183.071 224.828 170.586 225.215 158.105 225.657C156.64 225.709 155.175 225.883 153.721 226.073" stroke="#141414" stroke-width="14" stroke-linecap="round" stroke-linejoin="round"/>
<path d="M270.955 340C259.935 339.406 117.671 338.511 113.27 338.305C110.281 338.16 108.373 335.746 109.024 333.139C112.313 319.979 114.729 306.592 118.999 293.689C121.546 285.998 135.325 240.714 137.069 232.84" stroke="#141414" stroke-width="14" stroke-linecap="round" stroke-linejoin="round"/>
<path d="M229.148 274.797C230.294 275.024 231.186 277.384 230.472 278.311C228.164 281.309 225.299 282.401 221.907 281.463C220.156 280.976 218.488 280.162 216.718 279.818C215.738 279.626 214.453 279.833 213.606 280.336C212.059 281.247 210.648 282.421 209.339 283.645C206.212 286.577 202.869 286.312 199.256 284.631C194.607 282.472 190.29 279.972 186.824 276.136C184.749 273.837 181.312 273.764 178.922 275.675C177.249 277.016 175.835 278.655 174.282 280.138C171.96 282.357 169.663 284.601 167.242 286.716C166.842 287.067 165.693 287.085 165.215 286.782" stroke="#141414" stroke-width="6" stroke-linecap="round" stroke-linejoin="round"/>
<path d="M147.066 219.614C146.448 216.777 143.799 205.208 142.889 202.471C139.418 192.049 137.308 181.339 135.456 170.537C134.292 163.729 133.289 156.841 130.509 150.42C130.4 150.168 130.036 149.894 129.775 149.878C129.443 149.86 128.979 149.99 128.772 150.232C128.067 151.057 127.289 151.879 126.829 152.844C118.796 169.608 110.818 186.399 102.803 203.168C101.597 205.692 101.807 208.118 103.048 210.51C104.061 212.452 105.045 214.412 106.217 216.254C111.884 225.172 117.598 234.064 123.322 242.949C124.703 245.089 155.588 281.549 157.169 283.539" stroke="#141414" stroke-width="16" stroke-linecap="round" stroke-linejoin="round"/>
<path d="M233.783 215.555C239.37 182.716 255.25 149.876 255.25 149.876" stroke="#141414" stroke-width="16" stroke-linecap="round" stroke-linejoin="round"/>
<path d="M255.25 149.876C257.456 149.811 297.39 194.104 297.39 201.152C297.39 208.201 270.963 254.476 269.805 257.922C268.956 260.456 266.13 270.042 264.171 272.017" stroke="#141414" stroke-width="16" stroke-linecap="round" stroke-linejoin="round"/>
<path d="M153.721 254.732L160.617 291.605" stroke="#141414" stroke-width="16" stroke-linecap="round" stroke-linejoin="round"/>
</svg>
