<svg width="400" height="400" viewBox="0 0 400 400" fill="none" xmlns="http://www.w3.org/2000/svg">
<path d="M106.768 140.662C163.254 -2.90955 355.948 97.9398 290.043 216.125C242.945 300.582 120.63 282.23 109.244 182.805" stroke="#141414" stroke-width="16" stroke-linecap="round" stroke-linejoin="round"/>
<path d="M101.76 158.327C93.9 163.449 93.9 172.515 104.705 182.61" stroke="#141414" stroke-width="16" stroke-linecap="round" stroke-linejoin="round"/>
<path d="M308.92 162.42C317.261 174.257 308.287 183.486 297.575 182.544" stroke="#141414" stroke-width="16" stroke-linecap="round" stroke-linejoin="round"/>
<path d="M219.557 188.006C221.669 182.902 220.402 176.923 220.815 171.537" stroke="#141414" stroke-width="16" stroke-linecap="round" stroke-linejoin="round"/>
<path d="M185.814 186.976C186.532 180.917 186.887 176.297 185.814 170.508" stroke="#141414" stroke-width="16" stroke-linecap="round" stroke-linejoin="round"/>
<path d="M202.417 79.8564C198.143 97.6747 218.275 118.954 227.685 118.954" stroke="#141414" stroke-width="16" stroke-linecap="round" stroke-linejoin="round"/>
<path d="M172.259 78.0183C170.85 87.1945 182.575 115.881 190.31 110.482" stroke="#141414" stroke-width="16" stroke-linecap="round" stroke-linejoin="round"/>
<path d="M150.086 95.2957C150.904 104.575 152.805 114.422 161.582 115.881" stroke="#141414" stroke-width="16" stroke-linecap="round" stroke-linejoin="round"/>
<path d="M216.674 229.148C202.86 236.591 193.159 240.19 188.217 225.178" stroke="#141414" stroke-width="16" stroke-linecap="round" stroke-linejoin="round"/>
<path d="M71 344C71.0001 325 95 270 123 265M280 265C304.894 265 329 311 329 344" stroke="#141414" stroke-width="16" stroke-linecap="round" stroke-linejoin="round"/>
</svg>
