<svg width="969" height="972" viewBox="0 0 969 972" fill="none" xmlns="http://www.w3.org/2000/svg">
<path d="M78.9858 680.655C86.2526 680.655 95.9789 679.879 102.484 683.428C107.995 686.433 115.019 686.902 120.874 689.193C126.379 691.347 131.97 691.98 137.586 693.644C140.266 694.438 143.707 694.53 146.489 694.958C150.161 695.523 153.619 696.647 157.289 697.22C166.825 698.71 176.279 701.114 185.896 702.183C196.376 703.347 206.844 704.31 217.276 705.758C221.462 706.34 225.475 707.657 229.682 708.094C232.788 708.416 235.562 709.128 238.585 709.809C241.187 710.394 243.864 710.006 246.466 710.575C252.234 711.836 257.962 711.524 263.871 711.524C266.125 711.524 273.642 712.855 274.745 710.465C278.209 702.96 282.01 692.493 279.634 683.938C278.451 679.678 279.041 674.944 276.97 670.803C273.986 664.833 266.782 660.605 260.916 658.324C255.474 656.208 249.8 654.892 244.168 653.398C238.395 651.867 233.095 650.016 227.091 649.749C220.953 649.476 214.899 648.102 208.774 647.852C201.81 647.567 194.93 647.546 188.012 646.502C181.632 645.539 174.745 644.808 168.309 644.531C162.044 644.262 155.454 642.373 149.262 641.247C135.95 638.827 122.442 636.381 109.198 633.512C103.447 632.266 93.6355 632.19 90.4431 626.141C87.3801 620.338 87.5241 614.296 87.5241 607.751C87.5241 601.438 88.7999 596.555 90.0053 590.529C91.1412 584.849 94.3341 579.516 95.2595 573.963C95.9912 569.573 97.8401 565.496 98.5435 561.119C98.9995 558.282 98.6948 555.226 99.4922 552.435C99.6733 551.801 99.748 547.689 100.149 547.473C101.767 546.601 109.235 549.779 110.84 550.611C119.055 554.87 122.489 562.662 126.931 570.278C128.572 573.091 129.445 576.187 130.617 579.181C132.3 583.484 137.038 586.642 140.724 588.96C149.214 594.301 159.794 594.198 169.33 596.221C180.451 598.58 191.794 600.33 202.973 602.497C208.26 603.522 213.601 604.956 218.735 606.584C223.808 608.192 229.073 608.92 234.133 610.524C245.824 614.231 258.388 615.608 270.476 617.603C274.342 618.241 279.776 620.403 283.246 617.749C288.948 613.389 290.91 606.32 293.39 599.943C295.894 593.503 290.183 584.342 285.801 580.203C274.836 569.847 261.337 565.461 247.123 561.776C234.42 558.483 220.137 559.05 207.059 558.456C196.015 557.954 184.896 554.82 174.877 550.246C165.644 546.031 156.76 541.42 148.277 535.833C140.411 530.653 132.4 524.308 123.647 520.727C120.894 519.601 108.256 514.504 107.921 511.824C107.259 506.53 107.904 501.198 110.658 496.608C114.986 489.395 121.117 486.011 129.412 485.078C139.769 483.913 147.898 482.918 157.946 486.392C163.382 488.271 168.656 490.738 173.709 493.47C179.276 496.481 185.285 498.781 190.64 502.155C201.094 508.742 211.189 513.657 222.822 517.845C228.524 519.897 233.408 522.892 239.57 523.646C246.132 524.45 251.955 527.156 258.289 528.937C269.119 531.983 279.858 535.002 291.091 536.125C294.71 536.487 300.987 536.867 303.205 533.17C306.74 527.278 305.572 516.374 301.49 511.204C294.246 502.027 285.294 499.494 274.197 496.608C267.59 494.89 261.234 492.348 254.494 491.135C248.791 490.109 243.187 489.715 237.782 487.413C229.334 483.817 220.592 481.631 211.876 478.875C203.737 476.302 195.75 473.339 187.502 471.14C171.557 466.888 156.008 461.324 140.14 456.836C134.969 455.374 129.642 453.795 124.596 451.947C122.672 451.242 119.943 451.115 119.196 448.955C117.93 445.298 123.63 436.965 125.472 433.849C129.413 427.18 135.746 422.832 142.037 418.743C144.378 417.221 148.62 417.911 151.305 417.94C157.729 418.008 163.679 419.532 169.841 421.224C175.636 422.815 181.593 423.504 187.429 424.909C195.248 426.792 202.613 430.559 210.27 433.01C226.9 438.331 243.211 445.045 259.602 451.071C271.581 455.475 285.258 458.992 298.024 459.938C299.392 460.039 303.494 460.671 304.592 459.573C306.472 457.693 307.269 454.003 308.204 451.582C311.066 444.175 304.572 433.469 299.666 428.449C291.034 419.616 278.075 418.032 266.462 415.97C249.852 413.02 234.716 404.653 218.735 399.55C208.115 396.159 197.827 391.757 187.21 388.312C180.908 386.267 174.416 384.135 168.236 381.78C164.97 380.536 160.875 380.003 157.873 378.168C155.898 376.961 156.365 373.576 156.523 371.6C156.809 368.032 160.513 365.039 162.726 362.442C165.584 359.087 168.468 355.975 172.25 353.611C179.369 349.162 187.58 343.066 196.259 343.066C207.072 343.066 216.956 346.396 227.128 349.707C254.629 358.661 281.259 370.767 309.81 376.234C317.275 377.664 327.803 378.067 331.484 369.703C333.235 365.722 332.339 361.954 330.207 358.245C328.833 355.857 327.476 352.231 325.135 350.583C323.312 349.3 321.71 348.84 319.516 348.467C314.162 347.555 308.449 347.311 303.023 346.715C290.641 345.356 276.253 343.587 264.71 338.615C255.789 334.772 248.996 329.037 241.066 323.874C237.274 321.404 233.711 318.296 236.104 313.511C240.488 304.743 249.53 297.844 257.121 291.983C266.117 285.037 275.166 278.185 283.392 270.309C287.389 266.483 292.166 263.833 297.258 262.136C301.757 260.636 302.606 273.349 303.278 276.038C304.388 280.478 303.141 285.344 303.643 289.867C304.298 295.757 309.222 300.932 311.817 305.921C319.522 320.74 331.243 334.604 336.41 350.619C339.218 359.324 342.813 368.062 346.298 376.526C349.614 384.58 352.168 392.994 355.821 400.864C358.333 406.274 362.482 410.818 365.929 415.605C369.674 420.807 373.373 426.011 377.313 431.076C381.279 436.175 387.37 440.129 392.419 444.211C399.219 449.709 406.331 454.703 413.071 460.266C419.304 465.411 425.915 470.508 432.702 474.934C436.669 477.522 440.331 480.591 443.94 483.619C448.576 487.507 454.204 490.074 458.9 493.799C465.403 498.956 472.774 503.045 479.334 508.248C483.705 511.715 489.126 514.433 494.002 517.115C499.131 519.936 503.355 523.755 507.94 527.331C512.859 531.168 518.191 534.012 523.265 537.512C527.464 540.407 531.419 543.736 536.073 545.94C545.175 550.252 553.723 555.89 563.037 559.806C575.12 564.886 586.46 571.688 598.577 576.736C607.666 580.524 617.41 583.814 625.578 589.507C634.423 595.672 645.268 600.82 652.944 608.335C658.742 614.011 666.572 618.498 671.772 624.682C677.162 631.091 682.301 637.585 688.192 643.583C693.506 648.993 698.239 655.125 703.079 660.951C705.288 663.61 706.309 666.684 708.041 669.635C711.464 675.467 713.856 682.51 716.069 688.901C717.781 693.849 718.535 698.354 718.003 703.679C717.725 706.451 714.213 709.383 712.055 710.867C707.726 713.843 702.097 715.801 697.022 717.07C692.461 718.21 687.845 719.285 683.266 720.354C680.583 720.98 677.745 722.294 675.056 722.652C668.013 723.591 666.804 714.198 665.788 709.553C664.026 701.497 664.839 692.833 664.839 684.595C664.839 676.688 663.563 670.639 659.22 663.87C656.947 660.326 653.986 656.193 650.901 653.361C647.931 650.635 645.162 647.134 641.852 644.823C636.275 640.93 632.071 638.62 625.067 638.62C617.733 638.62 610.399 638.62 603.065 638.62C594.661 638.62 586.256 638.62 577.852 638.62C573.023 638.62 568.194 638.62 563.366 638.62C560.97 638.62 553.839 638.173 556.178 638.693C561.899 639.965 567.599 641.61 573.218 643.254C581.282 645.615 590.201 648.599 598.504 649.786C604.103 650.585 609.012 653.492 614.267 655.368C620.7 657.666 603.546 646.888 597.957 642.962C589.025 636.689 580.009 630.19 570.627 624.609C560.108 618.35 548.896 613.118 538.225 607.094C531.82 603.478 525.391 599.816 518.741 596.586C516.514 595.504 514.251 595.475 512.027 594.616C506.246 592.382 500.61 589.917 494.878 587.537C486.288 583.97 479.251 577.885 472.328 571.847C463.961 564.549 456.106 556.832 448.1 549.151C441.826 543.133 436.445 536.22 430.221 530.105C422.483 522.501 413.757 515.896 405.482 508.905C390.863 496.555 376.846 483.193 362.791 470.191C358.59 466.306 354.714 461.02 349.326 458.734C344.658 456.753 343.1 460.383 340.715 463.915C333.088 475.214 336.173 492.512 340.095 504.636C341.521 509.043 343.889 514.057 344.291 518.684C344.66 522.926 343.713 527.116 343.671 531.345C343.498 548.622 339.216 565.397 337.906 582.574C337.319 590.271 338.014 597.455 335.789 604.978C334.196 610.368 332.467 615.703 331.192 621.179C330.258 625.19 328.951 630.821 330.827 634.68C332.532 638.188 336.322 640.271 339.73 641.758C345.578 644.31 356.931 644.641 362.426 640.737C365.763 638.365 367.215 634.907 367.315 630.812C367.539 621.626 367.926 612.048 366.658 602.935C364.682 588.731 366.527 574.078 366.658 559.806C366.709 554.312 366.759 548.291 372.277 545.648C377.2 543.291 380.898 545.438 384.392 548.932C396.65 561.191 400.566 581.124 401.796 597.863C402.896 612.823 402.903 627.335 410.043 641.138C410.778 642.559 415.28 650.821 417.851 648.764C425.002 643.043 430.124 633.853 431.571 624.901C433.315 614.11 431.585 602.945 430.731 592.134C430.342 587.202 437.881 596.359 438.868 597.608C449.297 610.797 449.648 629.594 463.972 639.314C478.544 649.201 494.368 652.582 511.662 653.106C523.937 653.478 538.731 653.089 549.172 660.659C551.995 662.706 558.911 666.608 560.337 669.818C561.52 672.479 554.558 673.174 553.405 673.43C530.95 678.42 506.827 674.351 484.004 675.546C470.178 676.27 455.56 679.057 442.189 682.771C434.959 684.779 447.105 700.417 449.413 702.693C458.16 711.32 458.443 723.335 469 729C474.909 732.171 490.845 728.348 497 731C499.484 732.07 511.151 731.126 511.151 734.511C511.151 738.756 510.302 741.153 507.065 744.217C499.161 751.699 489.051 756.903 479.99 762.899C471.105 768.779 473.431 779.194 479.261 786.689C483.594 792.261 491.937 799.475 492.104 807.195C492.202 811.703 490.29 814.874 489.331 819.091C489.26 819.405 488.411 821.371 489.331 820.696C493.599 817.567 497.885 814.381 501.372 810.37C507.239 803.624 512.067 795.975 514.143 787.2C516.222 778.414 516.341 769.314 516.734 760.345C517.235 748.927 517.63 737.94 516.77 726.52C516.204 718.994 517.174 711.212 516.077 703.752C515.678 701.037 515.092 698.745 515.092 695.98C515.092 688.849 514.959 684.49 521.186 679.961C531.731 672.292 545.126 663.547 558.039 660.769C576.109 656.88 587.863 672.196 604.561 675.4C611.411 676.715 620.032 677.158 626.381 679.998C631.692 682.374 638.295 679.574 643.311 677.881C652.105 674.914 657.612 667.924 664.985 662.921C670.625 659.094 675.801 655.142 681.916 652.084C689.989 648.048 699.116 647.928 707.859 649.421C720.88 651.644 733.972 653.724 746.938 656.317C766.921 660.314 787.632 666.968 808.311 664.563C827.829 662.294 848.552 657.717 864.867 646.465C872.108 641.471 877.479 635.508 882.528 628.44C887.12 622.01 888.817 614.831 891.431 607.605C894.925 597.944 894.373 586.97 896.174 576.882C896.99 572.315 898.964 567.979 899.969 563.455C901.277 557.568 902.435 551.786 903.545 545.867C905.302 536.497 906.504 526.596 905.734 516.969C904.6 502.795 901.312 488.616 899.604 474.46C898.805 467.84 898.126 460.984 896.977 454.428C895.786 447.632 895.172 440.425 893.438 433.776C889.822 419.916 888.262 405.689 882.746 392.325C876.472 377.123 868.316 362.993 857.278 350.729C849.304 341.87 839.945 333.907 830.714 326.355C825.963 322.467 821.164 318.712 816.046 315.335C811.169 312.118 807.056 307.364 801.305 305.63C792.84 303.077 785.343 307.337 777.661 310.081C772.374 311.969 776.186 323.314 777.807 326.428C782.788 336.001 788.003 343.698 795.175 351.751C800.045 357.218 805.806 361.622 811.011 366.711C815.909 371.5 819.36 376.54 823.563 381.817C831.356 391.599 839.669 401.769 845.091 413.124C851.61 426.777 855.156 440.319 858.372 455.085C862.863 475.702 867.411 496.527 865.451 517.808C863.798 535.756 860.423 555.102 852.206 571.336C848.857 577.952 843.594 585.87 838.085 591.003C831.917 596.751 822.711 600.172 815.207 603.811C791.655 615.23 761.427 621.233 738.764 605.343C728.922 598.442 722.505 587.126 717.09 576.59C714.272 571.106 713.942 564.942 718.623 560.171C732.765 545.756 755.501 554.552 772.844 554.552C782.408 554.552 793.358 545.286 798.751 538.095C807.602 526.294 810.169 507.469 810.609 493.142C811.121 476.531 813.328 458.501 807.69 442.569C804.061 432.312 798.959 423.474 793.715 414.036C789.312 406.11 787.305 397.104 782.222 389.479C777.274 382.058 772.237 373.287 765.328 367.44C762.476 365.028 759.024 364.997 755.512 364.412C751.667 363.771 748.805 367.573 747.266 370.797C743.891 377.869 742.997 383.696 742.997 391.413C742.997 408.934 746.664 427.434 751.535 444.211C753.57 451.219 755.476 458.554 755.476 465.885C755.476 472.719 756.603 479.826 754.016 486.392C749.51 497.831 740.021 502.963 729.277 507.555C722.546 510.432 715.805 513.701 708.917 516.166C707.213 516.776 702.85 518.048 700.963 516.969C696.083 514.181 694.242 503.954 692.643 499.309C689.947 491.473 685.256 483.013 686.002 474.424C686.607 467.473 688.043 460.407 691.768 454.428C694.635 449.825 697.844 445.051 699.795 439.979C704.323 428.207 702.24 417.752 698.481 405.899C696.159 398.574 693.567 388.76 695.708 381.16C697.137 376.09 702.115 371.027 705.341 366.93C708.701 362.663 712.469 358.588 717.09 355.691C717.689 355.316 719.865 353.446 720.374 354.743C722.351 359.775 722.556 366.279 723.147 371.6C725.037 388.605 723.544 406.362 723.257 423.45C723.124 431.368 722.474 439.281 722.782 447.203C723.033 453.637 724.177 460.005 724.57 466.433C725.168 476.202 725.849 486.165 730.518 495.003C734.049 501.686 740.626 505.947 746.354 510.62C758.86 520.823 768.117 533.839 780.178 544.408C788.04 551.297 795.6 558.61 802.655 566.337C807.906 572.088 810.97 580.663 812.799 588.121C814.618 595.54 806.029 591.911 801.524 590.492C790.831 587.125 780.364 583.433 769.414 580.896C757.902 578.229 746.153 576.686 734.678 573.854C713.679 568.671 691.633 558.708 675.238 544.225C668.647 538.403 663.303 531.703 657.286 525.361C652.039 519.831 646.573 514.793 641.742 508.832C615.901 476.943 578.677 462.368 542.02 446.182C526.179 439.187 510.288 432.156 494.294 425.53C486.003 422.095 477.29 418.295 469.482 413.853C462.484 409.873 456.633 405.264 450.216 400.499C437.47 391.034 426.729 379.838 415.698 368.462C410.371 362.969 405.205 356.745 401.468 350.072C396.638 341.446 393.442 332.81 389.646 323.728C386.509 316.221 384.648 308.556 382.385 300.777C380.698 294.978 379.201 289.828 379.867 283.664C380.255 280.077 381.95 277.185 385.778 277.424C388.78 277.612 391.227 279.113 393.951 280.234C397.37 281.64 400.796 282.595 403.949 284.612C418.554 293.959 428.033 309.099 437.628 323.034C449.391 340.119 461.978 356.521 476.196 371.673C492.203 388.732 511.774 402.476 531.074 415.532C540.61 421.983 551.274 426.202 561.432 431.514C572.034 437.057 582.588 442.732 593.25 448.152C609.262 456.293 625.632 465.531 643.895 467.053C653.356 467.841 656.092 463.286 656.301 453.99C656.57 442.026 656.323 431.669 649.733 421.224C643.352 411.108 632.279 405.033 621.127 401.52C606.768 396.999 592.956 390.983 578.581 386.56C550.17 377.818 523.082 366.215 497.87 350.218C485.952 342.656 473.359 334.391 462.914 324.895C456.09 318.691 448.232 311.607 443.648 303.513C440.904 298.667 442.297 291.662 443.648 286.583C446.077 277.454 455.161 273.605 463.863 272.9C473.756 272.098 481.834 276.113 490.28 280.781C499.001 285.6 506.169 291.135 512.538 298.806C527.969 317.394 546.056 332.886 566.942 345C587.486 356.916 607.013 370.53 627.767 382.109C637.172 387.355 664.879 399.127 669.656 381.306C671.875 373.028 664.813 363.432 661.19 356.64C656.153 347.195 649.798 341.008 641.122 334.82C631.311 327.823 620.865 322.393 610.107 317.014C596.315 310.118 582.593 303.215 568.438 297.091C556.453 291.907 545.772 284.091 534.796 277.096C526.213 271.626 516.818 265.694 510.057 257.976C506.052 253.405 501.499 247.582 504.073 241.191C507.557 232.541 522.154 233.06 529.322 234.916C544.396 238.817 557.163 252.099 568.949 261.661C581.86 272.137 595.059 282.314 608.429 292.202C621.546 301.904 635.953 310.023 649.77 318.692C659.811 324.993 670.593 330.407 680.967 336.17C688.21 340.194 696.354 346.641 704.465 348.54C710.54 349.961 715.198 346.641 718.951 341.972C728.998 329.474 723.045 314.343 714.755 303.039C708.357 294.315 699.1 288.203 690.126 282.35C680.073 275.794 670.338 268.856 660.169 262.501C646.971 254.252 633.504 245.762 620.871 236.667C607.901 227.328 593.661 220.408 579.494 213.096C562.036 204.085 542.71 199.33 524.396 192.37C518.232 190.028 515.569 185.983 511.918 180.658C509.754 177.503 506.039 173.142 505.897 169.31C505.776 166.031 504.793 162.098 506.846 159.166C509.213 155.784 514.352 154.962 518.157 155.371C521.319 155.711 524.076 156.976 527.097 157.853C532.565 159.44 538.162 160.688 543.699 162.012C552.717 164.169 559.829 168.024 568.219 171.791C585.151 179.393 601.769 187.713 618.791 195.07C642.613 205.366 663.32 219.993 685.054 234.003C692.641 238.894 698.547 243.876 703.59 251.08C707.655 256.887 711.301 263.959 716.434 268.886C719.235 271.575 722.192 275.19 724.315 278.446C726.53 281.842 730.175 284.498 732.853 287.604C735.69 290.895 738.944 293.695 742.012 296.763C743.73 298.481 744.521 299.718 746.938 299.718" stroke="white" stroke-width="64" stroke-linecap="round"/>
<path d="M337.246 675.492C342.869 677.315 348.022 680.079 354.056 680.079C355.472 680.079 356.844 680.27 358.262 680.27C359.785 680.27 361.503 680.051 363.009 680.313C364.586 680.587 366.234 680.866 367.819 681.024C368.482 681.091 369.199 681.226 369.848 681.226C370.557 681.226 371.134 681.594 371.844 681.608C373.003 681.632 374.054 681.991 375.2 681.991C376.827 681.991 378.493 682.203 380.064 682.607C381.642 683.013 383.478 682.755 385.118 682.755C385.695 682.755 386.813 682.951 385.564 682.638C382.572 681.89 379.424 681.357 376.665 679.931C375.106 679.124 387.08 674.762 385.5 674C407.156 676.379 368.359 673 367.5 673C352.589 673 338.969 673.382 324.455 675.992C314.906 677.708 336.649 677.534 328.5 681.608" stroke="#FF8D00" stroke-width="36" stroke-linecap="round"/>
<path d="M311.233 687.3C317.998 688.052 326.463 696.122 333.283 698.529C343.899 702.276 355.315 700.44 366.304 700.44C379.441 700.44 389.692 705.85 402.439 705.85" stroke="#FF8D00" stroke-width="36" stroke-linecap="round"/>
<path d="M537.5 669.5C539.865 668.449 552.974 673.053 555 674.5C565.999 682.356 572 681 588.906 687.725C596.5 690.5 600 690 606.565 689.1C612.5 686.961 613.484 687.878 617.347 687.878C620.057 687.878 622.593 686.961 625.276 686.961" stroke="#FF8D00" stroke-width="36" stroke-linecap="round"/>
<path d="M321.477 706.827C323.744 707.75 325.852 710.065 327.59 711.734C330.588 714.612 333.272 717.706 335.978 720.852C339.331 724.751 341.001 728.499 342.498 733.349C343.856 737.75 343.865 742.78 344.077 747.34C344.384 753.945 343.529 760.443 342.498 766.935C339.063 788.562 332.546 809.545 322.021 828.842C319.8 832.913 316.975 836.674 314.448 840.558C311.501 845.087 308.499 849.589 305.126 853.819C301.813 857.974 298.27 861.743 294.616 865.586C291.605 868.752 288.025 871.068 284.666 873.838C280.383 877.369 275.739 880.549 271.591 884.23C268.202 887.238 265.18 890.565 264.188 895.097C263.317 899.081 265.637 899.542 268.841 900.904C273.376 902.831 278.084 903.307 282.968 903.722C292.923 904.567 302.84 905.773 312.784 906.778C315.106 907.013 317.476 906.843 319.779 907.186C322.485 907.589 325.198 908.035 327.913 908.375C331.764 908.856 335.707 908.976 339.578 909.291C345.904 909.806 352.266 910.298 358.612 910.395C365.181 910.495 371.759 911.091 378.325 911.363C384.028 911.6 389.739 911.723 395.44 911.974C405.132 912.402 414.809 913.389 424.509 913.723C431.152 913.952 437.775 914.894 444.41 915.336C448.24 915.592 455.023 916.727 456.635 912.008C457.813 908.559 458.122 904.673 458.689 901.09C459.378 896.743 459.943 892.456 459.301 888.067C458.237 880.796 456.556 874.039 454.665 866.978C452.985 860.704 450.895 854.465 448.637 848.369C447.419 845.08 446.436 841.791 445.106 838.538C443.704 835.11 441.637 832.095 440.08 828.757C436.572 821.241 433.845 813.417 430.35 805.92C428.833 802.664 427.279 799.5 425.528 796.36C423.767 793.202 421.576 790.346 419.925 787.106C416.485 780.358 411.33 774.642 408.277 767.648C404.706 759.466 402.373 751.091 401.485 742.212C401.106 738.417 400.9 733.357 399.108 729.902C397.771 727.324 395.465 726.519 392.69 725.776C388.095 724.547 382.897 724.248 378.155 724.248C373.501 724.248 368.897 723.942 364.249 723.942C359.283 723.942 354.601 724.533 349.901 726.218C347.471 727.089 349.796 729.051 350.954 730.021C353.525 732.173 356.344 733.23 359.529 734.181C367.885 736.677 375.925 739.916 384.2 742.654C387.25 743.663 390.403 744.493 393.403 745.642C394.18 745.94 395.524 746.29 396.154 746.865C396.661 747.328 393.755 748.509 393.624 748.563C388.208 750.775 382.545 752.059 376.865 753.351C369.632 754.996 362.392 756.843 355.301 759.022C352.117 760.001 348.278 761.084 345.962 763.658C344.515 765.265 346.819 767.107 348.186 767.936C349.868 768.957 351.831 769.349 353.722 769.787C356.544 770.441 359.334 771.224 362.16 771.859C366.673 772.872 371.38 773.325 375.812 774.677C377.936 775.325 380.789 776.355 382.604 777.666C383.325 778.187 383.581 778.745 383.521 779.635C383.413 781.221 381.176 783.303 380.108 784.305C377.183 787.047 373.745 789.537 370.413 791.759C368.286 793.176 366.258 794.708 364.266 796.309C363.241 797.133 361.828 797.893 361.447 799.264C360.09 804.151 371.405 804.557 373.91 804.612C378.588 804.715 383.405 804.535 388.071 804.171C390.717 803.964 393.126 803.581 395.746 804.171C398.484 804.787 402.162 805.77 401.485 809.214C400.203 815.74 390.164 818.151 384.896 819.724C376.412 822.258 367.109 821.047 358.663 823.714C357.374 824.121 354.087 825.772 353.637 827.246C353.138 828.877 354.986 830.003 356.15 830.676C367.002 836.948 379.678 835.041 391.569 834.157C396.58 833.784 401.38 833.3 406.307 832.272C410.036 831.494 414.209 830.902 418.023 831.287C424.201 831.911 421.119 838.39 418.499 841.288C415.58 844.517 411.432 846.17 407.292 847.248C400.487 849.02 393.236 849.32 386.271 850.152C378.396 851.092 370.522 852.064 362.636 852.919C355.487 853.694 348.13 854.049 341.106 855.67C339.832 855.964 336.093 856.359 335.418 857.86C334.461 859.987 335.704 863.088 337.455 864.38C340.92 866.938 345.613 868.309 349.799 868.982C357.584 870.233 365.916 869.98 373.741 869.355C382.949 868.621 392.126 867.564 401.349 866.978C408.313 866.536 415.392 865.922 422.336 866.978C424.756 867.347 431.908 869.652 429.484 873.566C427.64 876.545 421.873 878.102 418.804 879.17C408.967 882.593 398.651 884.843 388.241 885.486C369.255 886.659 350.007 885.795 331.054 884.382C323.984 883.855 316.97 883.482 309.88 883.482C305.991 883.482 302.001 883.583 298.487 885.452C296.038 886.755 295.905 889.416 297.231 891.802C298.5 894.088 301.054 895.387 303.428 896.2C309.5 898.281 316.136 899.136 322.53 899.307C336.107 899.672 349.983 897.49 363.434 895.844C374.708 894.464 385.913 892.639 397.189 891.293C411.874 889.541 426.394 888.902 441.183 888.984C445.286 889.007 449.666 889.987 453.511 891.429" stroke="#FF8D00" stroke-width="36" stroke-linecap="round"/>
<path d="M554.369 706.216C557.413 707.906 557.746 712.647 558.173 715.69C558.493 717.979 558.342 720.347 558.342 722.652C558.342 726.27 558.672 729.864 558.648 733.485C558.576 744.527 556.531 755.38 554.963 766.272C552.927 780.427 550.037 794.231 546.27 808.008C544.602 814.107 543.056 820.376 540.921 826.329C539.07 831.491 536.62 836.356 534.435 841.373C529.745 852.142 525.055 862.733 521.666 874.008C519.326 881.796 517.268 889.78 515.384 897.694C514.039 903.341 511.155 908.49 511.598 914.47C511.72 916.118 512.995 916.171 514.399 916.185C518.183 916.224 522.333 916.623 526.047 915.812C533.62 914.157 536.543 908.687 539.087 901.973C540.894 897.205 542.631 892.467 543.91 887.524C545.252 882.332 545.588 877.078 546.355 871.8C547.811 861.784 549.716 851.83 551.754 841.916C552.683 837.397 554.03 833.032 554.845 828.469C555.71 823.621 556.768 818.86 558.02 814.104C559.643 807.934 561.507 801.723 562.129 795.358C562.805 788.437 564.317 781.695 565.032 774.796C565.649 768.849 565.496 762.842 565.983 756.883C566.439 751.31 566.337 745.481 567.274 739.971C568.462 732.985 569.056 725.653 571.96 719.12C573.015 716.747 574.493 714.759 576.816 717.083C580.678 720.944 581.467 726.777 582.046 731.957C582.522 736.218 582.36 740.891 581.995 745.15C581.496 750.972 580.776 756.82 580.178 762.639C579.745 766.856 578.867 770.987 578.107 775.153C577.44 778.8 577.166 782.473 576.646 786.138C575.785 792.218 574.854 798.302 573.93 804.375C572.363 814.671 572.018 825.239 571.552 835.634C571.131 845.042 571.092 854.447 568.972 863.684C567.369 870.669 564.398 877.202 562.621 884.111C560.573 892.075 558.887 900.342 557.901 908.51C557.518 911.682 556.108 916.898 557.663 919.853C559.179 922.733 564.704 921.16 566.832 920.226C572.24 917.853 576.981 914.523 580.501 909.767C585.289 903.296 587.604 895.678 588.277 887.71C589.041 878.67 590.369 869.784 592.03 860.866C592.992 855.7 593.534 850.465 594.407 845.278C595.314 839.889 596.242 834.502 596.614 829.046C596.87 825.303 597.387 821.65 597.48 817.89C597.616 812.405 596.921 807.196 596.394 801.743C595.457 792.062 595.424 782.244 595.935 772.538C596.564 760.581 596.546 748.659 596.546 736.677C596.546 730.912 599.189 725.553 599.297 719.799C599.315 718.87 599.603 718.009 599.603 717.066C599.603 715.684 600.476 717.453 600.672 717.999C602.172 722.165 603.123 726.695 603.882 731.04C605.153 738.323 606.32 745.639 607.091 752.994C607.636 758.192 608.577 763.32 609.247 768.497C609.899 773.528 610.085 778.65 610.368 783.71C610.756 790.666 611.532 797.405 610.979 804.392C610.711 807.78 610.911 811.251 610.911 814.647C610.911 820.651 610.433 826.63 610.317 832.629C610.112 843.19 609.689 853.767 609.689 864.329C609.689 870.653 609.425 877.025 608.924 883.33C608.292 891.305 608.466 899.293 608.466 907.288C608.466 912.768 608.307 919.464 610.436 924.607C611.757 927.799 614.687 929.056 618.009 929.022C628.617 928.913 632.661 916.856 633.817 908.188C634.813 900.715 633.312 894.039 632.034 886.726C630.991 880.762 629.872 874.989 628.332 869.118C627.144 864.587 626.137 859.954 625.581 855.296C625.394 853.721 625.276 852.145 625.276 850.559C625.276 849.929 625.189 849.936 625.615 850.44C633.56 859.844 639.699 870.269 646.364 880.579C651.28 888.182 656.007 896.351 662.461 902.805C665.111 905.455 668.179 907.454 671.358 909.393C674.951 911.585 678.768 911.889 682.871 912.144C690.757 912.633 698.149 914.497 705.81 916.321C709.294 917.15 716.143 918.983 710.666 922.756C707.744 924.769 704.433 925.512 701.073 926.509C697.084 927.691 692.853 928.144 688.712 928.342C684.163 928.561 679.435 928.046 674.924 927.493C670.787 926.987 666.693 926.597 662.937 924.607C653.898 919.818 650.965 908.536 649.404 899.324C648.206 892.26 646.87 885.197 645.583 878.151C644.415 871.752 643.075 865.285 640.761 859.185C638.364 852.865 635.277 846.805 631.66 841.101C629.531 837.743 626.892 834.9 624.597 831.695C618.852 823.671 615.191 814.437 610.945 805.546C606.504 796.246 601.385 787.149 597.497 777.598C593.885 768.725 591.715 759.147 590.451 749.666C589.558 742.97 589.383 735.972 591.996 729.613C593.779 725.275 596.345 720.603 599.297 716.913" stroke="#FF8D00" stroke-width="36" stroke-linecap="round"/>
<path d="M346.744 64.5394C347.001 70.9733 349.085 77.3797 349.299 83.793C349.493 89.6112 350.501 95.3488 350.907 101.154C352.618 125.623 357.415 149.824 359.186 174.29C359.816 183.003 362.844 190.894 365.572 199.078C367.717 205.513 371.833 211.071 376.878 215.493C381.681 219.703 387.746 221.957 393.672 224.103C397.771 225.587 402.159 225.899 406.397 226.776C410.476 227.62 415.191 228.173 419.335 227.344C425.939 226.023 431.622 219.275 436.555 215.068C441.171 211.13 444.732 205.555 446.536 199.74C447.241 197.471 447.248 194.929 447.648 192.597C448.288 188.869 448.925 185.2 448.925 181.409C448.925 173.768 448.793 166.176 447.435 158.631C446.09 151.16 441.589 144.288 438.305 137.556C436.113 133.063 433.049 130.067 429.956 126.227C419.627 113.405 405.88 104.052 393.483 93.4908C388.44 89.1953 382.422 85.9996 377.067 82.09C372.021 78.4052 367.27 74.5265 361.646 71.6827C359.237 70.4648 356.887 69.3161 354.668 67.7799C353.547 67.0039 355.472 76.7018 355.685 77.5013C358.513 88.1068 362.835 97.2132 369.83 105.743C372.894 109.481 376.707 112.453 379.48 116.458C381.626 119.558 383.928 122.365 386.245 125.328C389.467 129.448 393.304 132.813 396.983 136.492C401.686 141.195 406.614 145.451 410.939 150.542C415.644 156.082 418.246 162.895 420.423 169.701C422.017 174.68 422.954 178.929 422.954 184.153C422.954 188.895 420.163 192.703 417.396 196.334C415.317 199.063 410.99 200.957 407.604 201.183C403.652 201.447 401.058 200.605 397.622 199.078C395.856 198.293 394.898 195.724 394.098 194.158C392.938 191.891 391.57 189.797 390.81 187.346C389.321 182.549 387.112 178.028 385.488 173.273C383.903 168.631 383.306 163.657 381.443 159.104C380.251 156.19 378.25 152.499 378.25 149.265" stroke="#FF8D00" stroke-width="36" stroke-linecap="round"/>
<path d="M750.39 257.889C765.805 257.889 820.39 266.389 836.89 279.833C866.89 302.889 877.867 323.866 897.89 343.889C913.586 359.585 934.563 388.33 937.445 409.944C940.151 430.242 940.821 451.486 941.39 471.944C941.974 492.985 944.39 513.995 944.39 535.389C944.39 557.559 941.555 575.838 936.167 597.389C929.781 622.935 923.609 653.825 907.39 675.167C899.867 685.065 889.13 689.476 877.39 693.389C853.305 701.417 830.081 716.29 805.278 703.889C784.571 693.535 767.911 684.992 751.39 669.389C726.288 645.682 722.274 619.051 700.89 593.389C693.452 584.464 684.743 575.958 674.89 569.389C632.3 540.996 584.204 523.486 541.167 496.389C532.193 490.739 521.828 487.486 512.945 481.833C505.259 476.942 497.254 472.365 490.834 465.944C488.131 463.242 485.488 461.161 482.389 458.389C464.892 442.733 442.199 426.847 423.223 411.778C400.943 394.085 393.877 387.969 379.834 361.889C371.967 347.278 364.86 331.355 359.612 315.611C353.645 297.712 353.462 278.966 349.445 260.889C348.76 257.808 349.449 253.696 347.889 250.889M347.889 250.889C345.736 247.013 350.53 246.389 353.389 246.389C357.029 246.389 358.013 250.496 360.945 251.333C370.798 254.149 380.361 257.389 390.834 257.389C400.846 257.389 410.479 254.389 420.334 254.389C426.62 254.389 432.049 252.661 438.167 252.389C474.244 250.785 482.389 225.339 482.389 192.389C482.389 180.988 481.926 169.653 481.389 158.389C480.664 143.157 470.148 127.493 459.167 117.611C450.384 109.706 428.78 99.1528 417.889 93.9445C397.086 83.9951 380.818 61.2647 358 46.5C349.5 41 334.5 31.5 326 29C318.5 45 322.389 74.5 322.389 91.4444C322.389 102.597 324.389 113.332 324.389 124.389C324.389 135.971 327.872 145.947 330.167 157.167C331.502 163.69 333.378 169.596 334.889 175.944M347.889 250.889C347.733 245.578 336.121 181.118 334.889 175.944M334.889 175.944L339.89 203.389C304.14 217.139 237.334 250.444 210.612 277.167C190.647 297.131 164.436 307.938 146.89 331.333C132.753 350.182 119.441 365.176 108.834 386.389C84.9569 434.143 59.2265 495.356 53.3339 548.389C50.8895 570.389 52.3895 619.36 52.3895 640.833C52.3895 659.98 40.3898 685.389 36.3898 692.889C35.4814 693.423 23.9027 715.405 24.0006 715.445C26.9433 716.622 28.8222 718.584 31.834 719.445C56.0806 726.372 68.3089 734.389 97.8895 734.389C117.728 734.389 141.839 741.19 161.834 744.389C184.485 748.013 207.24 750.96 229.89 754.445C345.117 772.172 307.326 753.476 313.389 650.389C313.426 649.768 313.389 655.144 313.389 656.611C313.389 663.196 313.297 669.637 314.167 676.167C316.227 691.611 316.389 707.564 316.389 723.167C316.389 744.579 316.657 781.694 308.889 801.889C303.131 816.861 298.623 829.936 285.834 840.167C271.185 851.886 257.652 865.248 242.612 876.389C234.15 882.657 224.37 887.668 216.39 894.389C212.13 897.976 208.355 901.125 204.334 904.945C201.439 907.695 197.371 910.77 194.945 913.889C193.866 915.277 189.243 917.389 191.001 917.389C224.506 917.389 256.774 929.389 291.167 929.389C300.542 929.389 308.825 932.389 318.389 932.389C331.075 932.389 343.76 932.389 356.445 932.389C366.697 932.389 376.479 934.389 386.834 934.389C397.575 934.389 408.674 939.998 419.612 940.389C432.63 940.854 445.024 945.389 458.612 945.389C463.602 945.389 468.019 944.32 472.834 943.445C476.609 942.758 477.389 939.838 477.389 935.889C477.389 914.475 476.523 892.912 479.334 871.833C481.678 854.254 468.39 838.889 459.89 824.389C451.39 807.889 436.736 789.347 430.167 771.611C421.765 748.926 419.364 720.681 406.889 699.889C402.362 692.343 397.213 684.861 394.389 676.389" stroke="black" stroke-width="48" stroke-linecap="round"/>
<path d="M538.39 672.389C538.39 685.689 535.39 698.404 535.39 711.889C535.39 726.737 536.39 742.517 536.39 757.889C536.39 775.482 529.47 790.261 524.167 806.167C521.324 814.696 517.212 822.708 514.167 831.167C510.101 842.462 502.998 853.069 496.945 863.445C493.468 869.406 490.164 886.772 483.834 890.389C479.649 892.78 477.39 910.338 477.39 914.833C477.39 924.368 479.991 942.389 491.612 942.389C497.41 942.389 502.731 944.091 508.39 944.389C513.167 944.64 517.733 945.389 522.612 945.389C530.755 945.389 538.409 947.167 546.39 947.389C570.639 948.063 595.003 947.938 619.167 947.389C650.207 946.684 682.497 943.766 713.39 940.333C721.469 939.436 808.102 929.149 775.612 915.611C771.477 913.889 767.498 911.61 763.167 910.167C750.362 905.898 737.433 900.633 725.39 894.611C701.67 882.752 683.373 870.876 662.89 854.945C632.336 831.181 638.146 797.889 625.39 768.389C621.387 759.133 622.39 744.826 622.39 734.833C622.39 725.633 624.39 716.742 624.39 707.389C624.39 699.44 624.787 690.185 621.39 683.389" stroke="black" stroke-width="48" stroke-linecap="round"/>
<path d="M629.39 760.389C633.885 760.389 638.145 763.139 642.39 763.389C648.997 763.778 655.109 763.184 661.39 761.389C676.018 757.21 692.697 750.098 706.39 743.611C714.652 739.698 723.79 736.138 731.612 731.389C739.229 726.765 746.552 724.227 752.89 717.889C757.665 713.114 763.391 707.831 766.89 702.389C769.48 698.36 774.39 692.77 774.39 687.389" stroke="black" stroke-width="48" stroke-linecap="round"/>
<path d="M754.168 276.611C755.988 279.038 757.066 285.406 757.446 288.444C758.214 294.591 762.755 301.573 764.612 307.611C771.858 331.158 757.39 359.957 757.39 383.944C757.39 393.754 756.39 403.772 756.39 413.389C756.39 427.317 757.386 437.122 760.446 450.889C761.616 456.155 767.533 464.412 770.168 469.389C772.973 474.687 780.187 478.873 785.39 481.611C812.859 496.068 821.63 491.389 852.39 491.389" stroke="black" stroke-width="48" stroke-linecap="round"/>
<path d="M644.39 247.389C638.409 247.389 642.82 253.765 645.835 249.889C649.053 245.751 644.099 245.389 641.39 245.389" stroke="black" stroke-width="48" stroke-linecap="round"/>
<path d="M762.39 298.389C758.664 297.561 757.579 289.571 755.612 287.167C731.839 258.111 719.962 224.466 691.612 197.167C674.684 180.865 653.357 168.347 633.334 156.333C613.207 144.257 594.038 133.932 572.056 125.833C546.816 116.534 510.995 115.859 484.834 123.333C480.484 124.576 475.654 124.683 471.39 126.389" stroke="black" stroke-width="48" stroke-linecap="round"/>
<path d="M363.885 909.281C363.971 909.24 364.085 909.251 364.178 909.233C364.255 909.218 364.331 909.203 364.41 909.194C364.594 909.174 364.8 909.204 364.984 909.221C365.205 909.242 365.431 909.265 365.651 909.299C365.893 909.337 366.137 909.407 366.383 909.417C366.556 909.424 366.728 909.467 366.9 909.483C367.153 909.507 367.405 909.522 367.658 909.551C367.959 909.585 368.264 909.599 368.566 909.622C368.833 909.643 369.096 909.699 369.364 909.716C369.749 909.739 370.138 909.817 370.524 909.821C370.821 909.824 371.111 909.902 371.406 909.911C371.727 909.922 372.047 909.973 372.364 910.022C372.873 910.101 373.391 910.098 373.9 910.173C374.133 910.207 374.371 910.195 374.605 910.229C374.837 910.263 375.086 910.275 375.32 910.285C375.634 910.298 375.948 910.337 376.263 910.345C376.376 910.349 376.489 910.374 376.603 910.375C376.753 910.377 376.906 910.381 377.056 910.398C377.199 910.415 377.347 910.405 377.491 910.405C377.635 910.405 377.776 910.42 377.919 910.42C378.16 910.42 378.401 910.42 378.642 910.42C379.723 910.42 380.796 910.54 381.877 910.54C382.878 910.54 383.877 910.585 384.877 910.585C385.265 910.585 385.652 910.615 386.038 910.615C386.246 910.615 386.453 910.623 386.66 910.63C386.746 910.633 386.838 910.644 386.923 910.657C387.002 910.669 387.083 910.652 387.161 910.668C387.24 910.684 387.322 910.705 387.402 910.705C387.501 910.705 387.592 910.748 387.691 910.75C387.852 910.754 388.014 910.808 388.174 910.826C388.283 910.838 388.42 910.854 388.523 910.889C388.615 910.919 388.752 910.975 388.849 910.975" stroke="black" stroke-linecap="round"/>
<path d="M380.467 910.87C380.077 910.808 379.678 910.825 379.284 910.825C378.752 910.825 378.22 910.83 377.688 910.795C377.217 910.765 376.745 910.738 376.272 910.724C376.122 910.719 375.971 910.715 375.821 910.709C375.81 910.708 375.622 910.686 375.702 910.731C375.968 910.881 376.304 910.96 376.601 911.018C376.958 911.088 377.338 911.147 377.703 911.155C377.774 911.157 377.699 911.151 377.678 911.148C377.528 911.128 377.379 911.1 377.229 911.084C376.413 910.995 375.583 910.995 374.763 910.991C373.608 910.985 372.451 910.962 371.3 910.867C371.018 910.844 370.734 910.777 370.457 910.729C369.774 910.61 369.093 910.469 368.417 910.323C367.595 910.146 366.765 909.94 365.972 909.662C365.777 909.594 365.591 909.51 365.399 909.44C365.294 909.402 365.2 909.35 365.098 909.304C364.975 909.25 364.841 909.235 364.718 909.183C364.509 909.093 364.285 908.998 364.061 908.951C363.604 908.856 363.142 908.79 362.673 908.786C361.716 908.778 360.761 908.822 359.806 908.846C359.731 908.848 359.655 908.844 359.585 908.873C359.494 908.91 359.779 908.906 359.878 908.906C360.146 908.907 360.414 908.903 360.682 908.914C361.308 908.938 361.936 908.922 362.562 908.948C362.987 908.965 363.412 908.996 363.838 908.996C364.623 908.996 365.403 909.042 366.185 909.109C366.761 909.158 367.337 909.212 367.913 909.269C368.657 909.344 369.399 909.449 370.145 909.498C371.032 909.557 371.923 909.586 372.806 909.679C373.798 909.783 374.789 909.883 375.779 909.997C377.474 910.193 379.178 910.318 380.88 910.412C382.143 910.482 383.402 910.589 384.662 910.69C385.109 910.726 385.554 910.781 386.001 910.817C386.449 910.853 386.899 910.915 387.349 910.915" stroke="black" stroke-linecap="round"/>
<path d="M458.649 878.246V886.973H457.592V879.354H457.541L455.41 880.769V879.695L457.592 878.246H458.649Z" fill="black"/>
</svg>
